<?xml version="1.0" encoding="UTF-8" standalone="no"?>
<svg
   xmlns:dc="http://purl.org/dc/elements/1.1/"
   xmlns:cc="http://creativecommons.org/ns#"
   xmlns:rdf="http://www.w3.org/1999/02/22-rdf-syntax-ns#"
   xmlns:svg="http://www.w3.org/2000/svg"
   xmlns="http://www.w3.org/2000/svg"
   id="svg45"
   viewBox="0 0 85944.58 139437.78"
   style="shape-rendering:geometricPrecision; text-rendering:geometricPrecision; image-rendering:optimizeQuality; fill-rule:evenodd; clip-rule:evenodd"
   version="1.1"
   height="150px"
   width="200px"
   xml:space="preserve"><metadata
     id="metadata49"><rdf:RDF><cc:Work
         rdf:about=""><dc:format>image/svg+xml</dc:format><dc:type
           rdf:resource="http://purl.org/dc/dcmitype/StillImage" /></cc:Work></rdf:RDF></metadata><defs
     id="defs4"><style
       id="style2"
       type="text/css"><![CDATA[
    .fil0 {fill:#2C2D31}
    .fil1 {fill:white}
   ]]></style></defs><g
     id="Capa_x0020_1"><metadata
       id="CorelCorpID_0Corel-Layer" /><rect
       id="rect7"
       height="139437.78"
       width="85944.57"
       class="fil0" /><g
       id="_2446551535856"><path
         id="path9"
         d="M25156.81 115122.7l187.05 0 0 -561.08 187.05 0 0 -374.1 187.05 0 0 -187.05 187.05 0 0 -187.05 187.05 0 0 -374.03 186.98 0 0 -187.05 187.05 0 0 -187.05 374.1 0 0 -187.05 187.05 0 0 -187.05 186.98 0 0 -186.98 187.05 0 0 -187.05 374.1 0 0 -187.05 187.05 0 0 -187.05 187.05 0 0 -187.05 374.03 0 0 -187.05 187.05 0 0 -186.98 374.1 0 0 -187.05 374.03 0 0 -187.05 374.1 0 0 -187.05 187.05 0 0 -187.05 374.1 0 0 -187.05 374.03 0 0 -186.98 374.1 0 0 -187.05 374.1 0 0 -187.05 374.03 0 0 -187.05 374.1 0 0 -187.05 374.1 0 0 -187.05 374.03 0 0 -186.98 374.1 0 0 -187.05 374.1 0 0 -187.05 561.08 0 0 -187.05 374.1 0 0 -187.05 374.03 0 0 -187.05 374.1 0 0 -186.98 187.05 0 0 -187.05 374.1 0 0 -187.05 374.03 0 0 -187.05 187.05 0 0 9726.02 -187.05 0 0 561.15 -187.05 0 0 374.1 -186.98 0 0 186.98 -187.05 0 0 187.05 -374.1 0 0 187.05 -187.05 0 0 187.05 -187.05 0 0 187.05 -374.03 0 0 187.05 -374.1 0 0 186.98 -374.1 0 0 187.05 -374.03 0 0 187.05 -561.15 0 0 187.05 -1309.29 0 0 187.05 -3366.71 0 0 -187.05 -561.08 0 0 -187.05 -374.1 0 0 -187.05 -374.03 0 0 -187.05 -187.05 0 0 -186.98 -187.05 0 0 -187.05 -187.05 0 0 -187.05 -187.05 0 0 -187.05 -186.98 0 0 -187.05 -187.05 0 0 -187.05 -187.05 0 0 -374.03 -187.05 0 0 -187.05 -187.05 0 0 -748.13 -187.05 0 0 -1870.44zm50874.63 -43018.98l-187.05 0 0 187.05 -186.98 0 0 374.03 -187.05 0 0 748.2 -187.05 0 0 561.08 -187.05 0 0 561.15 -187.05 0 0 561.08 -187.05 0 0 748.2 -186.98 0 0 561.08 -187.05 0 0 561.15 -187.05 0 0 561.08 -187.05 0 0 561.15 -187.05 0 0 561.08 -187.05 0 0 561.15 -186.98 0 0 748.13 -187.05 0 0 561.08 -187.05 0 0 561.15 -187.05 0 0 374.1 -187.05 0 0 748.13 -187.05 0 0 561.08 -186.98 0 0 561.15 -187.05 0 0 561.08 -187.05 0 0 748.2 -187.05 0 0 561.08 -187.05 0 0 561.15 -187.05 0 0 561.08 -186.98 0 0 561.15 -187.05 0 0 561.08 -187.05 0 0 561.15 -187.05 0 0 561.08 -187.05 0 0 748.13 -187.05 0 0 561.15 -186.98 0 0 561.08 -187.05 0 0 561.15 -187.05 0 0 561.08 -187.05 0 0 561.15 -187.05 0 0 561.08 -187.05 0 0 748.2 -186.98 0 0 561.08 -187.05 0 0 561.15 -187.05 0 0 374.03 -187.05 0 0 748.2 -187.05 0 0 561.08 -186.98 0 0 561.15 -187.05 0 0 561.08 -187.05 0 0 748.2 -187.05 0 0 561.08 -187.05 0 0 561.15 -187.05 0 0 561.08 -186.98 0 0 561.15 -187.05 0 0 561.08 -187.05 0 0 561.15 -187.05 0 0 748.13 -187.05 0 0 561.08 -187.05 0 0 561.15 -186.98 0 0 561.08 -187.05 0 0 561.15 -187.05 0 0 -561.15 -187.05 0 0 -561.08 -187.05 0 0 -561.15 -187.05 0 0 -561.08 -186.98 0 0 -561.15 -187.05 0 0 -561.08 -187.05 0 0 -561.15 -187.05 0 0 -374.03 -187.05 0 0 -748.2 -187.05 0 0 -561.08 -186.98 0 0 -561.15 -187.05 0 0 -561.08 -187.05 0 0 -561.15 -187.05 0 0 -561.08 -187.05 0 0 -561.15 -187.05 0 0 -561.08 -186.98 0 0 -561.15 -187.05 0 0 -561.08 -187.05 0 0 -561.15 -187.05 0 0 -561.08 -187.05 0 0 -561.15 -187.05 0 0 -561.08 -186.98 0 0 -561.15 -187.05 0 0 -561.08 -187.05 0 0 -561.15 -187.05 0 0 -748.13 -187.05 0 0 -561.08 -187.05 0 0 -561.15 -186.98 0 0 -561.08 -187.05 0 0 -561.15 -187.05 0 0 -561.08 -187.05 0 0 -561.15 -187.05 0 0 -561.08 -187.05 0 0 -561.15 -186.98 0 0 -561.08 -187.05 0 0 -561.15 -187.05 0 0 -561.08 -187.05 0 0 -561.15 -187.05 0 0 -561.08 -187.05 0 0 -561.15 -186.98 0 0 -561.08 -187.05 0 0 -561.15 -187.05 0 0 -561.08 -187.05 0 0 -561.15 -187.05 0 0 -561.08 -186.98 0 0 -561.15 -187.05 0 0 -561.08 -187.05 0 0 -561.15 -187.05 0 0 -561.08 -187.05 0 0 -561.15 -187.05 0 0 -561.08 -186.98 0 0 -561.15 -187.05 0 0 -561.08 -187.05 0 0 -561.15 -187.05 0 0 -561.08 -187.05 0 0 -374.1 -187.05 0 0 -374.1 -935.18 0 0 561.15 -187.05 0 0 1122.24 -186.98 0 0 2431.52 -187.05 0 0 2057.42 -187.05 0 0 1496.34 -187.05 0 0 1870.37 -187.05 0 0 2431.52 -187.05 0 0 2618.5 -186.98 0 0 1683.39 -187.05 0 0 2057.42 -187.05 0 0 1309.29 -187.05 0 0 2618.5 -187.05 0 0 1870.44 -187.05 0 0 2244.47 -186.98 0 0 2057.42 -187.05 0 0 2057.42 -187.05 0 0 1870.37 -187.05 0 0 1683.39 -187.05 0 0 2244.47 -187.05 0 0 1496.27 -186.98 0 0 2805.62 -187.05 0 0 1309.29 -187.05 0 0 2431.52 -187.05 0 0 748.13 -187.05 0 0 374.1 -187.05 0 0 561.08 -186.98 0 0 187.05 -187.05 0 0 187.05 -187.05 0 0 187.05 -187.05 0 0 186.98 -187.05 0 0 187.05 -374.03 0 0 187.05 -748.2 0 0 187.05 -2431.45 0 0 -187.05 -374.1 0 0 -187.05 -374.1 0 0 -187.05 -374.03 0 0 -186.98 -187.05 0 0 -187.05 -187.05 0 0 -187.05 -187.05 0 0 -187.05 -187.05 0 0 -374.1 -187.05 0 0 -561.08 -186.98 0 0 -748.13 -187.05 0 0 -7107.51 187.05 0 0 -11222.35 -187.05 0 0 -935.18 -187.05 0 0 -374.1 -187.05 0 0 -187.05 -187.05 0 0 -186.98 -187.05 0 0 -374.1 -186.98 0 0 -187.05 -187.05 0 0 -187.05 -374.1 0 0 -187.05 -187.05 0 0 -186.98 -187.05 0 0 -187.05 -374.03 0 0 -187.05 -374.1 0 0 -187.05 -374.1 0 0 -187.05 -374.03 0 0 -187.05 -561.15 0 0 -186.98 -748.13 0 0 -187.05 -2992.6 0 0 187.05 -561.15 0 0 186.98 -748.13 0 0 187.05 -935.18 0 0 187.05 -561.15 0 0 187.05 -561.08 0 0 187.05 -561.15 0 0 187.05 -561.08 0 0 186.98 -561.15 0 0 187.05 -374.03 0 0 187.05 -561.15 0 0 187.05 -374.1 0 0 187.05 -561.08 0 0 187.05 -374.1 0 0 186.98 -561.08 0 0 187.05 -374.1 0 0 187.05 -374.03 0 0 187.05 -374.1 0 0 187.05 -561.15 0 0 187.05 -374.03 0 0 186.98 -374.1 0 0 187.05 -374.1 0 0 187.05 -374.03 0 0 187.05 -374.1 0 0 187.05 -374.1 0 0 187.05 -374.03 0 0 186.98 -374.1 0 0 187.05 -374.1 0 0 187.05 -374.03 0 0 187.05 -374.1 0 0 187.05 -374.1 0 0 187.05 -186.98 0 0 186.98 -187.05 0 0 187.05 -374.1 0 0 187.05 -187.05 0 0 187.05 -187.05 0 0 187.05 -186.98 0 0 187.05 -187.05 0 0 374.03 -187.05 0 0 374.1 -187.05 0 0 1683.32 187.05 0 0 374.1 187.05 0 0 187.05 187.05 0 0 187.05 186.98 0 0 187.05 374.1 0 0 186.98 187.05 0 0 187.05 748.13 0 0 187.05 1683.39 0 0 -187.05 561.08 0 0 -187.05 374.1 0 0 -186.98 374.1 0 0 -187.05 186.98 0 0 -187.05 187.05 0 0 -187.05 187.05 0 0 -187.05 187.05 0 0 -187.05 187.05 0 0 -3740.74 187.05 0 0 -187.05 186.98 0 0 -187.05 187.05 0 0 -187.05 187.05 0 0 -187.05 187.05 0 0 -186.98 187.05 0 0 -187.05 187.05 0 0 -187.05 374.03 0 0 -187.05 187.05 0 0 -187.05 374.1 0 0 -187.05 374.03 0 0 -186.98 374.1 0 0 -187.05 561.08 0 0 -187.05 748.2 0 0 -187.05 561.08 0 0 -187.05 2431.52 0 0 187.05 1122.24 0 0 187.05 748.13 0 0 187.05 374.1 0 0 187.05 374.1 0 0 186.98 374.03 0 0 187.05 187.05 0 0 187.05 374.1 0 0 187.05 187.05 0 0 187.05 187.05 0 0 187.05 186.98 0 0 374.03 187.05 0 0 374.1 187.05 0 0 6546.36 -374.1 0 0 187.05 -561.08 0 0 187.05 -374.1 0 0 187.05 -374.03 0 0 186.98 -374.1 0 0 187.05 -374.1 0 0 187.05 -561.08 0 0 187.05 -374.1 0 0 187.05 -374.1 0 0 186.98 -374.03 0 0 187.05 -374.1 0 0 187.05 -374.1 0 0 187.05 -374.03 0 0 187.05 -561.15 0 0 187.05 -374.03 0 0 186.98 -374.1 0 0 187.05 -374.1 0 0 187.05 -374.03 0 0 187.05 -374.1 0 0 187.05 -374.1 0 0 187.05 -374.03 0 0 186.98 -374.1 0 0 187.05 -374.1 0 0 187.05 -187.05 0 0 187.05 -374.03 0 0 187.05 -374.1 0 0 187.05 -374.03 0 0 186.98 -374.1 0 0 187.05 -374.1 0 0 187.05 -374.03 0 0 187.05 -374.1 0 0 187.05 -187.05 0 0 187.05 -374.1 0 0 186.98 -374.03 0 0 187.05 -187.05 0 0 187.05 -374.1 0 0 187.05 -187.05 0 0 187.05 -374.03 0 0 187.05 -187.05 0 0 186.98 -187.05 0 0 187.05 -187.05 0 0 187.05 -374.03 0 0 187.05 -187.05 0 0 187.05 -187.05 0 0 187.05 -187.05 0 0 186.98 -187.05 0 0 187.05 -187.05 0 0 187.05 -186.98 0 0 187.05 -187.05 0 0 374.1 -187.05 0 0 186.98 -187.05 0 0 374.1 -187.05 0 0 374.1 -187.05 0 0 561.08 -186.98 0 0 2244.47 186.98 0 0 561.15 187.05 0 0 561.08 187.05 0 0 374.1 187.05 0 0 187.05 187.05 0 0 374.03 187.05 0 0 187.05 186.98 0 0 187.05 187.05 0 0 187.05 187.05 0 0 187.05 187.05 0 0 187.05 374.1 0 0 186.98 186.98 0 0 187.05 374.1 0 0 187.05 374.1 0 0 187.05 374.03 0 0 187.05 374.1 0 0 187.05 748.13 0 0 186.98 3927.86 0 0 -186.98 1122.24 0 0 -187.05 561.08 0 0 -187.05 561.15 0 0 -187.05 561.08 0 0 -187.05 374.1 0 0 -187.05 374.1 0 0 -186.98 374.03 0 0 -187.05 374.1 0 0 -187.05 187.05 0 0 -187.05 374.03 0 0 -187.05 187.05 0 0 -187.05 374.1 0 0 -186.98 187.05 0 0 -187.05 187.05 0 0 -187.05 374.03 0 0 -187.05 187.05 0 0 -187.05 187.05 0 0 -187.05 187.05 0 0 -186.98 187.05 0 0 -187.05 186.98 0 0 -187.05 187.05 0 0 -187.05 187.05 0 0 -187.05 187.05 0 0 -187.05 187.05 0 0 -186.98 187.05 0 0 -374.1 186.98 0 0 -187.05 187.05 0 0 -187.05 187.05 0 0 1496.34 187.05 0 0 748.13 187.05 0 0 374.1 186.98 0 0 374.1 187.05 0 0 374.03 187.05 0 0 187.05 187.05 0 0 187.05 187.05 0 0 187.05 187.05 0 0 187.05 186.98 0 0 186.98 374.1 0 0 187.05 187.05 0 0 187.05 374.1 0 0 187.05 561.08 0 0 187.05 374.1 0 0 187.05 561.08 0 0 186.98 935.18 0 0 187.05 2431.52 0 0 -187.05 748.2 0 0 -186.98 748.13 0 0 -187.05 374.1 0 0 -187.05 374.03 0 0 -187.05 374.1 0 0 -187.05 374.1 0 0 -187.05 186.98 0 0 -186.98 374.1 0 0 -187.05 187.05 0 0 -187.05 187.05 0 0 -187.05 186.98 0 0 -187.05 187.05 0 0 -374.03 187.05 0 0 -187.05 187.05 0 0 -187.05 187.05 0 0 -374.1 5237.08 0 0 -187.05 187.05 0 0 -186.98 187.05 0 0 -561.15 -187.05 0 0 -187.05 -374.1 0 0 -187.05 -748.13 0 0 -186.98 -187.05 0 0 -187.05 -187.05 0 0 -374.1 -187.05 0 0 -2805.55 187.05 0 0 -2244.47 187.05 0 0 -2431.52 187.05 0 0 -1496.34 187.05 0 0 -2057.42 187.05 0 0 -2244.47 186.98 0 0 -2244.47 187.05 0 0 -1496.34 187.05 0 0 -2057.42 187.05 0 0 -1870.37 187.05 0 0 -2992.6 187.05 0 0 -1683.39 186.98 0 0 -1309.29 187.05 0 0 -2431.52 187.05 0 0 -2244.4 187.05 0 0 -2057.49 374.1 0 0 748.2 186.98 0 0 561.08 187.05 0 0 748.2 187.05 0 0 561.08 187.05 0 0 561.15 187.05 0 0 748.13 187.05 0 0 374.03 186.98 0 0 561.15 187.05 0 0 748.13 187.05 0 0 561.15 187.05 0 0 561.08 187.05 0 0 748.2 186.98 0 0 374.03 187.05 0 0 561.15 187.05 0 0 748.13 187.05 0 0 561.15 187.05 0 0 561.08 187.05 0 0 561.15 186.98 0 0 561.08 187.05 0 0 561.15 187.05 0 0 561.08 187.05 0 0 561.15 187.05 0 0 561.08 187.05 0 0 561.15 186.98 0 0 561.08 187.05 0 0 561.15 187.05 0 0 561.08 187.05 0 0 561.15 187.05 0 0 561.08 187.05 0 0 374.1 186.98 0 0 561.08 187.05 0 0 561.15 187.05 0 0 561.08 187.05 0 0 561.15 187.05 0 0 561.08 187.05 0 0 561.15 186.98 0 0 561.08 187.05 0 0 561.15 187.05 0 0 374.03 187.05 0 0 561.15 187.05 0 0 561.08 187.05 0 0 561.15 186.98 0 0 561.08 187.05 0 0 374.1 187.05 0 0 561.08 187.05 0 0 374.1 187.05 0 0 561.15 187.05 0 0 186.98 186.98 0 0 374.1 374.1 0 0 -187.05 187.05 0 0 -187.05 187.05 0 0 -374.03 187.05 0 0 -561.15 186.98 0 0 -561.08 187.05 0 0 -561.15 187.05 0 0 -561.08 187.05 0 0 -561.15 187.05 0 0 -561.08 187.05 0 0 -561.15 186.98 0 0 -561.08 187.05 0 0 -561.15 187.05 0 0 -561.08 187.05 0 0 -561.15 187.05 0 0 -748.13 187.05 0 0 -561.08 186.98 0 0 -561.15 187.05 0 0 -561.08 187.05 0 0 -561.15 187.05 0 0 -561.08 187.05 0 0 -561.15 186.98 0 0 -561.08 187.05 0 0 -561.15 187.05 0 0 -561.08 187.05 0 0 -561.15 187.05 0 0 -561.08 187.05 0 0 -561.15 186.98 0 0 -561.08 187.05 0 0 -561.15 187.05 0 0 -748.13 187.05 0 0 -561.15 187.05 0 0 -561.08 187.05 0 0 -561.15 186.98 0 0 -561.08 187.05 0 0 -561.15 187.05 0 0 -561.08 187.05 0 0 -561.15 187.05 0 0 -561.08 187.05 0 0 -561.15 186.98 0 0 -561.08 187.05 0 0 -561.15 187.05 0 0 -561.08 187.05 0 0 -561.15 187.05 0 0 -748.13 187.05 0 0 -561.08 186.98 0 0 -561.15 187.05 0 0 -561.08 187.05 0 0 -561.15 187.05 0 0 -561.08 187.05 0 0 -374.1 187.05 0 0 1496.34 186.98 0 0 1496.27 187.05 0 0 2618.57 187.05 0 0 1496.27 187.05 0 0 2431.52 187.05 0 0 1309.29 187.05 0 0 2618.57 186.98 0 0 1309.29 187.05 0 0 2618.5 187.05 0 0 1309.29 187.05 0 0 2431.52 187.05 0 0 1309.29 187.05 0 0 2618.5 186.98 0 0 2244.47 187.05 0 0 3366.71 -187.05 0 0 187.05 -186.98 0 0 187.05 -187.05 0 0 748.13 187.05 0 0 187.05 6359.31 0 0 -187.05 187.05 0 0 -187.05 186.98 0 0 -561.08 -186.98 0 0 -187.05 -561.15 0 0 -187.05 -561.08 0 0 -187.05 -374.1 0 0 -186.98 -187.05 0 0 -187.05 -374.1 0 0 -374.1 -186.98 0 0 -561.08 -187.05 0 0 -1683.39 -187.05 0 0 -2805.55 -187.05 0 0 -1870.44 -187.05 0 0 -1870.37 -187.05 0 0 -1870.37 -186.98 0 0 -1870.44 -187.05 0 0 -1870.37 -187.05 0 0 -1683.32 -187.05 0 0 -1870.44 -187.05 0 0 -2057.42 -187.05 0 0 -1870.37 -186.98 0 0 -1309.29 -187.05 0 0 -2244.47 -187.05 0 0 -2057.42 -187.05 0 0 -1309.29 -187.05 0 0 -1870.37 -186.98 0 0 -2244.47 -187.05 0 0 -1870.44 -187.05 0 0 -1683.32 -187.05 0 0 -2057.42 -187.05 0 0 -1870.44 -187.05 0 0 -1309.22 -186.98 0 0 -374.1 -187.05 0 0 -187.05 -561.15 0 0 187.05z"
         class="fil1" /><polygon
         id="polygon11"
         points="65557.29,58262.79 64996.13,58262.79 64996.13,58449.84 63312.81,58449.84 63312.81,58636.89 62564.61,58636.89 62564.61,58823.94 56579.4,58823.94 56579.4,59010.99 56018.25,59010.99 56018.25,59198.05 49284.84,59198.05 49284.84,59385.03 44608.91,59385.03 44608.91,59198.05 39558.82,59198.05 39558.82,59385.03 38062.55,59385.03 38062.55,59572.08 33760.66,59572.08 33760.66,59759.13 30393.95,59759.13 30393.95,59572.08 29645.75,59572.08 29645.75,59759.13 26840.2,59759.13 26840.2,59572.08 24221.62,59572.08 24221.62,59385.03 22912.34,59385.03 22912.34,59198.05 21790.1,59198.05 21790.1,59010.99 20667.87,59010.99 20667.87,58823.94 17862.31,58823.94 17862.31,59010.99 17488.21,59010.99 17488.21,58823.94 13747.47,58823.94 13747.47,58636.89 10567.82,58636.89 10567.82,58449.84 8510.33,58449.84 8510.33,58262.79 7388.09,58262.79 7388.09,58449.84 6827.01,58449.84 6827.01,58636.89 6452.91,58636.89 6452.91,58823.94 6265.86,58823.94 6265.86,59010.99 6078.88,59010.99 6078.88,59198.05 5704.77,59198.05 5704.77,59385.03 5517.72,59385.03 5517.72,60133.23 5330.67,60133.23 5330.67,60507.26 5143.69,60507.26 5143.69,60694.31 4956.64,60694.31 4956.64,61068.41 4395.49,61068.41 4395.49,61255.47 4208.44,61255.47 4208.44,61442.52 4021.46,61442.52 4021.46,61816.55 3834.4,61816.55 3834.4,62377.7 3647.35,62377.7 3647.35,64061.02 3834.4,64061.02 3834.4,64248.07 4021.46,64248.07 4021.46,64435.12 4395.49,64435.12 4395.49,64622.17 5330.67,64622.17 5330.67,64435.12 6265.86,64435.12 6265.86,64622.17 7762.19,64622.17 7762.19,64809.22 8697.38,64809.22 8697.38,64622.17 9258.53,64622.17 9258.53,64809.22 9632.56,64809.22 9632.56,64996.2 10006.66,64996.2 10006.66,65183.25 10567.82,65183.25 10567.82,65370.31 14495.61,65370.31 14495.61,65183.25 16178.92,65183.25 16178.92,65370.31 16740.08,65370.31 16740.08,65183.25 23660.54,65183.25 23660.54,64996.2 24782.78,64996.2 24782.78,65183.25 27588.33,65183.25 27588.33,65370.31 29645.75,65370.31 29645.75,65183.25 30206.9,65183.25 30206.9,64996.2 32077.27,64996.2 32077.27,64809.22 34882.9,64809.22 34882.9,64996.2 35631.03,64996.2 35631.03,65183.25 37501.4,65183.25 37501.4,64996.2 38062.55,64996.2 38062.55,64809.22 41616.24,64809.22 41616.24,64996.2 44608.91,64996.2 44608.91,65183.25 47788.57,65183.25 47788.57,64996.2 49471.89,64996.2 49471.89,64809.22 51342.33,64809.22 51342.33,64622.17 53960.83,64622.17 53960.83,64809.22 56579.4,64809.22 56579.4,64622.17 57514.59,64622.17 57514.59,64435.12 58075.67,64435.12 58075.67,64248.07 60320.14,64248.07 60320.14,64061.02 61068.34,64061.02 61068.34,63873.97 63499.87,63873.97 63499.87,64061.02 64248,64061.02 64248,64248.07 66305.42,64248.07 66305.42,64435.12 69298.02,64435.12 69298.02,64622.17 70046.23,64622.17 70046.23,64809.22 70794.36,64809.22 70794.36,64996.2 73412.93,64996.2 73412.93,65183.25 74348.12,65183.25 74348.12,65370.31 75096.25,65370.31 75096.25,65557.36 75470.35,65557.36 75470.35,65744.41 75844.39,65744.41 75844.39,65931.46 76031.44,65931.46 76031.44,66118.44 76218.49,66118.44 76218.49,66305.49 76966.62,66305.49 76966.62,66118.44 77340.72,66118.44 77340.72,65931.46 77527.77,65931.46 77527.77,65744.41 77714.83,65744.41 77714.83,65557.36 77901.88,65557.36 77901.88,65370.31 78088.86,65370.31 78088.86,64996.2 78275.91,64996.2 78275.91,64809.22 78462.96,64809.22 78462.96,64435.12 78650.01,64435.12 78650.01,64061.02 78837.06,64061.02 78837.06,63873.97 79024.04,63873.97 79024.04,63499.94 79211.09,63499.94 79211.09,63125.83 79398.14,63125.83 79398.14,62751.73 79585.19,62751.73 79585.19,62190.65 79772.24,62190.65 79772.24,61816.55 79959.3,61816.55 79959.3,61442.52 80146.28,61442.52 80146.28,60881.36 80333.33,60881.36 80333.33,59946.18 80146.28,59946.18 80146.28,59572.08 79959.3,59572.08 79959.3,59385.03 79772.24,59385.03 79772.24,59198.05 79024.04,59198.05 79024.04,59010.99 76031.44,59010.99 76031.44,58823.94 73599.91,58823.94 73599.91,58636.89 71168.46,58636.89 71168.46,58449.84 70794.36,58449.84 70794.36,58262.79 70420.26,58262.79 70420.26,58075.81 65557.29,58075.81 "
         class="fil1" /><polygon
         id="polygon13"
         points="12438.19,30581.01 10567.82,30581.01 10567.82,30768.06 9819.61,30768.06 9819.61,30955.11 9445.58,30955.11 9445.58,31142.16 7201.11,31142.16 7201.11,30955.11 5517.72,30955.11 5517.72,31142.16 5143.69,31142.16 5143.69,31329.21 4956.64,31329.21 4956.64,31703.24 4769.59,31703.24 4769.59,32077.34 4582.54,32077.34 4582.54,32638.5 4395.49,32638.5 4395.49,33760.66 4208.44,33760.66 4208.44,35257 4021.46,35257 4021.46,36192.18 4208.44,36192.18 4208.44,36379.23 4395.49,36379.23 4395.49,36566.28 4956.64,36566.28 4956.64,36753.34 10380.77,36753.34 10380.77,36566.28 10754.8,36566.28 10754.8,36379.23 12251.14,36379.23 12251.14,36566.28 13747.47,36566.28 13747.47,36379.23 16740.08,36379.23 16740.08,36566.28 18423.4,36566.28 18423.4,36379.23 21229.02,36379.23 21229.02,36566.28 21977.15,36566.28 21977.15,36753.34 23099.39,36753.34 23099.39,36940.39 24221.62,36940.39 24221.62,37127.37 25343.86,37127.37 25343.86,36940.39 26092.06,36940.39 26092.06,36753.34 26840.2,36753.34 26840.2,36566.28 31516.19,36566.28 31516.19,36753.34 32264.32,36753.34 32264.32,36940.39 33947.64,36940.39 33947.64,36753.34 35631.03,36753.34 35631.03,36940.39 37688.45,36940.39 37688.45,37127.37 41616.24,37127.37 41616.24,36940.39 43299.63,36940.39 43299.63,36753.34 44421.86,36753.34 44421.86,36566.28 45170,36566.28 45170,36753.34 45918.2,36753.34 45918.2,36566.28 48536.7,36566.28 48536.7,36379.23 56392.35,36379.23 56392.35,36566.28 57514.59,36566.28 57514.59,36753.34 62003.53,36753.34 62003.53,36940.39 63873.9,36940.39 63873.9,37127.37 64435.05,37127.37 64435.05,37314.42 65183.18,37314.42 65183.18,37501.47 66118.37,37501.47 66118.37,37688.52 67427.65,37688.52 67427.65,37501.47 70046.23,37501.47 70046.23,37688.52 70794.36,37688.52 70794.36,37875.57 71729.55,37875.57 71729.55,38062.62 73225.88,38062.62 73225.88,38249.6 74535.17,38249.6 74535.17,38062.62 76405.54,38062.62 76405.54,38249.6 76779.64,38249.6 76779.64,38436.65 76966.62,38436.65 76966.62,38623.7 78462.96,38623.7 78462.96,38436.65 78650.01,38436.65 78650.01,38249.6 78837.06,38249.6 78837.06,37501.47 79024.04,37501.47 79024.04,35818.15 79211.09,35818.15 79211.09,35069.95 79398.14,35069.95 79398.14,34695.92 79585.19,34695.92 79585.19,34321.81 79772.24,34321.81 79772.24,33947.71 79959.3,33947.71 79959.3,32638.5 79585.19,32638.5 79585.19,32451.44 79211.09,32451.44 79211.09,32264.39 78462.96,32264.39 78462.96,32077.34 77901.88,32077.34 77901.88,32264.39 77527.77,32264.39 77527.77,32451.44 75844.39,32451.44 75844.39,32264.39 73038.83,32264.39 73038.83,32077.34 72477.68,32077.34 72477.68,31890.29 72103.65,31890.29 72103.65,31703.24 65557.29,31703.24 65557.29,31516.26 64060.95,31516.26 64060.95,31329.21 63312.81,31329.21 63312.81,31142.16 62190.58,31142.16 62190.58,30955.11 61442.38,30955.11 61442.38,31142.16 60881.29,31142.16 60881.29,30955.11 55831.27,30955.11 55831.27,31142.16 55457.17,31142.16 55457.17,31329.21 54521.98,31329.21 54521.98,31142.16 53773.78,31142.16 53773.78,31329.21 51155.28,31329.21 51155.28,31516.26 49284.84,31516.26 49284.84,31703.24 47788.57,31703.24 47788.57,31890.29 45170,31890.29 45170,32077.34 41803.29,32077.34 41803.29,31890.29 38623.63,31890.29 38623.63,31703.24 38249.53,31703.24 38249.53,31516.26 36566.21,31516.26 36566.21,31703.24 36005.13,31703.24 36005.13,31516.26 34882.9,31516.26 34882.9,31703.24 33947.64,31703.24 33947.64,31516.26 27588.33,31516.26 27588.33,31329.21 24221.62,31329.21 24221.62,31142.16 23286.44,31142.16 23286.44,30955.11 19171.6,30955.11 19171.6,30768.06 17114.18,30768.06 17114.18,30581.01 15804.89,30581.01 15804.89,30394.02 12438.19,30394.02 "
         class="fil1" /><polygon
         id="polygon15"
         points="48349.65,44047.83 47788.57,44047.83 47788.57,44234.88 47601.52,44234.88 47601.52,44421.93 46105.18,44421.93 46105.18,44608.98 45544.1,44608.98 45544.1,44796.04 44047.76,44796.04 44047.76,44983.02 41990.34,44983.02 41990.34,45170.07 41616.24,45170.07 41616.24,44983.02 37314.35,44983.02 37314.35,44796.04 36566.21,44796.04 36566.21,44608.98 35069.88,44608.98 35069.88,44796.04 33760.66,44796.04 33760.66,44608.98 31329.14,44608.98 31329.14,44421.93 29084.67,44421.93 29084.67,44234.88 24595.73,44234.88 24595.73,44421.93 21977.15,44421.93 21977.15,44608.98 19358.65,44608.98 19358.65,44796.04 17862.31,44796.04 17862.31,44608.98 16553.03,44608.98 16553.03,44421.93 14869.71,44421.93 14869.71,44608.98 14121.5,44608.98 14121.5,44421.93 12251.14,44421.93 12251.14,44608.98 11315.95,44608.98 11315.95,44796.04 10006.66,44796.04 10006.66,44983.02 9071.48,44983.02 9071.48,44796.04 5891.82,44796.04 5891.82,44983.02 5517.72,44983.02 5517.72,45170.07 5143.69,45170.07 5143.69,45357.12 4956.64,45357.12 4956.64,45544.17 4769.59,45544.17 4769.59,45731.22 4582.54,45731.22 4582.54,48162.74 4769.59,48162.74 4769.59,48536.77 4956.64,48536.77 4956.64,48723.82 5143.69,48723.82 5143.69,48910.88 5330.67,48910.88 5330.67,49097.93 5517.72,49097.93 5517.72,49284.98 5704.77,49284.98 5704.77,49471.96 5891.82,49471.96 5891.82,49659.01 6265.86,49659.01 6265.86,49846.06 6452.91,49846.06 6452.91,50033.11 6639.96,50033.11 6639.96,50220.16 7014.06,50220.16 7014.06,50407.21 7388.09,50407.21 7388.09,50594.19 7762.19,50594.19 7762.19,50781.24 9819.61,50781.24 9819.61,50968.3 10380.77,50968.3 10380.77,50781.24 10754.8,50781.24 10754.8,50594.19 11503,50594.19 11503,50407.21 13373.37,50407.21 13373.37,50594.19 13747.47,50594.19 13747.47,50407.21 14495.61,50407.21 14495.61,50594.19 15243.74,50594.19 15243.74,50781.24 16365.98,50781.24 16365.98,50594.19 16740.08,50594.19 16740.08,50407.21 19732.68,50407.21 19732.68,50220.16 21977.15,50220.16 21977.15,50033.11 30019.85,50033.11 30019.85,50220.16 32825.41,50220.16 32825.41,50407.21 34134.69,50407.21 34134.69,50594.19 36379.16,50594.19 36379.16,50407.21 38810.69,50407.21 38810.69,50220.16 40119.97,50220.16 40119.97,50033.11 41055.16,50033.11 41055.16,49846.06 44982.94,49846.06 44982.94,49659.01 46292.23,49659.01 46292.23,49471.96 47040.44,49471.96 47040.44,49284.98 49845.99,49284.98 49845.99,49471.96 50594.12,49471.96 50594.12,49659.01 51155.28,49659.01 51155.28,49846.06 53399.75,49846.06 53399.75,50033.11 53773.78,50033.11 53773.78,50220.16 57140.48,50220.16 57140.48,50033.11 61068.34,50033.11 61068.34,50220.16 63312.81,50220.16 63312.81,50033.11 65370.23,50033.11 65370.23,50220.16 65931.32,50220.16 65931.32,50407.21 67801.76,50407.21 67801.76,50594.19 71355.44,50594.19 71355.44,50407.21 73038.83,50407.21 73038.83,50594.19 73599.91,50594.19 73599.91,50781.24 73974.02,50781.24 73974.02,50968.3 74348.12,50968.3 74348.12,51155.35 75283.3,51155.35 75283.3,50968.3 75657.41,50968.3 75657.41,50781.24 75844.39,50781.24 75844.39,50594.19 76031.44,50594.19 76031.44,50407.21 76218.49,50407.21 76218.49,50033.11 76405.54,50033.11 76405.54,49846.06 76592.59,49846.06 76592.59,49471.96 76779.64,49471.96 76779.64,49097.93 76966.62,49097.93 76966.62,48910.88 77153.67,48910.88 77153.67,48723.82 77340.72,48723.82 77340.72,48349.72 77527.77,48349.72 77527.77,48162.74 77714.83,48162.74 77714.83,47975.69 78088.86,47975.69 78088.86,45918.27 77901.88,45918.27 77901.88,45731.22 77714.83,45731.22 77714.83,45544.17 77340.72,45544.17 77340.72,45357.12 76031.44,45357.12 76031.44,45544.17 75470.35,45544.17 75470.35,45731.22 74535.17,45731.22 74535.17,45918.27 70981.41,45918.27 70981.41,45731.22 69859.18,45731.22 69859.18,45544.17 68923.99,45544.17 68923.99,45357.12 68175.79,45357.12 68175.79,45170.07 67614.71,45170.07 67614.71,44983.02 67053.55,44983.02 67053.55,44796.04 66679.52,44796.04 66679.52,44608.98 66305.42,44608.98 66305.42,44421.93 65931.32,44421.93 65931.32,44234.88 65557.29,44234.88 65557.29,44047.83 63125.76,44047.83 63125.76,44234.88 61629.43,44234.88 61629.43,44421.93 58449.77,44421.93 58449.77,44234.88 56953.5,44234.88 56953.5,44047.83 55270.12,44047.83 55270.12,43860.78 48349.65,43860.78 "
         class="fil1" /><polygon
         id="polygon17"
         points="7014.06,17301.23 6265.86,17301.23 6265.86,17488.28 5891.82,17488.28 5891.82,17675.33 5517.72,17675.33 5517.72,17862.38 5143.69,17862.38 5143.69,18984.62 4956.64,18984.62 4956.64,19545.7 4769.59,19545.7 4769.59,19732.75 4395.49,19732.75 4395.49,19919.8 4208.44,19919.8 4208.44,20106.85 3834.4,20106.85 3834.4,20293.91 3647.35,20293.91 3647.35,20667.94 3460.3,20667.94 3460.3,20293.91 3273.25,20293.91 3273.25,20480.89 3086.2,20480.89 3086.2,21042.04 3273.25,21042.04 3273.25,22164.27 3460.3,22164.27 3460.3,22538.38 3647.35,22538.38 3647.35,22725.36 3834.4,22725.36 3834.4,22912.41 4021.46,22912.41 4021.46,23099.46 4208.44,23099.46 4208.44,23286.51 4582.54,23286.51 4582.54,23473.56 5143.69,23473.56 5143.69,23660.61 7575.14,23660.61 7575.14,23847.59 11690.05,23847.59 11690.05,23660.61 12064.08,23660.61 12064.08,23473.56 15243.74,23473.56 15243.74,23286.51 16365.98,23286.51 16365.98,23099.46 18049.36,23099.46 18049.36,22912.41 20480.89,22912.41 20480.89,23099.46 20854.92,23099.46 20854.92,23286.51 21229.02,23286.51 21229.02,23473.56 21790.1,23473.56 21790.1,23660.61 22538.31,23660.61 22538.31,23847.59 23660.54,23847.59 23660.54,24034.64 24782.78,24034.64 24782.78,23847.59 24969.83,23847.59 24969.83,23660.61 25343.86,23660.61 25343.86,23473.56 25530.91,23473.56 25530.91,23286.51 25717.96,23286.51 25717.96,23099.46 26092.06,23099.46 26092.06,22912.41 26279.04,22912.41 26279.04,22725.36 26466.09,22725.36 26466.09,22538.38 27214.23,22538.38 27214.23,22725.36 30955.04,22725.36 30955.04,22912.41 31703.17,22912.41 31703.17,22725.36 41055.16,22725.36 41055.16,22912.41 41990.34,22912.41 41990.34,23099.46 42738.47,23099.46 42738.47,23286.51 43486.68,23286.51 43486.68,23473.56 44047.76,23473.56 44047.76,23660.61 44982.94,23660.61 44982.94,23473.56 45170,23473.56 45170,23099.46 45357.05,23099.46 45357.05,22912.41 45544.1,22912.41 45544.1,22725.36 46479.28,22725.36 46479.28,22912.41 47227.42,22912.41 47227.42,23099.46 47788.57,23099.46 47788.57,23286.51 48349.65,23286.51 48349.65,23473.56 48723.75,23473.56 48723.75,23660.61 50220.09,23660.61 50220.09,23473.56 54147.88,23473.56 54147.88,23286.51 55457.17,23286.51 55457.17,23099.46 67427.65,23099.46 67427.65,23286.51 68362.84,23286.51 68362.84,23473.56 71916.6,23473.56 71916.6,23660.61 72664.73,23660.61 72664.73,23847.59 73038.83,23847.59 73038.83,24034.64 73412.93,24034.64 73412.93,24221.69 73974.02,24221.69 73974.02,24408.75 74348.12,24408.75 74348.12,24595.8 74909.2,24595.8 74909.2,24782.85 76592.59,24782.85 76592.59,24595.8 77153.67,24595.8 77153.67,24408.75 77527.77,24408.75 77527.77,24221.69 77714.83,24221.69 77714.83,24034.64 77901.88,24034.64 77901.88,23847.59 78088.86,23847.59 78088.86,23660.61 78275.91,23660.61 78275.91,23473.56 78462.96,23473.56 78462.96,23286.51 78837.06,23286.51 78837.06,22912.41 78650.01,22912.41 78650.01,22725.36 78837.06,22725.36 78837.06,22351.33 79024.04,22351.33 79024.04,21977.22 79211.09,21977.22 79211.09,20854.99 79024.04,20854.99 79024.04,20480.89 78837.06,20480.89 78837.06,20293.91 78650.01,20293.91 78650.01,20106.85 78462.96,20106.85 78462.96,19919.8 77901.88,19919.8 77901.88,19732.75 77340.72,19732.75 77340.72,19545.7 76031.44,19545.7 76031.44,19358.65 75283.3,19358.65 75283.3,19171.67 73974.02,19171.67 73974.02,18984.62 72290.7,18984.62 72290.7,18797.57 72103.65,18797.57 72103.65,18610.52 70794.36,18610.52 70794.36,18423.47 70420.26,18423.47 70420.26,18236.41 69672.13,18236.41 69672.13,18049.43 68362.84,18049.43 68362.84,17862.38 67240.6,17862.38 67240.6,17675.33 65744.34,17675.33 65744.34,17862.38 64435.05,17862.38 64435.05,18049.43 62751.66,18049.43 62751.66,18236.41 60881.29,18236.41 60881.29,18423.47 60133.16,18423.47 60133.16,18610.52 58262.72,18610.52 58262.72,18797.57 57140.48,18797.57 57140.48,18610.52 53960.83,18610.52 53960.83,18423.47 53025.64,18423.47 53025.64,18610.52 51342.33,18610.52 51342.33,18423.47 50781.17,18423.47 50781.17,18236.41 50033.04,18236.41 50033.04,18049.43 49284.84,18049.43 49284.84,17862.38 48536.7,17862.38 48536.7,17675.33 47601.52,17675.33 47601.52,17488.28 44608.91,17488.28 44608.91,17301.23 43673.73,17301.23 43673.73,17488.28 40119.97,17488.28 40119.97,17675.33 36379.16,17675.33 36379.16,17862.38 33573.61,17862.38 33573.61,17675.33 32077.27,17675.33 32077.27,17488.28 30767.99,17488.28 30767.99,17301.23 28710.57,17301.23 28710.57,17488.28 27588.33,17488.28 27588.33,17675.33 24221.62,17675.33 24221.62,17488.28 21416.07,17488.28 21416.07,17301.23 20854.92,17301.23 20854.92,17488.28 19545.63,17488.28 19545.63,17301.23 8136.3,17301.23 8136.3,17114.18 7014.06,17114.18 "
         class="fil1" /><polygon
         id="polygon19"
         points="79398.14,7201.11 79398.14,7014.13 79772.24,7014.13 79772.24,6827.08 79585.19,6827.08 79585.19,6265.93 79772.24,6265.93 79772.24,4956.64 79585.19,4956.64 79585.19,4582.61 79398.14,4582.61 79398.14,4208.51 79211.09,4208.51 79211.09,4021.46 79024.04,4021.46 79024.04,3834.4 78837.06,3834.4 78837.06,3647.42 76218.49,3647.42 76218.49,3834.4 75844.39,3834.4 75844.39,4021.46 75096.25,4021.46 75096.25,3834.4 72664.73,3834.4 72664.73,3647.42 69672.13,3647.42 69672.13,3460.37 66679.52,3460.37 66679.52,3647.42 65931.32,3647.42 65931.32,3834.4 63873.9,3834.4 63873.9,4021.46 63686.85,4021.46 63686.85,4208.51 60694.24,4208.51 60694.24,4395.56 59572.01,4395.56 59572.01,4208.51 56392.35,4208.51 56392.35,4395.56 50968.22,4395.56 50968.22,4208.51 50220.09,4208.51 50220.09,4021.46 49284.84,4021.46 49284.84,3834.4 48536.7,3834.4 48536.7,3647.42 41803.29,3647.42 41803.29,3460.37 38249.53,3460.37 38249.53,3647.42 37875.5,3647.42 37875.5,3834.4 36379.16,3834.4 36379.16,3647.42 34134.69,3647.42 34134.69,3834.4 30019.85,3834.4 30019.85,4021.46 29271.72,4021.46 29271.72,3834.4 27214.23,3834.4 27214.23,3647.42 26840.2,3647.42 26840.2,3460.37 24595.73,3460.37 24595.73,3273.32 15617.84,3273.32 15617.84,3460.37 15056.76,3460.37 15056.76,3273.32 11315.95,3273.32 11315.95,3086.27 10941.85,3086.27 10941.85,2899.22 8510.33,2899.22 8510.33,2712.17 7575.14,2712.17 7575.14,2899.22 6827.01,2899.22 6827.01,3086.27 6452.91,3086.27 6452.91,3273.32 6265.86,3273.32 6265.86,3460.37 6078.88,3460.37 6078.88,3647.42 5891.82,3647.42 5891.82,3834.4 5704.77,3834.4 5704.77,4395.56 5891.82,4395.56 5891.82,4582.61 5704.77,4582.61 5704.77,4956.64 5517.72,4956.64 5517.72,5143.69 5330.67,5143.69 5330.67,5330.74 5143.69,5330.74 5143.69,5517.79 4956.64,5517.79 4956.64,5704.84 4395.49,5704.84 4395.49,6452.98 4208.44,6452.98 4208.44,6827.08 4395.49,6827.08 4395.49,6640.03 4582.54,6640.03 4582.54,7201.11 4021.46,7201.11 4021.46,9071.55 4208.44,9071.55 4208.44,9445.58 4395.49,9445.58 4395.49,9819.68 4769.59,9819.68 4769.59,10006.74 5517.72,10006.74 5517.72,9632.63 5330.67,9632.63 5330.67,9258.6 5704.77,9258.6 5704.77,9071.55 6265.86,9071.55 6265.86,9258.6 7014.06,9258.6 7014.06,9445.58 7762.19,9445.58 7762.19,9258.6 8697.38,9258.6 8697.38,9445.58 11128.9,9445.58 11128.9,9632.63 12625.24,9632.63 12625.24,9445.58 20293.83,9445.58 20293.83,9258.6 21041.97,9258.6 21041.97,9445.58 22538.31,9445.58 22538.31,9258.6 22912.34,9258.6 22912.34,9071.55 25717.96,9071.55 25717.96,9258.6 26840.2,9258.6 26840.2,9445.58 28149.48,9445.58 28149.48,9632.63 29832.8,9632.63 29832.8,9445.58 30580.93,9445.58 30580.93,9258.6 31329.14,9258.6 31329.14,9071.55 32077.27,9071.55 32077.27,8884.5 32825.41,8884.5 32825.41,8697.45 34134.69,8697.45 34134.69,8510.4 36566.21,8510.4 36566.21,8323.35 38062.55,8323.35 38062.55,8510.4 38997.74,8510.4 38997.74,8323.35 40307.02,8323.35 40307.02,8510.4 41055.16,8510.4 41055.16,8697.45 42177.39,8697.45 42177.39,8884.5 42925.52,8884.5 42925.52,9071.55 44047.76,9071.55 44047.76,9258.6 45357.05,9258.6 45357.05,9445.58 46666.33,9445.58 46666.33,9258.6 47040.44,9258.6 47040.44,9071.55 47414.47,9071.55 47414.47,8884.5 47788.57,8884.5 47788.57,8697.45 49097.86,8697.45 49097.86,8510.4 49845.99,8510.4 49845.99,8697.45 50781.17,8697.45 50781.17,8884.5 51529.31,8884.5 51529.31,9071.55 52277.51,9071.55 52277.51,9258.6 53025.64,9258.6 53025.64,9445.58 53586.8,9445.58 53586.8,9632.63 54896.01,9632.63 54896.01,9445.58 55083.06,9445.58 55083.06,9258.6 55457.17,9258.6 55457.17,9071.55 55644.22,9071.55 55644.22,8884.5 55831.27,8884.5 55831.27,8697.45 56205.3,8697.45 56205.3,8510.4 56766.45,8510.4 56766.45,8323.35 59384.96,8323.35 59384.96,8510.4 60320.14,8510.4 60320.14,8697.45 61068.34,8697.45 61068.34,8510.4 61442.38,8510.4 61442.38,8697.45 61816.48,8697.45 61816.48,8884.5 62377.63,8884.5 62377.63,9071.55 62938.71,9071.55 62938.71,8884.5 63312.81,8884.5 63312.81,8697.45 63686.85,8697.45 63686.85,8510.4 66492.47,8510.4 66492.47,8323.35 73225.88,8323.35 73225.88,8510.4 73974.02,8510.4 73974.02,8697.45 74722.15,8697.45 74722.15,8884.5 76031.44,8884.5 76031.44,8697.45 77714.83,8697.45 77714.83,8510.4 78088.86,8510.4 78088.86,8323.35 78462.96,8323.35 78462.96,8136.37 78650.01,8136.37 78650.01,7949.32 78837.06,7949.32 78837.06,7762.26 79024.04,7762.26 79024.04,7575.21 79211.09,7575.21 79211.09,7201.11 "
         class="fil1" /><polygon
         id="polygon21"
         points="5517.72,73225.95 5704.77,73225.95 5704.77,73600.06 5891.82,73600.06 5891.82,73787.04 6078.88,73787.04 6078.88,74161.14 6265.86,74161.14 6265.86,74535.24 6452.91,74535.24 6452.91,74722.29 6639.96,74722.29 6639.96,75096.32 6827.01,75096.32 6827.01,75657.48 7014.06,75657.48 7014.06,76966.76 7201.11,76966.76 7201.11,108576.34 7014.06,108576.34 7014.06,110820.81 6827.01,110820.81 6827.01,111568.94 6639.96,111568.94 6639.96,111943.04 6452.91,111943.04 6452.91,112691.18 10941.85,112691.18 10941.85,112317.14 10754.8,112317.14 10754.8,111943.04 10567.82,111943.04 10567.82,111568.94 10380.77,111568.94 10380.77,110633.76 10193.72,110633.76 10193.72,93426.19 13560.42,93426.19 13560.42,93239.14 18236.41,93239.14 18236.41,93426.19 18984.55,93426.19 18984.55,93613.24 19171.6,93613.24 19171.6,93800.22 19358.65,93800.22 19358.65,93987.27 19545.63,93987.27 19545.63,94174.33 19732.68,94174.33 19732.68,94548.43 19919.73,94548.43 19919.73,94735.48 20106.78,94735.48 20106.78,94922.46 20293.83,94922.46 20293.83,95296.56 20480.89,95296.56 20480.89,95483.61 20667.87,95483.61 20667.87,95670.66 20854.92,95670.66 20854.92,95857.71 21041.97,95857.71 21041.97,96044.69 21229.02,96044.69 21229.02,88563.15 20854.92,88563.15 20854.92,88750.2 20667.87,88750.2 20667.87,88937.25 20480.89,88937.25 20480.89,89124.3 20293.83,89124.3 20293.83,89498.33 20106.78,89498.33 20106.78,89685.38 19919.73,89685.38 19919.73,89872.44 19732.68,89872.44 19732.68,90059.49 19545.63,90059.49 19545.63,90246.54 19358.65,90246.54 19358.65,90433.52 19171.6,90433.52 19171.6,90620.57 18797.5,90620.57 18797.5,90807.62 10006.66,90807.62 10006.66,76966.76 19732.68,76966.76 19732.68,77340.79 19919.73,77340.79 19919.73,77527.84 20106.78,77527.84 20106.78,77714.9 20293.83,77714.9 20293.83,77901.95 20480.89,77901.95 20480.89,78089 20667.87,78089 20667.87,78275.98 20854.92,78275.98 20854.92,78650.08 21041.97,78650.08 21041.97,78837.13 21229.02,78837.13 21229.02,79024.18 21416.07,79024.18 21416.07,79211.23 21603.12,79211.23 21603.12,79398.21 21790.1,79398.21 21790.1,79772.32 22351.25,79772.32 22351.25,79585.26 22538.31,79585.26 22538.31,79398.21 22725.36,79398.21 22725.36,79211.23 22912.34,79211.23 22912.34,78089 22725.36,78089 22725.36,76779.71 22538.31,76779.71 22538.31,76031.51 22351.25,76031.51 22351.25,75283.37 22164.2,75283.37 22164.2,74161.14 21977.15,74161.14 21977.15,73038.9 21790.1,73038.9 21790.1,72851.85 5517.72,72851.85 "
         class="fil1" /><polygon
         id="polygon23"
         points="72290.7,128589.52 72103.65,128589.52 72103.65,130459.89 71916.6,130459.89 71916.6,131956.23 71729.55,131956.23 71729.55,132704.36 71542.49,132704.36 71542.49,134574.8 71355.44,134574.8 71355.44,135884.09 72290.7,135884.09 72290.7,133452.57 72477.68,133452.57 72477.68,131395.15 72664.73,131395.15 72664.73,130085.86 72851.78,130085.86 72851.78,130459.89 73038.83,130459.89 73038.83,130833.99 73225.88,130833.99 73225.88,131208.1 73412.93,131208.1 73412.93,131582.13 73599.91,131582.13 73599.91,131956.23 73786.97,131956.23 73786.97,132330.33 73974.02,132330.33 73974.02,132704.36 74161.07,132704.36 74161.07,132891.41 74348.12,132891.41 74348.12,133265.52 74535.17,133265.52 74535.17,133639.62 74722.15,133639.62 74722.15,134013.65 74909.2,134013.65 74909.2,134387.75 75096.25,134387.75 75096.25,134761.85 75283.3,134761.85 75283.3,135135.89 75470.35,135135.89 75470.35,135509.99 75657.41,135509.99 75657.41,135697.04 75844.39,135697.04 75844.39,135509.99 76031.44,135509.99 76031.44,135322.94 76218.49,135322.94 76218.49,134948.83 76405.54,134948.83 76405.54,134574.8 76592.59,134574.8 76592.59,134200.7 76779.64,134200.7 76779.64,133826.6 76966.62,133826.6 76966.62,133452.57 77153.67,133452.57 77153.67,133078.47 77340.72,133078.47 77340.72,132704.36 77527.77,132704.36 77527.77,132330.33 77714.83,132330.33 77714.83,131956.23 77901.88,131956.23 77901.88,131582.13 78088.86,131582.13 78088.86,131208.1 78275.91,131208.1 78275.91,130833.99 78462.96,130833.99 78462.96,130459.89 78650.01,130459.89 78650.01,130085.86 78837.06,130085.86 78837.06,129898.81 79024.04,129898.81 79024.04,132143.28 79211.09,132143.28 79211.09,134761.85 79398.14,134761.85 79398.14,135884.09 80707.43,135884.09 80707.43,134387.75 80520.38,134387.75 80520.38,133452.57 80333.33,133452.57 80333.33,131395.15 80146.28,131395.15 80146.28,129524.71 79959.3,129524.71 79959.3,128589.52 79772.24,128589.52 79772.24,127654.34 79398.14,127654.34 79398.14,127841.39 79211.09,127841.39 79211.09,128215.42 79024.04,128215.42 79024.04,128402.47 78837.06,128402.47 78837.06,128776.57 78650.01,128776.57 78650.01,129150.68 78462.96,129150.68 78462.96,129524.71 78275.91,129524.71 78275.91,129898.81 78088.86,129898.81 78088.86,130272.91 77901.88,130272.91 77901.88,130646.94 77714.83,130646.94 77714.83,130833.99 77527.77,130833.99 77527.77,131208.1 77340.72,131208.1 77340.72,131582.13 77153.67,131582.13 77153.67,131956.23 76966.62,131956.23 76966.62,132330.33 76779.64,132330.33 76779.64,132704.36 76592.59,132704.36 76592.59,133078.47 76405.54,133078.47 76405.54,133265.52 76218.49,133265.52 76218.49,133639.62 75844.39,133639.62 75844.39,133265.52 75657.41,133265.52 75657.41,132891.41 75470.35,132891.41 75470.35,132517.38 75283.3,132517.38 75283.3,132143.28 75096.25,132143.28 75096.25,131956.23 74909.2,131956.23 74909.2,131582.13 74722.15,131582.13 74722.15,131208.1 74535.17,131208.1 74535.17,130833.99 74348.12,130833.99 74348.12,130459.89 74161.07,130459.89 74161.07,130085.86 73974.02,130085.86 73974.02,129711.76 73786.97,129711.76 73786.97,129337.66 73599.91,129337.66 73599.91,128963.63 73412.93,128963.63 73412.93,128589.52 73225.88,128589.52 73225.88,128215.42 73038.83,128215.42 73038.83,128028.44 72851.78,128028.44 72851.78,127654.34 72290.7,127654.34 "
         class="fil1" /><polygon
         id="polygon25"
         points="35631.03,135884.09 35631.03,127841.39 35069.88,127841.39 35069.88,133826.6 34695.85,133826.6 34695.85,133452.57 34508.79,133452.57 34508.79,133265.52 34321.74,133265.52 34321.74,133078.47 34134.69,133078.47 34134.69,132891.41 33947.64,132891.41 33947.64,132704.36 33760.66,132704.36 33760.66,132517.38 33573.61,132517.38 33573.61,132330.33 33386.56,132330.33 33386.56,132143.28 33199.51,132143.28 33199.51,131769.18 33012.46,131769.18 33012.46,131582.13 32825.41,131582.13 32825.41,131395.15 32638.43,131395.15 32638.43,131208.1 32451.37,131208.1 32451.37,131021.05 32264.32,131021.05 32264.32,130833.99 32077.27,130833.99 32077.27,130646.94 31890.22,130646.94 31890.22,130459.89 31703.17,130459.89 31703.17,130272.91 31516.19,130272.91 31516.19,130085.86 31329.14,130085.86 31329.14,129711.76 31142.09,129711.76 31142.09,129524.71 30955.04,129524.71 30955.04,129337.66 30767.99,129337.66 30767.99,129150.68 30580.93,129150.68 30580.93,128963.63 30393.95,128963.63 30393.95,128776.57 30206.9,128776.57 30206.9,128589.52 30019.85,128589.52 30019.85,128402.47 29832.8,128402.47 29832.8,128215.42 29645.75,128215.42 29645.75,128028.44 29458.7,128028.44 29458.7,127654.34 28710.57,127654.34 28710.57,135884.09 29458.7,135884.09 29458.7,129524.71 29645.75,129524.71 29645.75,129711.76 29832.8,129711.76 29832.8,130085.86 30019.85,130085.86 30019.85,130272.91 30206.9,130272.91 30206.9,130459.89 30393.95,130459.89 30393.95,130646.94 30580.93,130646.94 30580.93,130833.99 30767.99,130833.99 30767.99,131021.05 30955.04,131021.05 30955.04,131208.1 31142.09,131208.1 31142.09,131395.15 31329.14,131395.15 31329.14,131769.18 31516.19,131769.18 31516.19,131956.23 31703.17,131956.23 31703.17,132143.28 31890.22,132143.28 31890.22,132330.33 32077.27,132330.33 32077.27,132517.38 32264.32,132517.38 32264.32,132704.36 32451.37,132704.36 32451.37,132891.41 32638.43,132891.41 32638.43,133078.47 32825.41,133078.47 32825.41,133265.52 33012.46,133265.52 33012.46,133639.62 33199.51,133639.62 33199.51,133826.6 33386.56,133826.6 33386.56,134013.65 33573.61,134013.65 33573.61,134200.7 33760.66,134200.7 33760.66,134387.75 33947.64,134387.75 33947.64,134574.8 34134.69,134574.8 34134.69,134761.85 34321.74,134761.85 34321.74,134948.83 34508.79,134948.83 34508.79,135135.89 34695.85,135135.89 34695.85,135509.99 34882.9,135509.99 34882.9,135697.04 35069.88,135697.04 35069.88,135884.09 "
         class="fil1" /><path
         id="path27"
         d="M52464.56 131769.18l186.98 0 0 -561.08 187.05 0 0 -374.1 187.05 0 0 -561.08 187.05 0 0 -374.1 187.05 0 0 -374.1 374.03 0 0 374.1 187.05 0 0 374.1 187.05 0 0 561.08 187.05 0 0 374.1 187.05 0 0 561.08 187.05 0 0 187.05 -2244.47 0 0 -187.05zm1122.24 -3927.79l-187.05 0 0 561.08 -187.05 0 0 374.1 -187.05 0 0 374.1 -187.05 0 0 374.03 -187.05 0 0 561.15 -186.98 0 0 374.03 -187.05 0 0 374.1 -187.05 0 0 374.1 -187.05 0 0 374.03 -187.05 0 0 561.15 -187.05 0 0 374.1 -186.98 0 0 374.03 -187.05 0 0 374.1 -187.05 0 0 561.08 -187.05 0 0 374.1 -187.05 0 0 374.1 -187.05 0 0 374.03 -186.98 0 0 374.1 -187.05 0 0 561.15 935.18 0 0 -374.1 187.05 0 0 -561.15 187.05 0 0 -561.08 186.98 0 0 -374.1 187.05 0 0 -561.08 187.05 0 0 -561.15 187.05 0 0 -187.05 2992.6 0 0 374.1 187.05 0 0 561.15 187.05 0 0 561.08 187.05 0 0 374.1 187.05 0 0 561.08 186.98 0 0 374.1 187.05 0 0 374.1 1309.29 0 0 -561.15 -187.05 0 0 -374.1 -187.05 0 0 -374.03 -186.98 0 0 -374.1 -187.05 0 0 -561.08 -187.05 0 0 -374.1 -187.05 0 0 -374.1 -187.05 0 0 -561.08 -187.05 0 0 -374.1 -186.98 0 0 -374.1 -187.05 0 0 -374.03 -187.05 0 0 -561.15 -187.05 0 0 -374.03 -187.05 0 0 -374.1 -187.05 0 0 -374.1 -186.98 0 0 -561.08 -187.05 0 0 -374.1 -187.05 0 0 -374.1 -187.05 0 0 -561.08 -561.08 0 0 187.05z"
         class="fil1" /><polygon
         id="polygon29"
         points="7575.14,133452.57 7388.09,133452.57 7388.09,127841.39 6452.91,127841.39 6452.91,134200.7 6639.96,134200.7 6639.96,134574.8 6827.01,134574.8 6827.01,134948.83 7014.06,134948.83 7014.06,135135.89 7201.11,135135.89 7201.11,135322.94 7388.09,135322.94 7388.09,135509.99 7575.14,135509.99 7575.14,135697.04 7949.24,135697.04 7949.24,135884.09 8697.38,135884.09 8697.38,136071.07 11128.9,136071.07 11128.9,135884.09 11503,135884.09 11503,135697.04 11877.03,135697.04 11877.03,135509.99 12251.14,135509.99 12251.14,135322.94 12438.19,135322.94 12438.19,135135.89 12625.24,135135.89 12625.24,134948.83 12812.29,134948.83 12812.29,134574.8 12999.27,134574.8 12999.27,134200.7 13186.32,134200.7 13186.32,133639.62 13373.37,133639.62 13373.37,127654.34 12625.24,127654.34 12625.24,133265.52 12438.19,133265.52 12438.19,134013.65 12251.14,134013.65 12251.14,134387.75 12064.08,134387.75 12064.08,134761.85 11877.03,134761.85 11877.03,134948.83 11690.05,134948.83 11690.05,135135.89 11315.95,135135.89 11315.95,135322.94 10567.82,135322.94 10567.82,135509.99 9445.58,135509.99 9445.58,135322.94 8697.38,135322.94 8697.38,135135.89 8510.33,135135.89 8510.33,134948.83 8323.35,134948.83 8323.35,134761.85 8136.3,134761.85 8136.3,134574.8 7949.24,134574.8 7949.24,134387.75 7762.19,134387.75 7762.19,134013.65 7575.14,134013.65 "
         class="fil1" /><polygon
         id="polygon31"
         points="10193.72,90807.62 10193.72,77153.74 19732.68,77153.74 19732.68,76966.76 10006.66,76966.76 10006.66,90807.62 "
         class="fil1" /><polygon
         id="polygon33"
         points="34695.85,133639.62 34695.85,133826.6 35069.88,133826.6 35069.88,127841.39 35631.03,127841.39 35631.03,135884.09 35818.08,135884.09 35818.08,127654.34 34882.9,127654.34 34882.9,133639.62 "
         class="fil1" /><polygon
         id="polygon35"
         points="6452.91,133639.62 6452.91,127841.39 7388.09,127841.39 7388.09,133452.57 7575.14,133452.57 7575.14,127654.34 6265.86,127654.34 6265.86,133639.62 "
         class="fil1" /><polygon
         id="polygon37"
         points="55831.27,85383.49 55831.27,85009.39 55457.17,85009.39 55457.17,85570.54 55644.22,85570.54 55644.22,85383.49 "
         class="fil1" /><polygon
         id="polygon39"
         points="79398.14,7201.11 79959.3,7201.11 79959.3,6827.08 79772.24,6827.08 79772.24,7014.13 79398.14,7014.13 "
         class="fil1" /><polygon
         id="polygon41"
         points="78650.01,130272.91 78837.06,130272.91 78837.06,130459.89 79024.04,130459.89 79024.04,129898.81 78837.06,129898.81 78837.06,130085.86 78650.01,130085.86 "
         class="fil1" /></g></g></svg>