<svg viewBox="168 128.93018018018017 684.0000000000001 409.68468468468467" xmlns="http://www.w3.org/2000/svg" overflow="visible" xmlns:xlink="http://www.w3.org/1999/xlink" width="684.0000000000001px" height="409.68468468468467px"><g id="Master/Scene/Concert" stroke="none" stroke-width="1" fill="none" fill-rule="evenodd"><g id="Background" transform="translate(67.000000, 143.000000) scale(1 1)"><g id="Background/None" stroke="none" stroke-width="1" fill="none" fill-rule="evenodd" fill-opacity="0"/></g><g id="Floor Object" transform="translate(352.000000, 95.000000) scale(1 1)"><g id="Floor Object/Speakers 1" stroke="none" stroke-width="1" fill="none" fill-rule="evenodd"><g id="Group-24" transform="translate(60.000000, 312.000000)"><polygon id="Fill-1" fill="#FF9C31" points="0 127.464 86.803 127.464 86.803 0 0 0"/><polygon id="Fill-2" fill="#FFCAC4" points="24.719 127.464 111.523 127.464 111.523 0 24.719 0"/><g id="Group-23" transform="translate(38.000000, 13.464000)"><path d="M47.3508,17.7309 C47.3508,27.2469 39.6368,34.9609 30.1208,34.9609 C20.6058,34.9609 12.8918,27.2469 12.8918,17.7309 C12.8918,8.2149 20.6058,0.5009 30.1208,0.5009 C39.6368,0.5009 47.3508,8.2149 47.3508,17.7309" id="Fill-3" fill="#FF9C31"/><path d="M39.6005,17.7309 C39.6005,22.9659 35.3565,27.2099 30.1215,27.2099 C24.8855,27.2099 20.6415,22.9659 20.6415,17.7309 C20.6415,12.4959 24.8855,8.2519 30.1215,8.2519 C35.3565,8.2519 39.6005,12.4959 39.6005,17.7309" id="Fill-5" fill="#443389"/><path d="M59.8724,70.7055 C59.8724,86.9865 46.6734,100.1855 30.3924,100.1855 C14.1114,100.1855 0.9124,86.9865 0.9124,70.7055 C0.9124,54.4245 14.1114,41.2255 30.3924,41.2255 C46.6734,41.2255 59.8724,54.4245 59.8724,70.7055" id="Fill-7" fill="#FF9C31"/><path d="M49,70.7055 C49,81.1315 40.548,89.5845 30.121,89.5845 C19.695,89.5845 11.243,81.1315 11.243,70.7055 C11.243,60.2795 19.695,51.8265 30.121,51.8265 C40.548,51.8265 49,60.2795 49,70.7055" id="Fill-9" fill="#5A629D"/><path d="M41.8036,70.7055 C41.8036,77.1575 36.5736,82.3875 30.1216,82.3875 C23.6696,82.3875 18.4386,77.1575 18.4386,70.7055 C18.4386,64.2535 23.6696,59.0235 30.1216,59.0235 C36.5736,59.0235 41.8036,64.2535 41.8036,70.7055" id="Fill-11" fill="#443389"/><path d="M31.8568,46.893 C31.8568,47.702 31.2008,48.357 30.3928,48.357 C29.5838,48.357 28.9288,47.702 28.9288,46.893 C28.9288,46.084 29.5838,45.429 30.3928,45.429 C31.2008,45.429 31.8568,46.084 31.8568,46.893" id="Fill-13" fill="#643FE1"/><path d="M31.8568,94.9875 C31.8568,95.7965 31.2008,96.4515 30.3928,96.4515 C29.5838,96.4515 28.9288,95.7965 28.9288,94.9875 C28.9288,94.1785 29.5838,93.5235 30.3928,93.5235 C31.2008,93.5235 31.8568,94.1785 31.8568,94.9875" id="Fill-15" fill="#643FE1"/><path d="M7.5248,70.0523 C7.5248,70.8613 6.8688,71.5163 6.0608,71.5163 C5.2518,71.5163 4.5968,70.8613 4.5968,70.0523 C4.5968,69.2433 5.2518,68.5883 6.0608,68.5883 C6.8688,68.5883 7.5248,69.2433 7.5248,70.0523" id="Fill-17" fill="#643FE1"/><path d="M56.1888,70.0523 C56.1888,70.8613 55.5328,71.5163 54.7248,71.5163 C53.9158,71.5163 53.2608,70.8613 53.2608,70.0523 C53.2608,69.2433 53.9158,68.5883 54.7248,68.5883 C55.5328,68.5883 56.1888,69.2433 56.1888,70.0523" id="Fill-19" fill="#643FE1"/><path d="M38.6786,71.6261 C38.6596,71.6261 38.6416,71.6251 38.6216,71.6231 C38.3476,71.5921 38.1506,71.3451 38.1806,71.0711 C38.4916,68.2681 37.9336,66.0891 36.5196,64.5951 C34.1716,62.1161 30.1946,62.3141 30.1496,62.3111 C29.8646,62.3261 29.6386,62.1161 29.6216,61.8401 C29.6066,61.5641 29.8166,61.3291 30.0916,61.3131 C30.2766,61.3031 34.5676,61.0861 37.2406,63.9021 C38.8696,65.6201 39.5206,68.0681 39.1746,71.1811 C39.1466,71.4371 38.9296,71.6261 38.6786,71.6261" id="Fill-21" fill="#8069FF"/></g></g></g></g><g id="Chair" transform="translate(723.500000, 406.500000) scale(-1, 1) translate(-723.500000, -406.500000) translate(519.000000, 278.000000) scale(1 1)"><g id="Chair/Bank" stroke="none" stroke-width="1" fill="none" fill-rule="evenodd"><g id="Group-15" transform="translate(87.000000, 95.000000)"><polygon id="Fill-1" fill="#FFC1FF" points="0 161.831569 0.918554775 162 27 18.1689001 26.0809782 18"/><polygon id="Fill-2" fill="#FFC1FF" points="29 162.885599 29.9748881 163 48 21.1144006 47.0246205 21"/><polygon id="Fill-3" fill="#FFC1FF" points="107 18.1778033 133.133985 162 134 161.822197 107.866015 18"/><polygon id="Fill-4" fill="#FFC1FF" points="81 18.0854379 95.0020373 162 96 161.915032 81.9979627 18"/><polygon id="Fill-5" fill="#443389" points="13 17 120 17 120 8 13 8"/><g id="Group-14" transform="translate(13.000000, 0.000000)"><path d="M106.903364,15.8973653 C106.903364,12.1352224 82.9943821,9.0856102 53.5017274,9.0856102 C24.0085928,9.0856102 0.0996107623,12.1352224 0.0996107623,15.8973653 C0.0996107623,19.6595082 24.0085928,22.7091204 53.5017274,22.7091204 C82.9943821,22.7091204 106.903364,19.6595082 106.903364,15.8973653" id="Fill-6" fill="#443389"/><path d="M106.903364,7.05414694 C106.903364,3.29200408 82.9943821,0.242391837 53.5017274,0.242391837 C24.0085928,0.242391837 0.0996107623,3.29200408 0.0996107623,7.05414694 C0.0996107623,10.8162898 24.0085928,13.865902 53.5017274,13.865902 C82.9943821,13.865902 106.903364,10.8162898 106.903364,7.05414694" id="Fill-8" fill="#5A629D"/><path d="M37.2411821,6.58353878 C37.2411821,6.88817143 36.4298054,7.13506939 35.4288996,7.13506939 C34.4279937,7.13506939 33.616617,6.88817143 33.616617,6.58353878 C33.616617,6.27890612 34.4279937,6.03200816 35.4288996,6.03200816 C36.4298054,6.03200816 37.2411821,6.27890612 37.2411821,6.58353878" id="Fill-10" fill="#C3C5DB"/><path d="M68.6213552,6.58353878 C68.6213552,6.88817143 67.8099785,7.13506939 66.8090726,7.13506939 C65.8081668,7.13506939 64.9967901,6.88817143 64.9967901,6.58353878 C64.9967901,6.27890612 65.8081668,6.03200816 66.8090726,6.03200816 C67.8099785,6.03200816 68.6213552,6.27890612 68.6213552,6.58353878" id="Fill-12" fill="#C3C5DB"/></g></g></g></g><g transform="translate(729.000000, 337.500000) scale(-1, 1) translate(-729.000000, -337.500000) translate(562.000000, 140.000000) scale(1 1)" id="Master/Character/Sitting"><g id="Master/Character/Sitting" stroke="none" stroke-width="1" fill="none" fill-rule="evenodd"><g id="Sitting/Lower Body" transform="translate(77.000000, 128.000000) scale(1 1)"><g id="Sitting/Lower Body/Keyboard" stroke="none" stroke-width="1" fill="none" fill-rule="evenodd"><g id="Group-66" transform="translate(0.000000, 76.000000)"><polygon id="Fill-1" fill="#B67831" points="135.3038 168.4318 128.0738 113.4238 177.7618 67.0708 206.9628 175.0408 176.4808 184.1898"/><polygon id="Fill-2" fill="#B67831" points="21.9073 164.633 31.4643 117.522 88.7613 90.082 96.6853 176.389 40.2713 181.013"/><g id="Group-65" transform="translate(0.000000, 0.195000)"><path d="M24.454,150.2022 L15.371,191.9242 L123.397,191.9242 L123.397,191.9242 C123.397,161.7812 94.12,148.2552 94.12,148.2552 C94.12,148.2552 75.966,148.2552 42.169,160.6322 C30.626,164.8592 24.454,150.2022 24.454,150.2022" id="Fill-3" fill="#B9C8FF"/><path d="M123.7445,128.9345 C116.8405,73.3385 99.6485,57.1895 11.4275,43.6295 L6.6965,39.3575 C6.0765,38.5925 8.2475,31.6185 8.9865,30.9695 L22.0815,10.2625 L42.2285,10.2625 C42.2285,10.2625 102.7025,13.0945 134.6165,20.0125 C179.2415,29.6855 186.0615,80.5745 197.1525,122.4495 L123.7445,128.9345 Z" id="Fill-5" fill="#443389"/><g id="Group-9" fill="#5A629D"><path d="M1.1418,10.2623 C1.1418,10.2623 0.3688,1.6303 23.3598,0.8473 C46.3518,0.0643 46.6708,10.2623 46.6708,10.2623 C46.6708,10.2623 86.7158,10.8493 102.3168,41.1693 C115.5438,66.8763 115.8648,100.0723 113.1278,128.7523 L27.1608,137.7123 C27.1608,137.7123 38.0628,85.0943 38.7868,65.7753 C39.5338,45.8303 18.3788,48.3743 11.4278,43.6293 C1.7998,37.0573 -0.9522,25.8853 0.2738,16.7383 L1.1418,10.2623 Z" id="Fill-7"/></g><path d="M66.9409,182.9246 C66.9409,182.9246 67.3879,155.3316 104.8989,155.3316 C104.8989,155.3316 121.1949,167.7116 122.4839,182.9246 L66.9409,182.9246 Z" id="Fill-10" fill="#F0DB00"/><path d="M29.8287,174.1243 C29.4017,177.3073 27.5897,179.6903 25.7817,179.4483 C23.9737,179.2053 22.8547,176.4283 23.2817,173.2453 C23.7087,170.0623 25.5207,167.6793 27.3287,167.9213 C29.1367,168.1643 30.2557,170.9413 29.8287,174.1243" id="Fill-12" fill="#F0DB00"/><path d="M24.383,148.2548 L22.887,157.3988 C22.887,157.3988 27.83,165.0568 38.196,165.063806 C56.621,165.0768 80.997,145.3098 100.773,152.2908 C100.773,152.2908 99.219,151.1498 97.734,150.2438 C96.25,149.3378 94.12,148.2548 94.12,148.2548 C94.12,148.2548 82.93,144.6218 63.231,152.6348 C49.336,158.2868 42.635,161.3908 36.346,159.9108 C30.056,158.4308 24.383,148.2548 24.383,148.2548" id="Fill-14" fill="#8069FF"/><polygon id="Fill-16" fill="#FF9B8F" points="15.371 191.924 124.914 191.924 124.914 182.925 15.371 182.925"/><path d="M132.6167,148.2548 L134.5847,191.9238 L239.4857,191.9238 L239.4857,191.9238 C239.4857,151.4148 199.2907,140.8948 199.2907,140.8948 C199.2907,140.8948 171.4267,148.5638 150.5447,156.4188 C140.6217,160.1518 132.6167,148.2548 132.6167,148.2548" id="Fill-18" fill="#B9C8FF"/><path d="M179.3975,182.9246 C179.3975,182.9246 180.5615,150.2396 218.0725,150.2396 C218.0725,150.2396 236.7305,162.5076 238.9015,182.9246 L179.3975,182.9246 Z" id="Fill-19" fill="#F0DB00"/><path d="M144.8897,172.9661 C144.8897,176.1771 143.4107,178.7811 141.5867,178.7811 C139.7627,178.7811 138.2837,176.1771 138.2837,172.9661 C138.2837,169.7551 139.7627,167.1511 141.5867,167.1511 C143.4107,167.1511 144.8897,169.7551 144.8897,172.9661" id="Fill-20" fill="#F0DB00"/><path d="M199.2908,140.8944 C197.4438,139.7774 188.3018,141.1794 170.1898,148.7504 C163.5868,151.5094 149.8548,157.2824 142.1188,155.3314 C135.4498,153.6484 132.4808,147.7984 132.4808,147.7984 L133.0618,158.1374 C133.0618,158.1374 134.8208,166.2274 149.0288,163.0544 C168.0698,158.8024 189.2788,140.55537 206.9628,143.7884 C206.9628,143.7884 207.1148,143.4854 204.1358,142.3674 C201.1578,141.2494 199.2908,140.8944 199.2908,140.8944" id="Fill-21" fill="#8069FF"/><polygon id="Fill-22" fill="#FF9B8F" points="131.788 191.924 241.331 191.924 241.331 182.925 131.788 182.925"/><path d="M76.2282,144.5479 C73.3972,144.5479 70.9682,145.3489 69.8322,147.6539 C68.0552,151.2639 69.0912,155.9409 72.0962,157.8669 C76.5042,160.6939 83.4202,157.1769 90.6552,148.4519 C88.6342,147.5279 81.6862,144.5479 76.2282,144.5479 M75.5192,159.8139 C73.6902,159.8139 72.3702,159.2299 71.5572,158.7089 C68.0852,156.4839 66.9102,151.3259 68.9362,147.2129 C73.0802,138.7959 90.9152,147.4509 91.6702,147.8229 L92.2332,148.1009 L91.8372,148.5879 C84.4922,157.6309 79.0542,159.8139 75.5192,159.8139" id="Fill-23" fill="#FF9B8F"/><path d="M92.82,148.2192 C94.72,149.3432 102.647,153.8062 106.065,152.2542 C106.867,151.8902 107.339,151.2052 107.508,150.1592 C108.077,146.6492 106.064,142.9232 103.022,141.8532 C99.618,140.6562 95.916,142.9722 92.82,148.2192 M104.365,153.5622 C99.548,153.5622 92.234,149.0412 91.877,148.8182 L91.469,148.5642 L91.707,148.1472 C96.545,139.6162 101.466,140.2452 103.354,140.9092 C106.832,142.1332 109.138,146.3542 108.495,150.3192 C108.271,151.7012 107.592,152.6582 106.478,153.1642 C105.868,153.4422 105.149,153.5622 104.365,153.5622" id="Fill-24" fill="#FF9B8F"/><path d="M77.986,172.9883 C77.43,160.2373 90.558,148.3963 91.118,147.8983 L91.407,147.6403 L114.778,163.3773 L114.219,164.2063 L91.499,148.9073 C89.57,150.7263 78.495,161.6813 78.986,172.9443 L77.986,172.9883 Z" id="Fill-25" fill="#FF9B8F"/><path d="M180.7487,137.6343 C177.5497,137.6343 174.8427,138.4423 173.6917,140.7763 C171.8707,144.4763 173.0177,149.3763 176.1957,151.4763 C178.5087,153.0033 185.1277,155.0433 196.9987,141.4703 C194.7237,140.5683 186.8447,137.6343 180.7487,137.6343 M180.0727,153.5663 C178.0037,153.5663 176.5367,152.8993 175.6447,152.3103 C172.0667,149.9473 170.7627,144.4633 172.7957,140.3343 C176.9297,131.9423 197.1717,140.4433 198.0307,140.8093 L198.6587,141.0773 L198.2137,141.5953 C189.9467,151.2173 183.9527,153.5663 180.0727,153.5663" id="Fill-26" fill="#FF9B8F"/><path d="M199.1745,141.1987 C200.9065,142.2257 208.0695,146.2567 211.3435,144.7757 C212.1805,144.3967 212.6755,143.6707 212.8565,142.5557 C213.5115,138.5047 211.7235,132.7467 208.7015,131.8017 C205.9215,130.9307 202.5505,134.2687 199.1745,141.1987 M209.6525,146.0837 C205.1285,146.0837 198.5825,142.0167 198.2605,141.8157 L197.8825,141.5787 L198.0745,141.1767 C202.7965,131.2907 206.6235,130.1037 208.9995,130.8467 C212.5675,131.9627 214.5665,138.2517 213.8425,142.7157 C213.6085,144.1667 212.9055,145.1657 211.7555,145.6867 C211.1415,145.9647 210.4265,146.0837 209.6525,146.0837" id="Fill-27" fill="#FF9B8F"/><path d="M187.0592,169.1279 L186.0592,169.1279 C186.0592,152.6839 197.3652,141.0339 197.4792,140.9189 L197.6782,140.7159 L197.9542,140.7839 C198.0352,140.8039 206.1302,142.8249 214.8802,147.7699 C223.6732,152.7399 226.4652,156.8269 226.5802,156.9989 L225.7482,157.5549 C225.7212,157.5149 222.9422,153.4759 214.3882,148.6399 C206.6672,144.2769 199.4832,142.2269 197.9962,141.8279 C196.5082,143.4429 187.0592,154.2909 187.0592,169.1279" id="Fill-28" fill="#FF9B8F"/><polygon id="Fill-29" fill="#D1DDF0" points="41.07 192 40.082 191.848 64.33 34.69 65.318 34.842"/><polygon id="Fill-30" fill="#D1DDF0" points="102.7751 191.9292 101.0231 34.7712 102.0231 34.7612 103.7751 191.9182"/><polygon id="Fill-31" fill="#D1DDF0" points="254.1159 192 229.8679 34.842 230.8559 34.69 255.1039 191.848"/><polygon id="Fill-32" fill="#D1DDF0" points="202.9001 191.9375 198.6521 34.7795 199.6521 34.7525 203.9001 191.9105"/><polygon id="Fill-33" fill="#443389" points="67.563 10.434 101.062 10.434 101.062 2.51 67.563 2.51"/><polygon id="Fill-34" fill="#D1DDF0" points="56.335 20.434 234.633 20.434 234.633 7.02 56.335 7.02"/><path d="M60.5722,14.83 L99.6482,2.51 L226.2372,2.51 L226.2372,35.766 L51.8242,35.766 L51.8242,26.772 C51.8242,21.383 55.3372,16.587 60.5722,14.83" id="Fill-35" fill="#FF9B8F"/><path d="M99.6481,2.5099 L250.2881,2.5099 L250.2881,21.0149 C250.2881,29.1619 243.6841,35.7659 235.5371,35.7659 L99.6481,35.7659 L99.6481,2.5099 Z" id="Fill-36" fill="#F85786"/><polygon id="Fill-37" fill="#FF9B8F" points="219.17 16.468 244.215 16.468 244.215 8.454 219.17 8.454"/><polygon id="Fill-38" fill="#443389" points="113.933 24.707 139.556 24.707 139.556 22.958 113.933 22.958"/><polygon id="Fill-39" fill="#443389" points="113.933 28.528 139.556 28.528 139.556 26.779 113.933 26.779"/><polygon id="Fill-40" fill="#443389" points="113.933 20.887 139.556 20.887 139.556 19.138 113.933 19.138"/><polygon id="Fill-41" fill="#5A629D" points="135.186 2.51 143.926 2.51 143.926 0.848 135.186 0.848"/><polygon id="Fill-42" fill="#5A629D" points="149.175 2.51 157.915 2.51 157.915 0.848 149.175 0.848"/><polygon id="Fill-43" fill="#5A629D" points="163.681 2.51 172.421 2.51 172.421 0.848 163.681 0.848"/><polygon id="Fill-44" fill="#5A629D" points="212.466 2.51 221.206 2.51 221.206 0.848 212.466 0.848"/><polygon id="Fill-45" fill="#5A629D" points="230.693 2.51 239.433 2.51 239.433 0.848 230.693 0.848"/><path d="M118.4902,12.0231 C118.4902,13.2071 117.5302,14.1661 116.3472,14.1661 C115.1632,14.1661 114.2042,13.2071 114.2042,12.0231 C114.2042,10.8391 115.1632,9.8801 116.3472,9.8801 C117.5302,9.8801 118.4902,10.8391 118.4902,12.0231" id="Fill-46" fill="#443389"/><path d="M116.3473,10.3799 C115.4413,10.3799 114.7033,11.1169 114.7033,12.0229 C114.7033,12.9289 115.4413,13.6669 116.3473,13.6669 C117.2523,13.6669 117.9903,12.9289 117.9903,12.0229 C117.9903,11.1169 117.2523,10.3799 116.3473,10.3799 M116.3473,14.6669 C114.8893,14.6669 113.7033,13.4809 113.7033,12.0229 C113.7033,10.5659 114.8893,9.3799 116.3473,9.3799 C117.8043,9.3799 118.9903,10.5659 118.9903,12.0229 C118.9903,13.4809 117.8043,14.6669 116.3473,14.6669" id="Fill-47" fill="#ED9CF7"/><path d="M129.2008,12.0231 C129.2008,13.2071 128.2408,14.1661 127.0578,14.1661 C125.8738,14.1661 124.9148,13.2071 124.9148,12.0231 C124.9148,10.8391 125.8738,9.8801 127.0578,9.8801 C128.2408,9.8801 129.2008,10.8391 129.2008,12.0231" id="Fill-48" fill="#443389"/><path d="M127.0573,10.3799 C126.1523,10.3799 125.4143,11.1169 125.4143,12.0229 C125.4143,12.9289 126.1523,13.6669 127.0573,13.6669 C127.9633,13.6669 128.7013,12.9289 128.7013,12.0229 C128.7013,11.1169 127.9633,10.3799 127.0573,10.3799 M127.0573,14.6669 C125.6003,14.6669 124.4143,13.4809 124.4143,12.0229 C124.4143,10.5659 125.6003,9.3799 127.0573,9.3799 C128.5153,9.3799 129.7013,10.5659 129.7013,12.0229 C129.7013,13.4809 128.5153,14.6669 127.0573,14.6669" id="Fill-49" fill="#ED9CF7"/><path d="M139.1858,12.0231 C139.1858,13.2071 138.2258,14.1661 137.0428,14.1661 C135.8588,14.1661 134.8998,13.2071 134.8998,12.0231 C134.8998,10.8391 135.8588,9.8801 137.0428,9.8801 C138.2258,9.8801 139.1858,10.8391 139.1858,12.0231" id="Fill-50" fill="#443389"/><path d="M137.0426,10.3799 C136.1366,10.3799 135.3986,11.1169 135.3986,12.0229 C135.3986,12.9289 136.1366,13.6669 137.0426,13.6669 C137.9486,13.6669 138.6866,12.9289 138.6866,12.0229 C138.6866,11.1169 137.9486,10.3799 137.0426,10.3799 M137.0426,14.6669 C135.5846,14.6669 134.3986,13.4809 134.3986,12.0229 C134.3986,10.5659 135.5846,9.3799 137.0426,9.3799 C138.5006,9.3799 139.6866,10.5659 139.6866,12.0229 C139.6866,13.4809 138.5006,14.6669 137.0426,14.6669" id="Fill-51" fill="#ED9CF7"/><path d="M232.868,22.833 C232.868,24.017 231.908,24.976 230.725,24.976 C229.541,24.976 228.582,24.017 228.582,22.833 C228.582,21.649 229.541,20.69 230.725,20.69 C231.908,20.69 232.868,21.649 232.868,22.833" id="Fill-52" fill="#443389"/><path d="M230.7243,21.1899 C229.8193,21.1899 229.0813,21.9269 229.0813,22.8329 C229.0813,23.7389 229.8193,24.4759 230.7243,24.4759 C231.6303,24.4759 232.3683,23.7389 232.3683,22.8329 C232.3683,21.9269 231.6303,21.1899 230.7243,21.1899 M230.7243,25.4759 C229.2673,25.4759 228.0813,24.2909 228.0813,22.8329 C228.0813,21.3759 229.2673,20.1899 230.7243,20.1899 C232.1823,20.1899 233.3683,21.3759 233.3683,22.8329 C233.3683,24.2909 232.1823,25.4759 230.7243,25.4759" id="Fill-53" fill="#ED9CF7"/><polygon id="Fill-54" fill="#5A629D" points="144.89 191.924 220.941 191.924 220.941 185.108 144.89 185.108"/><path d="M178.4835,182.4674 L150.2595,182.4674 L150.2595,181.6414 C150.2595,180.3254 151.3255,179.2594 152.6405,179.2594 L178.4835,179.2594 L178.4835,182.4674 Z" id="Fill-55" fill="#E1E4E7"/><polygon id="Fill-56" fill="#5A629D" points="175.817 191.924 231.214 191.924 231.214 177.235 175.817 177.235"/><polygon id="Fill-57" fill="#443389" points="192.082 191.924 244.062 191.924 244.062 177.235 192.082 177.235"/><path d="M236.1437,187.1846 C234.9897,186.8606 234.3167,185.6626 234.6407,184.5086 C234.9647,183.3546 236.1627,182.6816 237.3167,183.0056 C238.4707,183.3296 239.1437,184.5276 238.8197,185.6816 C238.4957,186.8356 237.2977,187.5086 236.1437,187.1846" id="Fill-58" fill="#443389"/><path d="M236.7292,183.9248 C236.5312,183.9248 236.3342,183.9748 236.1572,184.0748 C235.8842,184.2278 235.6882,184.4778 235.6042,184.7788 C235.5192,185.0798 235.5572,185.3958 235.7102,185.6688 C235.8632,185.9408 236.1132,186.1368 236.4142,186.2218 C237.0392,186.3978 237.6832,186.0338 237.8572,185.4118 C238.0312,184.7908 237.6672,184.1428 237.0462,183.9688 C236.9412,183.9388 236.8342,183.9248 236.7292,183.9248 M236.7292,188.2658 C236.4462,188.2658 236.1592,188.2278 235.8732,188.1478 C235.0582,187.9188 234.3802,187.3858 233.9662,186.6478 C233.5512,185.9088 233.4502,185.0528 233.6782,184.2378 C233.9072,183.4238 234.4392,182.7458 235.1782,182.3308 C235.9162,181.9158 236.7702,181.8138 237.5872,182.0428 C239.2692,182.5158 240.2542,184.2698 239.7832,185.9518 C239.3902,187.3498 238.1142,188.2658 236.7292,188.2658" id="Fill-59" fill="#5A629D"/><path d="M228.7965,185.0953 C228.7965,186.2943 227.8245,187.2653 226.6265,187.2653 C225.4275,187.2653 224.4565,186.2943 224.4565,185.0953 C224.4565,183.8963 225.4275,182.9253 226.6265,182.9253 C227.8245,182.9253 228.7965,183.8963 228.7965,185.0953" id="Fill-60" fill="#443389"/><path d="M226.6266,183.9253 C225.9806,183.9253 225.4556,184.4503 225.4556,185.0953 C225.4556,185.7403 225.9806,186.2653 226.6266,186.2653 C227.2726,186.2653 227.7966,185.7403 227.7966,185.0953 C227.7966,184.4503 227.2726,183.9253 226.6266,183.9253 M226.6266,188.2653 C224.8786,188.2653 223.4556,186.8433 223.4556,185.0953 C223.4556,183.3473 224.8786,181.9253 226.6266,181.9253 C228.3746,181.9253 229.7966,183.3473 229.7966,185.0953 C229.7966,186.8433 228.3746,188.2653 226.6266,188.2653" id="Fill-61" fill="#5A629D"/><path d="M242.0964,95.3228 C242.0874,97.6048 242.3564,100.3338 243.4534,101.2968 C243.8274,101.6238 244.2654,101.7128 244.8374,101.5728 C245.6984,101.3608 245.8784,100.5438 245.879405,99.8968 C245.8824,98.1498 244.5344,95.8578 242.7254,95.4058 C242.5174,95.3538 242.3074,95.3268 242.0964,95.3228 M239.9394,124.1448 C240.0874,124.3528 240.2404,124.5578 240.3944,124.7558 C242.0364,126.8658 244.7034,129.2098 248.1014,128.3748 C248.9094,128.1768 250.2474,127.7008 250.1244,126.7388 C249.9484,125.3718 246.9774,123.3648 243.3444,123.4388 C242.4804,123.4518 241.2594,123.5968 239.9394,124.1448 M243.6244,185.5988 C242.6554,185.5988 241.9874,185.4808 241.9204,185.4688 L242.1014,184.4848 C242.1414,184.4908 245.8624,185.1418 248.5474,183.1628 C250.0764,182.0368 250.9974,180.2618 251.2854,177.8878 C251.7764,173.8338 248.4974,170.8188 244.3474,167.0008 C237.8584,161.0318 229.7814,153.6038 231.3104,138.0168 C232.1604,129.3468 235.3894,125.4528 238.4664,123.7368 C234.1044,116.7638 232.6684,105.5778 235.6684,99.9278 C237.6344,96.2228 239.5364,94.8028 241.1074,94.4278 C241.1444,93.4668 241.2174,92.7468 241.2424,92.5268 C241.2394,92.5298 241.2544,45.7418 241.2344,34.9158 C241.2254,30.0948 240.1554,26.5728 238.1394,24.7318 C236.4504,23.1878 234.6964,23.3228 234.6254,23.3308 L234.5304,22.3358 C234.6214,22.3269644 236.7684,22.1418 238.7894,23.9708 C241.0654,26.0308 242.2244,29.7128 242.2344,34.9138 C242.2544,45.7468 242.2394,92.5818 242.2394,92.5818 C242.1914,93.0228 242.1434,93.6288 242.1174,94.3198 C242.4194,94.3268 242.7034,94.3698 242.9674,94.4358 C245.3124,95.0208 246.8834,97.7328 246.8794,99.8978 C246.8774,101.2968 246.2214,102.2608 245.0774,102.5428 C244.2004,102.7588 243.4114,102.5888 242.7934,102.0478 C241.3794,100.8078 241.0834,97.8028 241.0854,95.4848 C239.5634,95.9898 237.9984,97.6698 236.5514,100.3968 C233.6784,105.8088 235.1154,116.6018 239.3664,123.2918 C240.9004,122.6248 242.3314,122.4538 243.3294,122.4388 C247.3674,122.3698 250.8624,124.6318 251.1164,126.6118 C251.2114,127.3558 250.9774,128.6998 248.3394,129.3458 C245.2444,130.1038 242.2214,128.7308 239.6054,125.3698 C239.4084,125.1158 239.2144,124.8538 239.0264,124.5838 C236.1664,126.1598 233.1194,129.8148 232.3064,138.1148 C230.8254,153.2058 238.6984,160.4468 245.0244,166.2648 C249.2134,170.1168 252.8304,173.4448 252.2784,178.0078 C251.9554,180.6698 250.8974,182.6768 249.1344,183.9728 C247.2964,185.3228 245.1074,185.5988 243.6244,185.5988" id="Fill-62" fill="#B9C8FF"/><path d="M235.7582,24.4913 L231.4152,24.4913 C230.5022,24.4913 229.7612,23.7503 229.7612,22.8373 L229.7612,22.8373 C229.7612,21.9193 230.5062,21.1743 231.4242,21.1743 L235.4652,21.1743 C236.4612,21.1743 237.2702,21.9823 237.2702,22.9793 C237.2702,23.8143 236.5932,24.4913 235.7582,24.4913" id="Fill-63" fill="#B9C8FF"/><path d="M237.2367,183.949 L241.3277,183.949 C241.9667,183.949 242.4857,184.468 242.4857,185.108 L242.4857,185.108 C242.4857,185.748 241.9667,186.266 241.3277,186.266 L237.2367,186.266 C236.5967,186.266 236.0777,185.748 236.0777,185.108 L236.0777,185.108 C236.0777,184.468 236.5967,183.949 237.2367,183.949" id="Fill-64" fill="#B9C8FF"/></g></g></g></g><g id="Head" transform="translate(0.000000, 45.000000) scale(1 1)"><g id="Head/Cap" stroke="none" stroke-width="1" fill="none" fill-rule="evenodd"><g id="Group-22" transform="translate(68.000000, 16.000000)"><polygon id="Fill-1" fill="#e1e4e7" points="25.8903 36.3121 25.8903 65.6881 46.7323 70.3181 39.9923 36.3121"/><g id="Group-21" transform="translate(0.000000, 0.317700)"><path d="M45.0536,61.4891 L44.1696,57.0591 L28.9146,43.5281 C28.9146,43.5281 31.3966,51.6641 36.5536,55.6691 C40.3526,58.6201 45.0536,61.4891 45.0536,61.4891" id="Fill-2" fill="#beb9c1"/><path d="M44.9837,57.0751 L44.9837,57.0751 C35.3767,57.0751 28.0667,46.0191 28.0667,38.9021 L28.0667,21.4171 C28.0667,14.3001 34.2167,12.3141 41.9887,12.3141 C49.7607,12.3141 53.2447,13.7441 54.9987,16.4861 L55.2657,40.6841 C55.2657,49.7521 52.7557,57.0751 44.9837,57.0751" id="Fill-4" fill="#e1e4e7"/><path d="M21.9943,38.3863 L21.4293,36.9273 C20.5423,34.6393 21.6773,32.0653 23.9653,31.1783 L23.9663,31.1783 C26.2543,30.2913 28.8283,31.4273 29.7153,33.7153 L30.2803,35.1743 C31.1673,37.4623 30.0313,40.0363 27.7433,40.9233 L27.7433,40.9233 C25.4553,41.8103 22.8813,40.6743 21.9943,38.3863" id="Fill-6" fill="#e1e4e7"/><path d="M23.6625,37.1734 C23.4565,37.1734 23.2645,37.0464 23.1915,36.8404 C23.1685,36.7754 22.6295,35.2194 23.4465,34.0604 C23.9795,33.3054 24.9265,32.9224 26.2605,32.9224 C26.5365,32.9224 26.7605,33.1464 26.7605,33.4224 C26.7605,33.6984 26.5365,33.9224 26.2605,33.9224 C25.2695,33.9224 24.5995,34.1624 24.2645,34.6364 C23.7495,35.3654 24.1295,36.4944 24.1335,36.5064 C24.2255,36.7664 24.0905,37.0514 23.8305,37.1444 C23.7745,37.1644 23.7185,37.1734 23.6625,37.1734" id="Fill-8" fill="#beb9c1"/><path d="M53.6933,11.3776 C53.6933,11.3776 51.4313,6.4106 48.0553,4.8056 C41.7643,1.8146 28.9153,1.3456 25.8863,8.5126 C25.5743,9.2516 20.9293,9.2676 19.1303,13.7796 C15.5113,22.8566 18.2143,26.9716 20.7693,30.7066 L19.5153,32.5396 C19.5153,32.5396 17.5643,40.8566 23.3513,43.5276 C25.5373,44.5366 23.0413,45.8086 23.0413,45.8086 C23.0413,45.8086 25.8193,46.7766 25.8543,45.5536 C25.8893,44.3316 25.8543,41.2116 25.8543,41.2116 C25.8543,41.2116 25.8363,41.2066 25.8073,41.1976 C24.1533,41.0726 22.6343,40.0366 21.9943,38.3866 L21.6653,37.5386 C21.6133,37.4206 21.5683,37.2906 21.5213,37.1656 L21.4293,36.9276 C20.5413,34.6396 21.6773,32.0656 23.9653,31.1786 C25.7963,30.4686 27.7953,31.0686 28.9813,32.5036 C28.9903,32.5066 29.0123,32.5146 29.0183,32.5176 C29.0963,32.6136 29.1633,32.7196 29.2343,32.8216 C29.2643,32.8656 29.2983,32.9066 29.3263,32.9516 C29.4753,33.1786 29.6113,33.4166 29.7133,33.6806 L29.8623,34.0656 C30.8663,33.3446 31.6613,32.3776 31.7113,31.0966 C31.8233,28.1926 25.7013,13.8466 47.2603,16.8336 C56.8463,18.1616 55.6613,17.5826 53.6933,11.3776" id="Fill-10" fill="#7d3b58"/><path d="M54.1018,12.3119 C51.5468,10.4939 43.2608,12.3139 43.2608,12.3139 C42.1738,12.0839 40.7758,8.7389 44.0188,7.2639 C46.1788,6.2799 49.3568,6.9169 51.2428,7.4519 C46.7688,2.0169 38.1578,-2.7861 24.8548,4.0689 C24.8548,4.0689 3.6668,15.8899 18.5398,33.8759 C18.5398,33.8759 37.8148,11.7959 54.9988,15.9689 C54.9988,15.9689 54.8868,14.4009 54.1018,12.3119" id="Fill-12" fill="#B9C8FF"/><path d="M21.5209,37.1651 C21.5679,37.2911 21.6129,37.4201 21.6659,37.5391 L21.9939,38.3861 C22.0879,38.6281 22.2049,38.8511 22.3339,39.0661 L21.3949,36.8051 C21.4099,36.8461 21.4129,36.8871 21.4289,36.9271 L21.5209,37.1651 Z" id="Fill-14" fill="#FFDEE3"/><g id="Group-18" transform="translate(0.000000, 32.000000)" fill="#643FE1"><path d="M19.4581,0.8858 C16.5401,4.1598 10.3051,7.7578 3.0781,11.5278 C-5.2939,15.8948 5.2361,16.1398 12.9731,14.7878 C17.4391,14.0068 21.7191,12.2468 23.3511,11.5278 C18.9181,9.4808 19.1651,3.2808 19.4581,0.8858" id="Fill-16"/></g><path d="M21.8647,8.9452 C21.8647,7.9592 21.9227,6.9862 22.0287,6.0282 C16.7137,10.1752 7.1567,20.1102 18.5397,33.8752 C18.5397,33.8752 21.9367,30.0042 27.6807,25.4572 C24.0377,20.8882 21.8647,15.1642 21.8647,8.9452" id="Fill-19" fill="#8069FF"/></g></g></g></g><g id="Expression" transform="translate(100.000000, 78.000000) scale(1 1)"><g id="Expression/Grinning" stroke="none" stroke-width="1" fill="none" fill-rule="evenodd"><g id="Group-20" transform="translate(6.000000, 6.000000)"><path d="M1,4.662 C0.761,4.662 0.521,4.577 0.33,4.404 C-0.08,4.034 -0.112,3.402 0.258,2.992 C0.363,2.874 2.915,0.125 7.197,1.478 C7.724,1.645 8.016,2.207 7.849,2.734 C7.683,3.26 7.125,3.554 6.594,3.386 C3.519,2.413 1.76,4.313 1.742,4.332 C1.545,4.551 1.272,4.662 1,4.662" id="Fill-1" fill="#7d3b58"/><g id="Group-5" transform="translate(13.000000, 0.109400)" fill="#7d3b58"><path d="M3.2754,3.6117 C2.9824,3.6117 2.6934,3.4837 2.4964,3.2397 C2.4464,3.1837 2.0744,2.8107 1.2734,2.9067 C0.7304,2.9767 0.2284,2.5787 0.1644,2.0297 C0.0994,1.4817 0.4924,0.9847 1.0414,0.9207 C2.9964,0.6907 3.9654,1.8697 4.0694,2.0047 C4.4044,2.4437 4.3204,3.0707 3.8814,3.4057 C3.7004,3.5447 3.4874,3.6117 3.2754,3.6117" id="Fill-3"/></g><path d="M8.1364,11.0666 C8.1364,13.2796 6.6734,15.0726 4.8694,15.0726 C3.0654,15.0726 1.6024,13.2796 1.6024,11.0666 C1.6024,8.8536 3.0654,7.0606 4.8694,7.0606 C6.6734,7.0606 8.1364,8.8536 8.1364,11.0666" id="Fill-6" fill="#FFF"/><path d="M4.8694,7.0602 L4.8694,15.0732 C6.6734,15.0732 8.1364,13.2792 8.1364,11.0662 C8.1364,8.8542 6.6734,7.0602 4.8694,7.0602" id="Fill-8" fill="#1D1D1B"/><path d="M15.8598,10.927 C15.8598,12.953 14.9848,14.595 13.9048,14.595 C12.8248,14.595 11.9498,12.953 11.9498,10.927 C11.9498,8.901 12.8248,7.259 13.9048,7.259 C14.9848,7.259 15.8598,8.901 15.8598,10.927" id="Fill-10" fill="#FFF"/><path d="M13.9048,7.259 L13.9048,14.595 C14.9848,14.595 15.8598,12.953 15.8598,10.927 C15.8598,8.901 14.9848,7.259 13.9048,7.259" id="Fill-12" fill="#1D1D1B"/><path d="M13.7779,18.665 L7.9039,18.815 C6.9679,18.839 6.2529,19.655 6.3529,20.586 C6.5769,22.679 7.3949,26.04 10.2979,26.995 C12.7869,27.813 14.7949,24.068 14.4499,19.281 C14.4249,18.929 14.1309,18.656 13.7779,18.665" id="Fill-14" fill="#3F1A81"/><path d="M7.8285,18.7465 L13.6475,18.5965 C14.1515,18.5835 14.5615,19.0005 14.5375,19.5045 L14.4615,21.1555 L6.4735,21.4585 C6.4735,21.4585 6.3695,20.9695 6.3405,20.4475 C6.2815,19.7135 7.0275,18.7675 7.8285,18.7465" id="Fill-16" fill="#FFF"/><path d="M6.4733,21.4584 L11.7543,21.2584 C11.7543,21.2584 14.5273,22.2834 14.0403,23.7304 C13.5573,25.1624 12.9253,27.0494 11.0443,27.1074 C7.1993,27.2264 6.4733,21.4584 6.4733,21.4584" id="Fill-18" fill="#EA477F"/></g></g></g><g id="Beard" transform="translate(90.000000, 94.000000) scale(1 1)" fill="#000"><g id="Beard/None" stroke="none" stroke-width="1" fill="none" fill-rule="evenodd" fill-opacity="0"/></g><g id="Accesories" transform="translate(88.000000, 86.000000) scale(1 1)" fill="#000"><g id="Accesories/None" stroke="none" stroke-width="1" fill="none" fill-rule="evenodd" fill-opacity="0"/></g><g id="Upper Body" transform="translate(-30.000000, 64.000000) scale(1 1)"><g id="Upper Body/Playing the Violin" stroke="none" stroke-width="1" fill="none" fill-rule="evenodd"><g id="Group-69" transform="translate(85.000000, 41.000000)"><path d="M60.395,24.9299 L98.299,53.4689 C112.02,61.8799 125.813,45.5169 134.962,48.6899 C148.463,53.3719 154.126,62.0099 145.067,71.5939 C145.067,71.5939 133.654,82.2299 119.283,88.2979 C80.623,104.6229 60.079,70.9199 60.079,70.9199 L60.395,24.9299 Z" id="Fill-1" fill="#ED9CF7"/><path d="M17.1307,99.8572 L17.4927,98.1762 C17.5697,97.8172 17.5757,97.4462 17.5107,97.0852 L6.1557,34.3582 C0.8737,11.5332 22.1707,3.3072 36.9807,10.2742 L55.3777,21.3702 C66.4567,28.5162 72.4477,41.2272 70.8307,54.1552 C69.7377,52.1472 69.8707,82.6032 72.2697,100.0512 C72.8667,104.3932 67.6487,105.6452 66.2487,105.6742 L18.7617,105.713901 C16.1837,105.7702 16.5967,102.3372 17.1307,99.8572" id="Fill-3" fill="#ED9CF7"/><polygon id="Fill-5" fill="#D1DDF0" points="55.1123 21.1862 60.1603 32.7042 61.9553 25.2652"/><path d="M72.5703,100.2833 L71.8943,100.3573 C70.4083,100.5213 69.0883,99.4163 68.9973,97.9243 C68.4063,88.2663 66.3583,55.8393 64.9583,46.7753 C63.2763,35.8793 60.3953,24.9303 60.3953,24.9303 L69.6993,32.8913 C69.6993,32.8913 73.6093,50.0783 72.8503,70.8903 C72.1523,90.0663 72.5703,96.9273 72.5703,100.2833" id="Fill-7" fill="#5A629D"/><path d="M49.9345,41.1468 C49.9345,41.1468 55.1605,62.7128 53.0515,85.2798 C52.1465,94.9668 43.5125,102.0608 33.8345,101.0648 L16.3195,99.5718 C16.3195,99.5718 -1.5375,21.2238 17.1695,9.2908 C17.1695,9.2908 47.5265,-3.5512 49.9345,41.1468" id="Fill-9" fill="#5A629D"/><polygon id="Fill-11" fill="#D1DDF0" points="36.6703 8.8171 34.7643 9.6021 47.1323 31.4351 53.9613 20.4921"/><path d="M54.7118,28.1954 C54.8398,29.0794 54.4748,29.8644 53.8958,29.9484 C53.3168,30.0324 52.7438,29.3834 52.6158,28.4994 C52.4868,27.6154 52.8528,26.8304 53.4318,26.7464 C54.0108,26.6624 54.5838,27.3114 54.7118,28.1954" id="Fill-13" fill="#643FE1"/><path d="M58.53,41.8291 C58.658,42.7131 58.293,43.4981 57.714,43.5821 C57.135,43.6661 56.562,43.0171 56.434,42.1331 C56.305,41.2491 56.671,40.4641 57.25,40.3801 C57.829,40.2961 58.402,40.9451 58.53,41.8291" id="Fill-15" fill="#643FE1"/><path d="M58.6196,96.4941 C58.5866,97.3871 58.0856,98.0931 57.5006,98.0711 C56.9166,98.0491 56.4696,97.3081 56.5026,96.4151 C56.5356,95.5221 57.0366,94.8161 57.6216,94.8381 C58.2056,94.8601 58.6526,95.6011 58.6196,96.4941" id="Fill-17" fill="#643FE1"/><path d="M60.1367,56.2213 C60.1877,57.1133 59.7557,57.8633 59.1717,57.8963 C58.5877,57.9303 58.0727,57.2343 58.0217,56.3423 C57.9707,55.4503 58.4027,54.7003 58.9867,54.6673 C59.5707,54.6333 60.0857,55.3293 60.1367,56.2213" id="Fill-19" fill="#643FE1"/><path d="M56.5556,31.5045 L59.5946,41.6985 C59.5946,41.6985 61.6776,48.4225 69.2206,49.5405 C83.8286,51.7045 92.1886,49.4025 91.3736,47.9835 C91.3736,47.9835 90.7076,45.3215 93.2196,43.6165 C95.7326,41.9105 107.6586,42.0505 108.1886,45.7245 C108.7956,49.9335 116.7616,47.4445 122.3556,48.5285 C127.9496,49.6125 142.1186,52.2085 147.3746,41.5105 C147.9206,40.4015 149.9006,37.2275 151.3026,36.4505 C156.2126,33.7315 160.3536,35.6595 160.485843,33.1675 C160.5476,31.9935 148.7436,29.3295 148.7436,29.3295 L56.5556,31.5045 Z" id="Fill-21" fill="#F85786"/><path d="M100.6852,16.5327 L103.1762,16.9517 C102.4052,18.9687 104.6432,19.5357 106.6462,19.8217 C122.4612,22.0857 117.6662,17.5807 119.3012,17.5927 C119.3012,17.5927 122.0782,19.2487 135.4562,19.6507 C147.1612,20.0027 148.7442,29.3297 148.7442,29.3297 C148.7442,29.3297 149.3312,37.9617 139.5692,40.5917 C127.2102,43.9217 116.6442,36.0007 111.6902,39.1987 C108.2162,41.4407 111.7862,36.1647 105.7522,35.1637 C96.1322,33.5667 90.4192,36.5257 90.1802,39.3647 C90.1802,39.3647 54.3032,44.8967 56.3212,28.7837 C58.7202,9.6247 87.9932,15.7447 100.6852,16.5327" id="Fill-23" fill="#FF9B8F"/><path d="M106.582,21.9882 C106.4,21.9882 106.166,21.9472 105.862,21.8402 C105.732,21.7942 105.664,21.6512 105.711,21.5202 C105.758,21.3902 105.899,21.3212 106.03,21.3692 C106.489,21.5322 106.693,21.4902 106.73,21.4632 C106.711,21.4562 106.598,21.2942 106.286,21.1842 C105.801,21.0142 104.247,20.8392 102.743,20.6682 C101.668,20.5462 100.651,20.4312 99.968,20.3142 C98.325,20.0332 96.766,19.6632 96.484,18.8632 C96.353,18.4942 96.467,18.2682 96.586,18.1432 C97.083,17.6192 98.632,18.0272 99.094,18.1652 C99.227,18.2042 99.302,18.3432 99.262,18.4762 C99.223,18.6082 99.083,18.6832 98.951,18.6442 C98.14,18.4032 97.14,18.2822 96.948,18.4882 C96.908,18.5302 96.93,18.6252 96.955,18.6972 C97.179,19.3302 99.341,19.7002 100.052,19.8212 C100.722,19.9362 101.778,20.0552 102.8,20.1712 C104.401,20.3532 105.913,20.5242 106.452,20.7132 C106.864,20.8572 107.152,21.1232 107.206,21.4062 C107.237,21.5752 107.183,21.7342 107.055,21.8432 C106.965,21.9202 106.818,21.9882 106.582,21.9882" id="Fill-25" fill="#443389"/><path d="M111.7479,27.0076 L112.8949,24.4356 C113.3599,23.3916 114.4659,22.7886 115.5959,22.9626 L175.0009,32.1276 C179.4609,33.0356 187.328563,37.3286 187.328563,37.3286 C187.3749,38.1396 184.9089,41.8496 184.1029,41.7526 L170.4299,35.3326 L112.9599,29.0826 C111.9529,28.9876 111.3359,27.9316 111.7479,27.0076" id="Fill-27" fill="#443389"/><path d="M57.046,25.231 L87.389,26.837 C88.128,26.859 89.91,26.433 90.108,25.346 L91.509,22.518 C91.727,21.584 90.853,21.073 89.897,21.131 L59.336,21.224 L58.901,21.776 C58.006,22.649 57.643,23.696 57.19,24.861 L57.046,25.231 Z" id="Fill-29" fill="#443389"/><g id="Group-33" transform="translate(170.000000, 30.633000)" fill="#FF9B8F"><path d="M0.4303,4.7 L1.6963,7.035 C2.2983,7.531 3.3183,9.255 6.8263,10.418 C16.2753,13.552 17.6073,16.219 21.3323,15.708 C28.1873,14.768 29.4333,5.926 24.4663,2.585 C18.0083,-1.758 14.9883,3.183 14.4543,4.821 C14.3523,5.133 14.2583,6.153 14.2583,6.927 C14.2573,8.288 11.9633,8.394 10.7343,7.809 L7.7123,6.372 C5.7793,5 2.6373,4.77 0.4303,4.7" id="Fill-31"/></g><path d="M180.6918,44.023 C180.1738,45.127 178.8578,45.602 177.7538,45.084 C176.6498,44.565 176.1748,43.25 176.6928,42.146 C177.2108,41.041 178.5268,40.567 179.6308,41.085 C180.7348,41.603 181.2098,42.919 180.6918,44.023" id="Fill-36" fill="#443389"/><path d="M179.1581,42.8842 L178.8621,42.8382 C178.3461,42.7592 177.9921,42.2752 178.0711,41.7582 L178.2831,40.3892 C178.3631,39.8732 178.8461,39.5182 179.3631,39.5982 L179.6591,39.6442 C180.1751,39.7242 180.5291,40.2072 180.4491,40.7242 L180.2381,42.0932 C180.1581,42.6102 179.6751,42.9642 179.1581,42.8842" id="Fill-38" fill="#443389"/><path d="M187.1745,46.5787 C186.6565,47.6827 185.3405,48.1577 184.2365,47.6397 C183.1325,47.1207 182.6575,45.8057 183.1755,44.7017 C183.6935,43.5967 185.0095,43.1227 186.1135,43.6407 C187.2175,44.1587 187.6925,45.4747 187.1745,46.5787" id="Fill-40" fill="#443389"/><path d="M100.6332,20.6409 L100.5352,20.6519 C99.7152,20.7459 98.9992,21.2489 98.6342,21.9899 L97.1252,25.0509 C96.6272,26.0599 96.6432,27.2449 97.1682,28.2399 L97.2572,28.4089 C97.5082,28.8859 98.2002,28.8559 98.4092,28.3599 L101.2972,21.5279 C101.4882,21.0759 101.1212,20.5849 100.6332,20.6409" id="Fill-44" fill="#FFC1FF"/><polygon id="Fill-46" fill="#8069FF" points="184.1698 37.7939 175.3128 34.4409 98.5198 25.4779 78.4978 24.6939 78.5178 24.1939 98.5588 24.9789 175.4308 33.9589 184.3478 37.3259"/><polygon id="Fill-48" fill="#8069FF" points="184.4413 36.8022 175.6083 33.4442 98.8263 23.7962 80.6713 23.0862 80.6913 22.5862 98.8673 23.2982 175.7283 32.9622 184.6193 36.3342"/><polygon id="Fill-50" fill="#8069FF" points="184.4706 36.1098 176.5226 32.7868 99.7096 22.3588 81.2436 21.9258 81.2556 21.4258 99.7486 21.8608 176.6856 32.3128 184.6636 35.6488"/><path d="M90.7538,32.8525 C90.0458,32.8525 88.7048,32.7555 88.2348,32.0565 C88.0058,31.7155 88.0098,31.2975 88.2458,30.8135 C88.9298,29.4155 91.6748,29.6995 92.9928,29.8365 C93.8758,29.9285 95.1648,30.1675 96.5288,30.4215 C98.3448,30.7585 100.4038,31.1425 101.0578,31.0535 C101.4568,30.9995 101.6808,30.7805 101.7508,30.6095 C101.7788,30.5395 101.7988,30.4395 101.7328,30.3545 C101.6858,30.2965 101.4828,30.1155 100.8378,30.2075 C100.7038,30.2255 100.5738,30.1315 100.5558,29.9955 C100.5358,29.8585 100.6308,29.7315 100.7678,29.7125 C101.5828,29.5935 101.9578,29.8305 102.1268,30.0475 C102.2908,30.2575 102.3218,30.5315 102.2138,30.7975 C102.0528,31.1925 101.6358,31.4795 101.1238,31.5485 C100.3928,31.6495 98.4708,31.2905 96.4388,30.9135 C95.1438,30.6725 93.8038,30.4235 92.9418,30.3335 C91.8288,30.2175 89.2248,29.9475 88.6948,31.0335 C88.4658,31.5025 88.6048,31.7095 88.6498,31.7775 C88.9918,32.2855 90.3688,32.3955 91.1498,32.3405 C91.3008,32.3355 91.4058,32.4355 91.4148,32.5735 C91.4248,32.7115 91.3198,32.8305 91.1828,32.8395 C91.1268,32.8435 90.9698,32.8525 90.7538,32.8525" id="Fill-52" fill="#443389"/><path d="M142.0832,0.8049 L142.5662,2.9049 C142.5692,3.0129 143.2322,5.7529 143.1872,5.8479 L142.1342,6.5999 L141.3522,5.0269 L86.2392,121.7749 C86.2202,121.8149 88.0122,121.5719 88.0122,121.5719 C88.2062,121.8069 87.8632,122.6959 87.7952,122.7409 L84.1322,123.5019 C83.4722,123.9359 82.5482,123.2109 82.8762,122.5159 L140.5212,0.4069 C140.8612,-0.3151 142.0602,-0.0091 142.0832,0.8049" id="Fill-54" fill="#443389"/><path d="M142.2533,6.2682 L143.1873,5.8482 L88.3763,121.8882 L87.8773,122.6942 C87.6363,122.8522 87.1343,122.4622 87.4673,121.7552 L141.6693,7.0442 C141.8573,6.6452 141.9813,6.3412 142.2533,6.2682" id="Fill-56" fill="#B9C8FF"/><path d="M134.0838,53.0422 L140.4818,48.9492 L147.9478,36.9802 C147.9478,36.9802 150.4058,27.5852 153.0518,27.6942 C156.1688,27.8242 153.8468,32.3462 153.8828,35.7922 C153.8898,36.4052 154.7398,36.6822 155.0898,36.1892 L157.0258,29.5372 C157.7318,27.7902 160.1058,27.3082 161.6858,28.6152 C163.6318,30.2262 165.8258,32.9882 166.6228,37.5402 C167.0918,40.2182 165.6878,47.2062 161.3708,51.3322 C156.8938,55.6122 151.7748,60.6792 144.2598,65.4512 C144.2598,65.4512 139.6998,67.2322 135.5078,63.6592 C132.3388,60.9572 130.9268,54.3232 134.0838,53.0422" id="Fill-58" fill="#e1e4e7"/><path d="M77.4058,70.9325 L109.6198,73.3705 C113.9308,73.0645 116.6878,78.7885 114.9058,82.3545 L113.0908,85.8135 C113.9118,89.0925 112.8738,92.9195 109.8528,96.1275 L104.6028,100.5095 C102.3478,102.8935 102.3058,104.7485 100.2648,103.2255 L98.6348,101.6465 C97.2698,98.6555 101.5068,95.4425 97.0538,94.0705 L72.4368,88.2645 L77.4058,70.9325 Z" id="Fill-60" fill="#e1e4e7"/><path d="M86.2024,70.541 L74.9264,70.164 L78.5074,92.762 L88.9404,92.762 C88.9404,92.762 92.1434,76.695 86.2024,70.541" id="Fill-62" fill="#D1DDF0"/><g id="Group-66" transform="translate(0.000000, 7.633000)" fill="#FFC1FF"><path d="M23.855,0.5285 C23.855,0.5285 7.651,-1.2015 1.919,20.4635 C-1.518,33.4525 0.186,52.4935 2.933,59.9805 C7.589,72.6725 15.461,81.2025 29.816,87.2555 C46.826,94.4285 73.13,89.8975 78.436,88.8875 C86.758,87.3045 82.778,68.5595 80.2,62.0975 C75.759,50.9605 39.932,69.6685 30.694,33.7305 C26.319,16.7065 29.46,3.6395 23.855,0.5285" id="Fill-64"/></g><path d="M137.9186,49.3456 L132.3076,53.6456 C132.3076,53.6456 130.1056,59.7796 134.9076,64.2886 C138.4856,67.6486 143.0516,68.2116 145.0756,66.9586 C147.0996,65.7066 150.3656,62.5316 150.3656,62.5316 L150.4246,61.1046 C150.4246,61.1046 145.3206,65.7316 139.6536,59.4866 C135.2676,54.6526 138.8226,50.0106 138.8226,50.0106 L137.9186,49.3456 Z" id="Fill-67" fill="#D1DDF0"/></g></g></g></g></g><g id="Musical Notes" transform="translate(485.000000, 132.000000) scale(1 1)"><g id="Musical Notes/Melody 1" stroke="none" stroke-width="1" fill="none" fill-rule="evenodd"><g id="Musical-Notes"><g id="Group-3" transform="translate(88.000000, 80.436000)" fill="#D1DDF0"><path d="M1.0773,24.7207 C1.0833,24.7057 1.0943,24.6937 1.1003,24.6787 L1.1003,0.1457 L23.1893,2.9847 L23.1893,27.0537 C24.3923,26.1777 26.3453,25.9977 28.2553,26.7387 C30.8743,27.7537 32.4083,30.0977 31.6803,31.9747 C30.9533,33.8507 28.2403,34.5487 25.6213,33.5337 C23.6623,32.7747 22.3113,31.2707 22.0603,29.7757 L21.9733,29.7757 L21.9733,7.2227 L2.3173,4.6967 L2.3173,23.3237 C3.5303,22.5897 5.3473,22.4677 7.1363,23.1607 C9.7553,24.1767 11.2883,26.5207 10.5613,28.3967 C9.8333,30.2737 7.1213,30.9717 4.5023,29.9567 C1.8833,28.9417 0.3503,26.5977 1.0773,24.7207" id="Fill-1"/></g><g id="Group-6" transform="translate(60.000000, 0.436000)" fill="#B9C8FF"><path d="M0.369,25.1382 C0.375,25.1232 0.386,25.1112 0.392,25.0962 L0.392,0.5632 L22.481,3.4022 L22.481,27.4712 C23.684,26.5952 25.637,26.4152 27.547,27.1562 C30.166,28.1712 31.7,30.5152 30.972,32.3922 C30.245,34.2682 27.532,34.9662 24.913,33.9512 C22.954,33.1922 21.603,31.6882 21.352,30.1932 L21.265,30.1932 L21.265,7.6402 L1.609,5.1142 L1.609,23.7412 C2.822,23.0072 4.639,22.8852 6.428,23.5782 C9.047,24.5942 10.58,26.9382 9.853,28.8142 C9.125,30.6912 6.413,31.3892 3.794,30.3742 C1.175,29.3592 -0.358,27.0152 0.369,25.1382" id="Fill-4"/></g><path d="M38.2986,49.5159 L47.0106,51.1389 L47.0106,75.2069 C48.2136,74.3319 50.1656,74.1509 52.0766,74.8919 C54.6956,75.9069 56.2286,78.2519 55.5016,80.1279 C54.7736,82.0049 52.0616,82.7029 49.4426,81.6879 C47.4836,80.9279 46.1326,79.4239 45.8806,77.9289 L45.7946,77.9289 L45.7946,55.3769 C45.7946,55.3769 39.6516,54.6999 38.2986,49.5159" id="Fill-7" fill="#FFC1FF"/><path d="M0,29.0618 L8.712,30.6848 L8.712,54.7528 C9.915,53.8778 11.867,53.6968 13.778,54.4378 C16.397,55.4528 17.93,57.7978 17.203,59.6738 C16.475,61.5508 13.763,62.2488 11.144,61.2338 C9.185,60.4738 7.834,58.9698 7.582,57.4748 L7.496,57.4748 L7.496,34.9228 C7.496,34.9228 1.353,34.2458 0,29.0618" id="Fill-9" fill="#8069FF"/></g></g></g><g transform="translate(112.000000, 140.000000) scale(1 1)" id="Master/Character/Standing"><g id="Master/Character/Standing" stroke="none" stroke-width="1" fill="none" fill-rule="evenodd"><g id="Head" transform="translate(64.000000, 9.000000) scale(1 1)"><g id="Head/Headphones" stroke="none" stroke-width="1" fill="none" fill-rule="evenodd"><g id="Group-26" transform="translate(61.000000, 5.000000)"><polygon id="Fill-1" fill="#b67831" points="32.7582 47.1623 32.7582 77.1073 54.0052 81.8263 47.1352 47.1623"/><path d="M52.2671,73.0384 L51.3831,68.6084 L36.1281,55.0774 C36.1281,55.0774 38.6101,63.2134 43.7671,67.2184 C47.5661,70.1694 52.2671,73.0384 52.2671,73.0384" id="Fill-2" fill="#8f5830"/><path d="M52.2226,68.6511 L52.2226,68.6511 C42.4286,68.6511 34.9766,57.3801 34.9766,50.1261 L34.9766,32.3011 C34.9766,25.0471 41.2476,23.0211 49.1696,23.0211 C57.0926,23.0211 60.6436,24.4791 62.4316,27.2751 L62.7046,51.9421 C62.7046,61.1861 60.1456,68.6511 52.2226,68.6511" id="Fill-4" fill="#b67831"/><path d="M28.9946,49.6193 L28.3506,47.9583 C27.4656,45.6743 28.5996,43.1043 30.8836,42.2183 L30.8836,42.2183 C33.1686,41.3333 35.7386,42.4673 36.6236,44.7513 L37.2676,46.4123 C38.1536,48.6973 37.0196,51.2663 34.7346,52.1523 L34.7346,52.1523 C32.4506,53.0383 29.8806,51.9043 28.9946,49.6193" id="Fill-6" fill="#b67831"/><path d="M30.2073,47.8421 C30.0693,47.8421 29.9323,47.7851 29.8333,47.6741 C29.7453,47.5751 29.7043,47.4511 29.7073,47.3291 C29.5913,46.1661 29.8123,45.2771 30.3603,44.6331 C30.8963,44.0041 31.7093,43.6541 32.7763,43.5921 C33.0943,43.5791 33.2883,43.7881 33.3043,44.0621 C33.3193,44.3381 33.1093,44.5741 32.8333,44.5901 C32.0503,44.6351 31.4743,44.8681 31.1223,45.2811 C30.5683,45.9311 30.6663,46.8801 30.6983,47.1921 C30.7153,47.3521 30.6593,47.6091 30.5393,47.7161 C30.4433,47.8001 30.3253,47.8421 30.2073,47.8421" id="Fill-8" fill="#8f5830"/><path d="M29.1714,20.5819 C29.1714,27.9009 32.2914,24.1119 24.9724,24.1119 C17.6534,24.1119 5.5774,27.9799 1.9004,21.6519 C-5.6126,8.7219 10.9214,-2.5971 20.6634,0.5229 C32.0084,4.1579 29.1714,13.2629 29.1714,20.5819" id="Fill-10" fill="#7d3b58"/><path d="M62.9964,27.3218 C61.0694,12.8798 41.9334,7.1688 24.7864,19.3328 C16.1364,25.4688 12.2484,34.5338 16.2494,47.0228 C21.5854,63.6788 32.7584,59.8958 32.7584,59.8958 L32.7584,52.4328 C32.7584,52.4328 32.7474,52.4268 32.7304,52.4168 C31.1074,52.2678 29.6234,51.2428 28.9944,49.6188 L28.3504,47.9588 C27.4654,45.6738 28.5994,43.1038 30.8834,42.2188 L30.8834,42.2188 L30.8844,42.2188 C30.8914,42.2108 30.8964,42.2038 30.9044,42.1968 C30.8914,42.2098 30.8844,42.2188 30.8844,42.2188 L30.8844,42.2188 C30.8864,42.2178 31.1624,42.1098 31.5944,42.0218 C31.6994,42.0008 31.8034,41.9828 31.9084,41.9688 C33.0554,41.8058 34.9114,41.9218 36.1544,43.8728 C36.1844,43.9168 36.2154,43.9588 36.2434,44.0038 C36.3784,44.2298 36.5064,44.4768 36.6244,44.7518 C36.6244,44.7518 39.9204,41.0258 39.9204,36.8138 C39.9204,32.6008 41.3544,29.6848 45.4044,29.1988 C49.4554,28.7128 52.4884,32.0798 58.8854,25.6108 C61.0484,23.4238 62.4704,28.4288 62.4704,30.7628 C62.4704,33.0618 63.2874,29.5028 62.9964,27.3218" id="Fill-12" fill="#7d3b58"/><path d="M18.261,25.2283 C18.106,25.2283 17.949,25.1923 17.801,25.1163 C17.311,24.8613 17.12,24.2583 17.374,23.7683 C17.503,23.5193 20.627,17.6353 28.271,14.8783 C28.788,14.6933 29.364,14.9603 29.55,15.4793 C29.738,15.9993 29.468,16.5723 28.949,16.7603 C22.033,19.2533 19.178,24.6343 19.15,24.6883 C18.972,25.0323 18.622,25.2283 18.261,25.2283" id="Fill-15" fill="#5A629D"/><path d="M45.5802,12.7437 C45.5802,12.7437 30.9682,13.3147 33.2772,38.9657 L31.1022,41.8987 L26.9252,40.6367 C26.9252,40.6367 20.7762,19.5587 36.6062,13.4767 C41.8972,12.3497 42.5482,12.1207 44.1012,12.2117 C45.6532,12.3017 45.5802,12.7437 45.5802,12.7437" id="Fill-17" fill="#443389"/><path d="M39.9538,45.277 C39.9538,49.952 36.1638,53.743 31.4878,53.743 C26.8128,53.743 23.0228,49.952 23.0228,45.277 C23.0228,40.602 26.8128,36.811 31.4878,36.811 C36.1638,36.811 39.9538,40.602 39.9538,45.277" id="Fill-19" fill="#ED9CF7"/><path d="M38.2569,45.0189 C38.2569,49.6939 34.8469,53.4849 30.6399,53.4849 C26.4329,53.4849 23.0219,49.6939 23.0219,45.0189 C23.0219,40.3439 26.4329,36.5529 30.6399,36.5529 C34.8469,36.5529 38.2569,40.3439 38.2569,45.0189" id="Fill-21" fill="#FFC1FF"/><path d="M34.5171,44.7929 C34.5171,47.4599 32.5711,49.6229 30.1711,49.6229 C27.7711,49.6229 25.8261,47.4599 25.8261,44.7929 C25.8261,42.1259 27.7711,39.9629 30.1711,39.9629 C32.5711,39.9629 34.5171,42.1259 34.5171,44.7929" id="Fill-23" fill="#443389"/></g></g></g><g id="Expression" transform="translate(164.000000, 42.000000) scale(1 1)"><g id="Expression/Relax" stroke="none" stroke-width="1" fill="none" fill-rule="evenodd"><g id="Group-17" transform="translate(6.000000, 9.000000)"><path d="M0.9999,3.5256 C0.7589,3.5256 0.5169,3.4396 0.3249,3.2636 C-0.0791,2.8926 -0.1111,2.2676 0.2569,1.8596 C0.3609,1.7446 2.8689,-0.9674 7.0909,0.3696 C7.6169,0.5356 7.9089,1.0976 7.7419,1.6246 C7.5759,2.1506 7.0159,2.4446 6.4869,2.2766 C3.5289,1.3396 1.8069,3.1306 1.7349,3.2066 C1.5379,3.4186 1.2699,3.5256 0.9999,3.5256" id="Fill-1" fill="#7d3b58"/><path d="M15.1122,3.6828 C14.8192,3.6828 14.5302,3.5548 14.3332,3.3108 C14.2832,3.2558 13.9292,2.8988 13.1492,2.9898 C12.5852,3.0608 12.1032,2.6608 12.0402,2.1128 C11.9752,1.5638 12.3692,1.0678 12.9172,1.0038 C14.8602,0.7738 15.8032,1.9418 15.9062,2.0758 C16.2412,2.5148 16.1572,3.1418 15.7182,3.4768 C15.5372,3.6158 15.3242,3.6828 15.1122,3.6828" id="Fill-3" fill="#7d3b58"/><path d="M4.8085,12.6931 C3.9215,12.6931 3.0185,12.1761 2.1185,11.1511 C1.9365,10.9441 1.9565,10.6281 2.1635,10.4461 C2.3705,10.2641 2.6865,10.2841 2.8705,10.4911 C3.6305,11.3581 4.3265,11.7541 4.9605,11.6841 C5.8175,11.5811 6.3395,10.6011 6.3445,10.5911 C6.4735,10.3471 6.7735,10.2521 7.0185,10.3791 C7.2635,10.5051 7.3595,10.8051 7.2335,11.0501 C7.2035,11.1091 6.4715,12.5051 5.0875,12.6761 C4.9955,12.6871 4.9015,12.6931 4.8085,12.6931" id="Fill-6" fill="#8f5830"/><path d="M14.1874,13.2067 C13.4024,13.2067 12.8924,12.2597 12.5754,11.5367 C12.4644,11.2837 12.5794,10.9887 12.8324,10.8767 C13.0864,10.7687 13.3804,10.8807 13.4914,11.1337 C13.9284,12.1317 14.1974,12.2067 14.2004,12.2067 C14.3204,12.1567 14.5834,11.6537 14.6964,11.2107 C14.7654,10.9437 15.0414,10.7817 15.3044,10.8507 C15.5724,10.9197 15.7334,11.1917 15.6654,11.4597 C15.5644,11.8507 15.1664,13.1307 14.2684,13.2037 C14.2414,13.2057 14.2134,13.2067 14.1874,13.2067" id="Fill-8" fill="#8f5830"/><g id="Group-12" transform="translate(7.000000, 20.007800)" fill="#F85786"><path d="M0.4042,0.6701 C0.4042,3.0611 1.8582,5.0001 3.6512,5.0001 C5.4452,5.0001 6.8992,3.0611 6.8992,0.6701" id="Fill-10"/></g><path d="M13.899,20.2976 C13.899,19.1016 13.147,18.1326 12.219,18.1326 C11.291,18.1326 10.539,19.1016 10.539,20.2976" id="Fill-13" fill="#F85786"/><path d="M10.764,20.2976 C10.764,19.1016 10.012,18.1326 9.084,18.1326 C8.156,18.1326 7.404,19.1016 7.404,20.2976" id="Fill-15" fill="#F85786"/></g></g></g><g id="Beard" transform="translate(154.000000, 58.000000) scale(1 1)" fill="#000"><g id="Beard/None" stroke="none" stroke-width="1" fill="none" fill-rule="evenodd" fill-opacity="0"/></g><g id="Accesories" transform="translate(152.000000, 50.000000) scale(1 1)"><g id="Accesories/None" stroke="none" stroke-width="1" fill="none" fill-rule="evenodd" fill-opacity="0"/></g><g id="Standing/Lower Body" transform="translate(14.000000, 164.000000) scale(1 1)"><g id="Standing/Lower Body/Shorts" stroke="none" stroke-width="1" fill="none" fill-rule="evenodd"><g id="Group-46" transform="translate(56.000000, 0.000000)"><path d="M107.6305,102.0744 L133.3015,56.0414 L193.9155,201.3464 L179.0035,223.2124 L141.5465,217.9714 C133.5565,216.3884 127.7265,211.2214 126.2335,202.1934 L107.6305,102.0744 Z" id="Fill-1" fill="#b67831"/><path d="M50.7816,88.4206 L101.1856,72.0756 L64.3046,224.3316 L26.4736,221.3956 L18.9686,219.1546 C10.0166,217.0436 6.4416,207.0736 10.6786,198.9116 L50.7816,88.4206 Z" id="Fill-3" fill="#b67831"/><path d="M106.6877,230.0221 L3.0137,227.5761 L3.6657,221.3871 C4.1537,216.7541 8.1177,213.2771 12.7737,213.4011 C25.0527,213.7301 62.8987,214.2091 64.6237,213.5081 L74.3677,182.7861 C112.5937,189.4101 106.6877,230.0221 106.6877,230.0221" id="Fill-5" fill="#B9C8FF"/><path d="M64.5461,213.5259 C62.1871,214.1999 24.9401,213.7269 12.7741,213.4009 C9.0731,213.3019 5.8171,215.4819 4.3881,218.7049 L59.9571,218.7049 C61.7741,218.7049 63.3731,217.5079 63.8871,215.7649 L64.5461,213.5259 Z" id="Fill-7" fill="#8069FF"/><path d="M66.3929,227.6533 C66.3429,227.6533 66.2909,227.6463 66.2419,227.6303 C65.9779,227.5463 65.8319,227.2643 65.9159,227.0013 L66.3719,225.5723 C66.4559,225.3103 66.7399,225.1633 66.9989,225.2483 C67.2629,225.3323 67.4089,225.6133 67.3249,225.8763 L66.8699,227.3053 C66.8009,227.5173 66.6049,227.6533 66.3929,227.6533" id="Fill-9" fill="#8069FF"/><path d="M77.1946,193.7984 C77.1446,193.7984 77.0926,193.7914 77.0426,193.7744 C76.7796,193.6904 76.6336,193.4094 76.7176,193.1464 L77.6596,190.1984 C77.7436,189.9364 78.0236,189.7884 78.2886,189.8744 C78.5506,189.9584 78.6966,190.2394 78.6126,190.5034 L77.6716,193.4504 C77.6026,193.6634 77.4066,193.7984 77.1946,193.7984 M75.3136,199.6944 C75.2636,199.6944 75.2126,199.6874 75.1616,199.6714 C74.8986,199.5874 74.7536,199.3054 74.8376,199.0424 L75.7776,196.0944 C75.8626,195.8324 76.1406,195.6844 76.4066,195.7704 C76.6696,195.8544 76.8146,196.1354 76.7306,196.3984 L75.7906,199.3464 C75.7216,199.5594 75.5256,199.6944 75.3136,199.6944 M73.4326,205.5904 C73.3826,205.5904 73.3316,205.5824 73.2806,205.5664 C73.0176,205.4824 72.8726,205.2014 72.9566,204.9384 L73.8966,201.9904 C73.9806,201.7274 74.2566,201.5804 74.5256,201.6654 C74.7886,201.7494 74.9336,202.0304 74.8496,202.2944 L73.9096,205.2414 C73.8406,205.4544 73.6446,205.5904 73.4326,205.5904 M71.5516,211.4854 C71.5026,211.4854 71.4506,211.4784 71.3996,211.4624 C71.1366,211.3784 70.9916,211.0964 71.0756,210.8334 L72.0156,207.8854 C72.1006,207.6234 72.3796,207.4774 72.6446,207.5614 C72.9076,207.6454 73.0526,207.9264 72.9686,208.1894 L72.0286,211.1374 C71.9606,211.3494 71.7636,211.4854 71.5516,211.4854 M69.6706,217.3814 C69.6206,217.3814 69.5686,217.3734 69.5176,217.3574 C69.2556,217.2734 69.1096,216.9924 69.1936,216.7294 L70.1336,213.7814 C70.2186,213.5194 70.4956,213.3714 70.7626,213.4564 C71.0256,213.5404 71.1716,213.8214 71.0876,214.0854 L70.1466,217.0324 C70.0786,217.2454 69.8826,217.3814 69.6706,217.3814 M67.7896,223.2764 C67.7396,223.2764 67.6876,223.2694 67.6366,223.2534 C67.3746,223.1694 67.2286,222.8874 67.3126,222.6244 L68.2536,219.6764 C68.3376,219.4144 68.6176,219.2674 68.8816,219.3524 C69.1446,219.4364 69.2906,219.7174 69.2066,219.9804 L68.2656,222.9284 C68.1976,223.1404 68.0016,223.2764 67.7896,223.2764" id="Fill-11" fill="#8069FF"/><path d="M79.0765,187.9038 C79.0255,187.9038 78.9745,187.8968 78.9245,187.8798 C78.6615,187.7958 78.5155,187.5148 78.5995,187.2518 L79.0565,185.8218 C79.1415,185.5588 79.4255,185.4118 79.6855,185.4988 C79.9485,185.5828 80.0945,185.8638 80.0105,186.1268 L79.5535,187.5558 C79.4845,187.7688 79.2885,187.9038 79.0765,187.9038" id="Fill-13" fill="#8069FF"/><polygon id="Fill-15" fill="#E1C321" points="1.4311 224.9955 0.0001 232.5015 108.9011 232.5015 108.9011 225.6495"/><path d="M219.946,230.0221 L122.272,227.5761 L122.924,221.3871 C123.412,216.7541 127.376,213.2771 132.032,213.4011 C144.311,213.7301 175.157,214.2091 176.882,213.5081 L186.429,182.7861 C226.038,189.0001 219.946,230.0221 219.946,230.0221" id="Fill-17" fill="#B9C8FF"/><path d="M176.8824,213.5076 C174.5234,214.1816 144.3864,213.7646 132.2204,213.4386 C128.5194,213.3396 125.2634,215.5196 123.8344,218.7416 L172.4034,218.7416 C174.2204,218.7416 175.8194,217.5456 176.3334,215.8026 L176.8824,213.5076 Z" id="Fill-19" fill="#8069FF"/><path d="M179.3929,227.6533 C179.3429,227.6533 179.2909,227.6463 179.2419,227.6303 C178.9779,227.5463 178.8319,227.2643 178.9159,227.0013 L179.3719,225.5723 C179.4559,225.3103 179.7359,225.1633 179.9989,225.2483 C180.2629,225.3323 180.4089,225.6133 180.3249,225.8763 L179.8699,227.3053 C179.8009,227.5173 179.6049,227.6533 179.3929,227.6533" id="Fill-21" fill="#8069FF"/><path d="M190.1946,193.7984 C190.1446,193.7984 190.0926,193.7914 190.0426,193.7744 C189.7796,193.6904 189.6336,193.4094 189.7176,193.1464 L190.6596,190.1984 C190.7436,189.9364 191.0196,189.7884 191.2886,189.8744 C191.5506,189.9584 191.6966,190.2394 191.6126,190.5034 L190.6716,193.4504 C190.6026,193.6634 190.4066,193.7984 190.1946,193.7984 M188.3136,199.6944 C188.2636,199.6944 188.2126,199.6874 188.1616,199.6714 C187.8986,199.5874 187.7536,199.3054 187.8376,199.0424 L188.7776,196.0944 C188.8626,195.8324 189.1416,195.6844 189.4066,195.7704 C189.6696,195.8544 189.8146,196.1354 189.7306,196.3984 L188.7906,199.3464 C188.7216,199.5594 188.5256,199.6944 188.3136,199.6944 M186.4326,205.5904 C186.3826,205.5904 186.3316,205.5824 186.2806,205.5664 C186.0176,205.4824 185.8726,205.2014 185.9566,204.9384 L186.8966,201.9904 C186.9816,201.7274 187.2576,201.5804 187.5256,201.6654 C187.7886,201.7494 187.9336,202.0304 187.8496,202.2944 L186.9096,205.2414 C186.8406,205.4544 186.6446,205.5904 186.4326,205.5904 M184.5516,211.4854 C184.5026,211.4854 184.4506,211.4784 184.3996,211.4624 C184.1366,211.3784 183.9916,211.0964 184.0756,210.8334 L185.0156,207.8854 C185.0996,207.6234 185.3806,207.4774 185.6446,207.5614 C185.9076,207.6454 186.0526,207.9264 185.9686,208.1894 L185.0286,211.1374 C184.9606,211.3494 184.7636,211.4854 184.5516,211.4854 M182.6706,217.3814 C182.6206,217.3814 182.5686,217.3734 182.5176,217.3574 C182.2556,217.2734 182.1096,216.9924 182.1936,216.7294 L183.1336,213.7814 C183.2186,213.5194 183.4966,213.3714 183.7626,213.4564 C184.0256,213.5404 184.1716,213.8214 184.0876,214.0854 L183.1466,217.0324 C183.0786,217.2454 182.8826,217.3814 182.6706,217.3814 M180.7896,223.2764 C180.7396,223.2764 180.6876,223.2694 180.6366,223.2534 C180.3746,223.1694 180.2286,222.8874 180.3126,222.6244 L181.2536,219.6764 C181.3376,219.4144 181.6136,219.2674 181.8816,219.3524 C182.1446,219.4364 182.2906,219.7174 182.2066,219.9804 L181.2656,222.9284 C181.1976,223.1404 181.0016,223.2764 180.7896,223.2764" id="Fill-23" fill="#8069FF"/><path d="M192.0765,187.9038 C192.0255,187.9038 191.9745,187.8968 191.9245,187.8798 C191.6615,187.7958 191.5155,187.5148 191.5995,187.2518 L192.0565,185.8218 C192.1415,185.5588 192.4245,185.4118 192.6855,185.4988 C192.9485,185.5828 193.0945,185.8638 193.0105,186.1268 L192.5535,187.5558 C192.4845,187.7688 192.2885,187.9038 192.0765,187.9038" id="Fill-25" fill="#8069FF"/><g id="Group-29" transform="translate(118.000000, 224.502000)" fill="#E1C321"><polygon id="Fill-27" points="1.6894 0.4935 0.2584 7.9995 104.1594 7.9995 104.1594 1.1475"/></g><polygon id="Fill-30" fill="#643FE1" points="108.6302 119.9568 162.2662 116.9568 117.1762 12.0608 94.9792 52.8498"/><g id="Group-34" transform="translate(37.000000, 0.502000)" fill="#8069FF"><path d="M33.3485,11.5584 L27.1005,27.5224 C24.0925,34.9514 27.9615,41.2234 27.9615,41.2234 L0.3545,116.4544 L56.6955,119.4544 L80.1755,11.5584 C80.1755,11.5584 75.8955,0.4974 55.9845,0.4974 C36.0735,0.4974 33.3485,11.5584 33.3485,11.5584" id="Fill-32"/></g><path d="M47.1404,94.6668 C47.1404,94.6668 40.9764,92.6958 38.5124,96.9198 C36.0484,101.1448 38.9474,105.9318 36.3554,111.2128 C33.7624,116.4938 32.2584,119.6618 36.3554,120.1898 C40.4514,120.7178 93.0974,121.8118 94.8194,121.2458 C98.7434,119.9568 97.3484,111.3328 98.0054,107.7978 C98.6614,104.2628 101.6934,97.6808 97.5044,96.4488 C93.3154,95.2168 65.4464,96.2508 47.1404,94.6668" id="Fill-35" fill="#F85786"/><path d="M108.8127,96.7422 C108.8127,96.7422 103.9187,96.7962 103.2667,99.3832 C102.2257,103.5172 103.5037,106.0122 104.6307,112.2602 C105.6417,117.8742 104.5867,121.2292 107.9957,121.7572 C111.4047,122.2852 161.1027,119.2742 162.2537,118.0192 C165.0617,114.9562 160.0417,109.1222 159.2807,105.6262 C158.1677,100.5152 160.6937,95.6242 154.4127,94.2042 C150.7607,93.3782 127.0347,95.4592 108.8127,96.7422" id="Fill-37" fill="#F85786"/><polygon id="Fill-39" fill="#B9C8FF" points="60.8186 95.5332 59.8616 95.2402 83.2126 19.0012 84.1696 19.2942"/><path d="M79.2757,35.1392 L79.0567,34.1632 C79.1927,34.1332 92.7217,30.9492 98.1107,18.1222 L99.0327,18.5102 C93.4397,31.8222 79.4167,35.1072 79.2757,35.1392" id="Fill-41" fill="#B9C8FF"/><g id="Group-45" transform="translate(67.000000, 0.502000)" fill="#F85786"><path d="M3.3485,11.5584 L0.5745,18.6464 L31.3645,18.6464 L53.2225,18.6464 L50.1755,11.5584 C50.1755,11.5584 45.9905,0.4974 25.9845,0.4974 C5.9795,0.4974 3.3485,11.5584 3.3485,11.5584" id="Fill-43"/></g></g></g></g><g id="Upper Body" transform="translate(34.000000, 28.000000) scale(1 1)"><g id="Upper Body/Singing Pink" stroke="none" stroke-width="1" fill="none" fill-rule="evenodd"><g id="Group-31" transform="translate(88.000000, 9.000000)"><polygon id="Fill-1" fill="#FFB4EC" points="119.0412 -0.0001 113.6572 10.9369 99.9732 9.6419 94.5982 20.3559 83.0852 19.1629 79.2752 28.2289 80.1972 28.6169 83.7202 20.2339 95.1812 21.4219 100.5602 10.7019 114.2492 11.9969 119.9372 0.4409"/><polygon id="Fill-2" fill="#FFB4EC" points="113.0157 35.426 103.6147 29.519 95.9237 35.089 88.0937 30.073 82.6277 34.631 81.9877 33.864 88.0157 28.836 95.8887 33.879 103.5757 28.313 112.9707 34.217 120.6897 28.537 121.2817 29.343"/><g id="Group-30" transform="translate(0.000000, 28.888000)"><path d="M56.2979,26.6454 L77.1699,41.3264 C82.0979,44.0694 84.7619,45.4284 89.3169,42.9114 L96.0309,37.2694 C98.9389,34.0534 100.8009,28.5774 110.7449,32.0414 C120.6889,35.5054 118.8629,44.6244 113.5759,53.4134 C113.5759,53.4134 109.0899,60.0894 100.8039,73.2914 C83.4199,100.9884 55.8489,77.7424 55.8489,77.7424 L56.2979,26.6454 Z" id="Fill-3" fill="#ED9CF7"/><g id="Group-7" transform="translate(6.000000, 11.000000)" fill="#ED9CF7"><path d="M8.139,91.4304 L8.858,89.0994 C8.936,88.7334 8.942,88.3564 8.876,87.9884 L0.91,30.0214 C-4.378,6.7754 14.542,-4.5186 29.368,2.5764 L34.264,5.5814 L47.785,13.8774 C58.877,21.1554 64.874,34.1004 63.255,47.2674 L60.629,77.7044 C59.524,83.6824 62.836,88.6414 62.939,93.7554 C62.99,96.3334 60.41,97.8884 59.008,97.9184 L10.963,98.0000086 C8.382,98.0574 7.605,93.9564 8.139,91.4304" id="Fill-5"/></g><path d="M60.1248,98.5519 C60.1248,100.6069 58.8838,102.2739 57.3528,102.2739 C55.8208,102.2739 54.5798,100.6069 54.5798,98.5519 C54.5798,96.4969 55.8208,94.8299 57.3528,94.8299 C58.8838,94.8299 60.1248,96.4969 60.1248,98.5519" id="Fill-8" fill="#5A629D"/><path d="M60.1248,82.1016 C60.1248,84.1566 58.8838,85.8236 57.3528,85.8236 C55.8208,85.8236 54.5798,84.1566 54.5798,82.1016 C54.5798,80.0466 55.8208,78.3796 57.3528,78.3796 C58.8838,78.3796 60.1248,80.0466 60.1248,82.1016" id="Fill-10" fill="#5A629D"/><path d="M59.7916,64.7861 C59.7916,66.8411 58.5506,68.5081 57.0196,68.5081 C55.4876,68.5081 54.2466,66.8411 54.2466,64.7861 C54.2466,62.7311 55.4876,61.0641 57.0196,61.0641 C58.5506,61.0641 59.7916,62.7311 59.7916,64.7861" id="Fill-12" fill="#5A629D"/><path d="M58.8472,48.4639 C58.8472,50.5189 57.6062,52.1859 56.0752,52.1859 C54.5432,52.1859 53.3022,50.5189 53.3022,48.4639 C53.3022,46.4089 54.5432,44.7419 56.0752,44.7419 C57.6062,44.7419 58.8472,46.4089 58.8472,48.4639" id="Fill-14" fill="#5A629D"/><path d="M56.2911,33.5708 C56.7211,35.5808 55.8551,37.4698 54.3581,37.7898 C52.8601,38.1098 51.2981,36.7398 50.8691,34.7298 C50.4391,32.7198 51.3051,30.8308 52.8021,30.5108 C54.2991,30.1908 55.8611,31.5608 56.2911,33.5708" id="Fill-16" fill="#5A629D"/><path d="M75.146,14.989 L75.201,14.939 C77.94,12.413 78.114,8.144 75.588,5.405 L73.252,2.871 C70.727,0.132 66.458,-0.042 63.719,2.484 L63.664,2.535 C60.924,5.06 60.751,9.329 63.277,12.069 L65.612,14.602 C68.138,17.341 72.406,17.515 75.146,14.989" id="Fill-18" fill="#8069FF"/><path d="M89.054,30.647 L89.679,30.071 C90.856,28.986 90.93,27.153 89.845,25.976 L76.245,11.224 C75.16,10.047 73.327,9.973 72.15,11.057 L71.525,11.634 C70.348,12.718 70.274,14.552 71.359,15.728 L84.959,30.481 C86.044,31.657 87.877,31.732 89.054,30.647" id="Fill-20" fill="#C3C5DB"/><path d="M79.3078,37.9093 C79.1858,36.0963 79.3168,34.9313 80.5128,33.3243 C80.5128,33.3243 84.1958,28.5983 84.9388,27.3113 C85.9418,25.5723 84.9788,24.1013 84.0368,24.7373 C82.8508,25.5363 80.7638,27.1463 80.7638,27.1463 C80.7638,27.1463 85.6338,22.5013 85.3528,21.0263 C85.0718,19.5513 83.3998,19.9013 83.3998,19.9013 C83.3998,19.9013 83.9408,17.8853 81.8698,17.8033 C80.7238,17.7573 73.3998,23.2793 73.3998,23.2793 C73.3998,23.2793 76.9228,19.1773 77.5998,17.0883 C78.0918,15.5713 76.8768,15.0503 76.8768,15.0503 L69.5168,21.1823 C66.6188,24.4123 64.4658,30.3403 67.1898,36.4363 L61.7148,45.3103 C63.2578,49.6033 64.0118,57.3193 67.0138,53.8853 L76.2688,44.5903 C77.6508,43.0093 79.5678,41.7783 79.3078,37.9093" id="Fill-22" fill="#b67831"/><g id="Group-26" transform="translate(107.000000, 10.000000)" fill="#b67831"><path d="M33.805,15.1202 C33.805,15.1202 26.968,16.8662 21.481,18.8812 C15.994,20.8962 7.055,30.7572 7.055,30.7572 C6.193,32.2282 -0.003,27.2132 0.237,24.5392 L8.753,1.8122 C9.239,0.5162 11.082,0.5812 11.471,1.9082 L13.617,9.6332 L20.379,9.8522 C25.965,9.9582 28.424,10.7802 30.469,12.0142 C30.469,12.0142 35.97,11.4042 37.771,12.8372 C39.572,14.2702 35.204,14.6932 33.805,15.1202" id="Fill-24"/></g><g id="Group-29" transform="translate(0.000000, 11.000000)" fill="#FFC1FF"><path d="M26.6761,0.209 C26.6761,0.209 11.6841,-1.343 3.9931,18.083 C-8.4239,49.447 10.1021,77.816 32.2691,77.7800342 C56.9471,77.74 66.2731,64.637 75.9421,48.297 C81.6671,38.621 74.5121,32.677 71.4811,30.123 L68.1301,27.68 C65.7321,25.09 58.6001,25.165 54.9471,30.149 C51.6181,34.691 32.1191,43.273 32.8671,42.379 C38.1491,36.068 31.0291,36.269 30.8291,30.022 C30.2401,11.641 31.9581,2.048 26.6761,0.209" id="Fill-27"/></g></g></g></g></g></g></g></g></svg>