<?xml version="1.0" standalone="no"?>
<!DOCTYPE svg PUBLIC "-//W3C//DTD SVG 20010904//EN"
 "http://www.w3.org/TR/2001/REC-SVG-20010904/DTD/svg10.dtd">
<svg version="1.0" xmlns="http://www.w3.org/2000/svg"
 width="200" height="200" viewBox="0 0 1024.000000 614.000000"
 preserveAspectRatio="xMidYMid meet">
<metadata>
Created by potrace 1.16, written by Peter Selinger 2001-2019
</metadata>
<g transform="translate(0.000000,614.000000) scale(0.100000,-0.100000)"
fill="#FFF" stroke="none">
<path d="M860 3405 c0 -417 3 -635 10 -635 7 0 10 218 10 635 0 417 -3 635
-10 635 -7 0 -10 -218 -10 -635z"/>
<path d="M933 3403 c2 -598 3 -638 20 -641 16 -3 17 32 17 637 0 632 0 641
-20 641 -19 0 -20 -8 -17 -637z"/>
<path d="M1068 3525 c-2 -283 -1 -515 3 -515 27 0 29 36 29 527 0 438 -2 503
-15 503 -13 0 -15 -68 -17 -515z"/>
<path d="M1180 3564 c0 -376 3 -475 13 -472 9 4 13 110 15 476 2 415 0 472
-13 472 -13 0 -15 -58 -15 -476z"/>
<path d="M1300 3585 c0 -398 2 -455 15 -455 13 0 15 57 15 455 0 398 -2 455
-15 455 -13 0 -15 -57 -15 -455z"/>
<path d="M1402 3578 c2 -358 6 -462 16 -466 9 -3 12 94 12 462 0 409 -2 466
-15 466 -13 0 -15 -55 -13 -462z"/>
<path d="M1520 3654 c0 -342 2 -385 15 -374 13 11 15 66 15 386 0 326 -2 374
-15 374 -13 0 -15 -50 -15 -386z"/>
<path d="M1630 3710 c0 -287 2 -330 15 -330 13 0 15 43 15 330 0 287 -2 330
-15 330 -13 0 -15 -43 -15 -330z"/>
<path d="M1982 3708 c2 -214 7 -333 13 -333 6 0 11 119 13 333 2 292 0 332
-13 332 -13 0 -15 -40 -13 -332z"/>
<path d="M2090 3672 c0 -308 2 -371 15 -388 13 -17 14 26 15 369 0 337 -2 387
-15 387 -13 0 -15 -48 -15 -368z"/>
<path d="M2212 3578 c2 -300 7 -463 13 -463 6 0 11 163 13 463 2 408 0 462
-13 462 -13 0 -15 -54 -13 -462z"/>
<path d="M2310 3585 c0 -398 2 -455 15 -455 13 0 15 57 15 455 0 398 -2 455
-15 455 -13 0 -15 -57 -15 -455z"/>
<path d="M2432 3568 c2 -366 6 -472 16 -476 9 -3 12 96 12 472 0 418 -2 476
-15 476 -13 0 -15 -57 -13 -472z"/>
<path d="M2540 3537 c0 -491 1 -504 20 -522 20 -18 20 -17 20 503 0 515 0 522
-20 522 -20 0 -20 -7 -20 -503z"/>
<path d="M2670 3400 c0 -633 0 -640 20 -640 20 0 20 7 20 640 0 633 0 640 -20
640 -20 0 -20 -7 -20 -640z"/>
<path d="M2760 3405 c0 -558 2 -635 15 -635 13 0 15 77 15 635 0 558 -2 635
-15 635 -13 0 -15 -77 -15 -635z"/>
<path d="M1770 3653 c33 -51 38 -96 15 -119 -9 -9 -15 -34 -15 -60 0 -32 -4
-44 -14 -44 -9 0 -16 -12 -18 -32 -2 -25 -9 -33 -35 -42 -62 -21 -119 -71
-146 -127 -14 -30 -28 -66 -31 -81 l-6 -28 305 0 305 0 0 23 c0 38 -45 120
-86 157 -35 32 -61 46 -116 64 -12 3 -18 16 -18 36 0 23 -4 30 -20 30 -17 0
-20 7 -20 50 0 36 -4 52 -15 56 -28 11 -18 68 19 115 19 24 33 46 30 49 -3 3
-15 -6 -26 -19 -16 -21 -23 -23 -37 -14 -14 9 -21 9 -30 0 -8 -8 -17 -5 -34
11 -37 35 -39 26 -7 -25z"/>
<path d="M3430 3604 c0 -4 26 -41 58 -83 l57 -76 -5 -615 -5 -615 -54 -68
c-29 -37 -51 -70 -49 -73 3 -2 134 -3 292 -2 l288 3 -61 76 -61 77 0 610 0
611 60 74 c33 41 60 78 60 81 0 3 -130 6 -290 6 -159 0 -290 -3 -290 -6z"/>
<path d="M4380 3601 c0 -5 27 -42 60 -84 l60 -75 0 -606 0 -606 -60 -73 c-33
-41 -60 -77 -60 -80 0 -4 88 -7 195 -7 107 0 195 3 195 8 0 4 -24 36 -52 72
l-53 65 -5 533 c-3 292 -2 532 1 532 4 0 193 -210 420 -467 228 -257 438 -493
467 -525 l53 -59 -47 -59 c-26 -33 -53 -65 -60 -71 -8 -6 -14 -15 -14 -20 0
-5 90 -9 200 -9 110 0 200 3 200 8 0 4 -27 41 -59 82 l-59 74 -2 602 -1 603
66 81 c36 44 65 83 65 85 0 3 -92 5 -205 5 -113 0 -205 -2 -205 -5 0 -3 27
-40 60 -82 l60 -76 0 -238 c0 -132 -2 -239 -4 -239 -2 0 -124 134 -271 298
-147 163 -278 307 -292 320 -24 22 -26 22 -339 22 -173 0 -314 -4 -314 -9z"/>
<path d="M6240 3604 c0 -3 27 -39 60 -79 l60 -73 0 -614 0 -613 -60 -75 -60
-75 542 -3 c597 -3 636 0 746 53 113 54 190 167 217 321 18 101 18 142 0 229
-22 104 -65 184 -135 248 -58 54 -118 82 -219 102 l-33 7 50 28 c95 55 119
104 110 229 -4 51 -13 83 -38 130 -38 71 -73 104 -147 138 -106 49 -154 53
-640 53 -249 0 -453 -3 -453 -6z m832 -174 c94 -35 126 -93 107 -194 -22 -115
-95 -169 -256 -187 -48 -5 -102 -12 -120 -15 -25 -5 -34 -2 -42 14 -12 23 -14
157 -4 304 l6 97 36 4 c76 10 218 -2 273 -23z m9 -526 c69 -38 132 -108 159
-180 42 -107 27 -286 -32 -382 -58 -95 -109 -114 -293 -110 -137 3 -140 3
-152 28 -17 34 -18 506 -1 562 31 105 198 147 319 82z"/>
<path d="M8350 3600 c0 -6 16 -42 36 -82 l36 -71 -233 -618 c-211 -561 -236
-623 -280 -681 -27 -35 -48 -66 -49 -69 0 -3 10 -5 23 -3 12 1 95 3 183 3
l161 1 -23 47 c-13 25 -24 58 -24 71 0 14 30 111 67 215 l67 190 130 -6 c215
-9 341 -51 437 -146 52 -53 149 -200 149 -228 0 -7 -16 -37 -35 -68 -20 -30
-38 -62 -41 -70 -5 -13 32 -15 300 -15 168 0 306 2 306 5 0 2 -88 181 -196
397 -108 216 -279 561 -380 766 l-183 372 -225 0 c-148 0 -226 -4 -226 -10z
m406 -837 c-2 -2 -13 0 -23 5 -36 20 -174 42 -259 42 -65 0 -85 3 -81 13 3 6
38 94 78 195 l73 183 109 -216 c59 -120 106 -219 103 -222z"/>
<path d="M1154 3006 c-73 -72 -67 -77 94 -74 l137 3 3 58 3 57 -97 0 -97 0
-43 -44z"/>
<path d="M2260 2990 l0 -60 135 0 c147 0 150 2 116 54 -35 53 -67 66 -163 66
l-88 0 0 -60z"/>
<path d="M1740 2905 c-63 -20 -124 -75 -155 -140 -22 -48 -26 -70 -29 -191 -2
-76 -2 -143 1 -151 3 -7 16 -13 29 -13 24 0 24 0 24 120 0 113 1 120 20 120
19 0 20 -7 20 -120 l0 -120 180 0 180 0 0 120 c0 113 1 120 20 120 19 0 20 -7
20 -120 l0 -120 26 0 26 0 -4 168 c-3 149 -6 171 -25 208 -25 47 -73 91 -122
111 -50 21 -158 25 -211 8z m199 -54 c20 -11 44 -27 53 -38 18 -19 48 -84 48
-103 0 -6 -72 -10 -210 -10 -232 0 -227 -2 -194 63 30 59 70 90 139 108 42 11
122 1 164 -20z"/>
<path d="M1748 2814 c-24 -13 -48 -42 -48 -58 0 -3 61 -6 135 -6 l136 0 -15
29 c-9 16 -29 34 -47 40 -45 15 -129 13 -161 -5z"/>
<path d="M1298 2862 l-278 -2 0 -55 c0 -50 2 -55 22 -55 12 0 30 8 41 18 13
11 35 17 67 17 32 0 54 -6 67 -17 17 -15 40 -18 159 -18 l139 1 33 56 c18 31
31 57 30 57 -2 1 -128 0 -280 -2z"/>
<path d="M2080 2861 c0 -5 6 -14 13 -20 8 -6 22 -29 32 -51 l18 -40 139 0
c125 0 143 2 165 20 15 12 41 20 63 20 22 0 48 -8 63 -20 14 -11 35 -20 47
-20 19 0 21 4 18 58 l-3 57 -277 3 c-159 1 -278 -2 -278 -7z"/>
<path d="M1118 2720 c-10 -15 -24 -20 -55 -20 l-43 0 0 -145 c0 -122 2 -145
15 -145 13 0 15 21 15 125 l0 125 95 0 95 0 0 -125 0 -125 25 0 25 0 0 125 0
125 90 0 90 0 0 -125 c0 -118 1 -125 20 -125 19 0 20 7 20 145 l0 145 -153 0
c-141 0 -153 1 -165 20 -7 11 -23 20 -37 20 -14 0 -30 -9 -37 -20z"/>
<path d="M2450 2720 c-10 -19 -21 -20 -165 -20 l-155 0 0 -145 c0 -80 2 -145
4 -145 2 0 11 -3 20 -6 13 -5 16 11 18 123 l3 128 90 -1 90 -1 3 -118 c3 -113
8 -134 34 -135 4 0 9 57 10 128 l3 127 90 0 90 0 3 -122 c2 -100 5 -123 17
-123 13 0 15 24 15 145 l0 145 -43 0 c-31 0 -45 5 -55 20 -7 11 -23 20 -37 20
-14 0 -29 -8 -35 -20z"/>
<path d="M830 2555 l0 -145 75 0 76 0 -3 143 -3 142 -72 3 -73 3 0 -146z"/>
<path d="M2670 2555 l0 -145 70 0 70 0 0 145 0 145 -70 0 -70 0 0 -145z"/>
<path d="M1123 2613 c-9 -3 -13 -34 -13 -104 l0 -99 45 0 45 0 0 99 c0 81 -3
100 -16 105 -18 7 -43 7 -61 -1z"/>
<path d="M1348 2609 c-15 -8 -18 -25 -18 -104 l0 -95 45 0 45 0 0 95 c0 83 -2
96 -19 105 -24 12 -31 12 -53 -1z"/>
<path d="M2250 2612 c-26 -9 -30 -24 -30 -114 l0 -88 45 0 46 0 -3 96 c-3 86
-5 98 -23 104 -11 4 -27 5 -35 2z"/>
<path d="M2463 2610 c-22 -9 -23 -15 -23 -105 l0 -95 50 0 50 0 0 95 c0 93 -1
96 -26 105 -14 6 -26 10 -27 9 -1 0 -12 -4 -24 -9z"/>
<path d="M1660 2210 l0 -130 175 0 175 0 0 130 0 130 -175 0 -175 0 0 -130z"/>
<path d="M830 2205 l0 -125 70 0 70 0 0 125 0 125 -70 0 -70 0 0 -125z"/>
<path d="M1020 2205 c0 -118 1 -125 20 -125 18 0 20 7 20 83 0 74 3 86 23 105
23 22 76 29 112 16 28 -11 45 -60 45 -134 l0 -70 135 0 135 0 0 125 0 125
-245 0 -245 0 0 -125z"/>
<path d="M2130 2205 l0 -125 134 0 134 0 3 79 c4 67 8 83 28 105 35 38 92 36
132 -3 27 -27 29 -35 29 -105 0 -61 3 -76 15 -76 13 0 15 21 15 125 l0 125
-245 0 -245 0 0 -125z"/>
<path d="M2670 2205 l0 -125 70 0 70 0 0 125 0 125 -70 0 -70 0 0 -125z"/>
</g>
</svg>
