<?xml version="1.0" standalone="no"?>
<!DOCTYPE svg PUBLIC "-//W3C//DTD SVG 20010904//EN"
 "http://www.w3.org/TR/2001/REC-SVG-20010904/DTD/svg10.dtd">
<svg version="1.0" xmlns="http://www.w3.org/2000/svg"
 width="150" height="150" viewBox="0 0 571.000000 800.000000"
 preserveAspectRatio="xMidYMid meet">
<metadata>
Created by potrace 1.16, written by Peter Selinger 2001-2019
</metadata>
<g transform="translate(0.000000,800.000000) scale(0.100000,-0.100000)"
fill="#FFF" stroke="none">
<path d="M2680 7890 l0 -110 30 0 30 0 0 -100 0 -100 -100 0 -100 0 0 25 0 25
-115 0 -115 0 0 -180 0 -180 115 0 115 0 0 25 0 25 100 0 100 0 0 -105 0 -105
-30 0 -30 0 0 -73 0 -74 -242 -7 c-681 -19 -1205 -77 -1626 -182 -367 -90
-656 -234 -769 -382 -18 -24 -33 -39 -33 -33 0 20 114 132 178 175 234 154
560 257 1077 340 83 13 139 25 125 25 -34 1 -298 -42 -447 -74 -422 -89 -726
-223 -882 -390 l-61 -65 1 -470 0 -470 30 -35 c17 -19 60 -48 97 -66 66 -31
525 -190 546 -188 6 0 -104 40 -244 88 -140 48 -281 99 -312 115 -54 26 -108
75 -108 98 0 6 10 -4 22 -22 35 -52 120 -88 506 -216 210 -69 352 -121 352
-129 0 -6 -70 -45 -157 -86 -177 -84 -242 -134 -279 -214 -24 -50 -24 -52 -24
-455 0 -366 2 -408 18 -440 10 -21 62 -71 131 -127 63 -50 118 -96 124 -102 6
-6 -102 -83 -309 -222 -176 -116 -323 -217 -327 -223 -6 -8 -8 -7 -5 2 2 6
145 107 318 222 173 115 312 210 307 210 -13 0 -637 -420 -637 -429 0 -5 8
-15 17 -22 11 -10 14 -10 9 -1 -4 6 -6 12 -4 11 2 0 102 -33 223 -73 l220 -72
0 -252 c0 -139 4 -252 8 -252 5 0 5 -5 2 -10 -4 -6 80 46 185 115 105 69 193
125 195 125 3 0 6 -449 8 -998 l2 -997 3 1008 c2 804 -1 1007 -10 1001 -7 -5
-89 -58 -183 -119 -185 -121 -205 -133 -190 -118 6 6 96 67 200 137 l190 126
5 -1042 5 -1043 33 -93 c38 -111 68 -164 128 -231 53 -60 123 -106 212 -140
l67 -25 515 -7 c353 -4 529 -10 560 -18 76 -21 207 -87 306 -156 61 -42 103
-65 117 -63 12 2 56 26 97 54 92 63 173 104 265 135 68 22 82 23 585 29 376 5
526 10 555 19 126 40 269 151 323 249 31 56 21 54 -12 -3 -57 -96 -190 -197
-311 -236 -29 -9 -179 -14 -555 -19 -503 -6 -517 -7 -585 -29 -94 -31 -174
-72 -269 -138 -43 -31 -76 -51 -73 -46 14 22 163 117 242 154 139 65 176 69
693 69 386 0 466 2 521 16 162 40 291 146 360 296 77 165 74 109 72 1251 -2
836 0 1017 11 1011 39 -23 375 -248 383 -257 17 -17 -11 1 -198 126 -99 65
-180 117 -182 115 -2 -2 86 -63 196 -136 111 -73 198 -128 194 -122 -3 5 -1
10 5 10 7 0 10 76 10 252 l-1 252 220 72 c121 39 219 68 216 64 -2 -3 -100
-37 -217 -75 l-213 -68 5 -246 5 -246 5 244 5 244 200 64 c122 39 206 72 216
83 9 11 20 16 25 12 5 -4 2 2 -6 12 -8 11 -153 111 -322 222 -170 112 -308
205 -308 208 0 3 46 42 103 87 103 82 157 135 157 153 0 6 -10 -4 -22 -21 -13
-18 -75 -73 -138 -123 -63 -51 -116 -93 -118 -95 -1 -1 139 -96 313 -210 173
-115 314 -210 312 -211 -2 -2 -147 91 -322 207 -264 175 -315 213 -304 223 8
7 59 49 114 93 55 44 111 93 125 108 l25 27 3 425 c3 414 2 427 -18 469 -39
80 -92 120 -272 208 -92 44 -168 86 -168 92 0 6 159 64 353 128 388 128 470
163 505 215 12 19 22 29 22 23 0 -6 -14 -27 -30 -46 -39 -44 -111 -74 -445
-187 -143 -48 -255 -88 -250 -88 19 -2 539 176 605 206 37 17 79 45 97 66 l32
37 0 467 1 468 -35 44 c-86 109 -302 236 -534 316 -198 67 -594 153 -781 169
-36 3 3 -5 85 -18 620 -99 1018 -248 1203 -451 29 -31 52 -62 52 -68 0 -6 -7
0 -16 13 -107 160 -394 307 -786 404 -376 93 -825 149 -1423 176 -121 5 -271
10 -332 10 l-113 0 0 75 0 75 -30 0 -30 0 0 105 0 105 100 0 100 0 -1 -27 c-2
-24 -2 -25 -6 -5 -4 21 -9 22 -94 22 l-89 0 0 -94 0 -95 28 -3 c26 -3 27 -5
30 -75 l3 -73 132 2 132 2 -127 3 -128 4 0 62 c0 65 -11 87 -42 87 -16 0 -18
10 -18 85 l0 85 80 0 c73 0 80 -2 80 -19 0 -11 -4 -23 -10 -26 -5 -3 -10 -17
-10 -31 0 -18 -5 -24 -23 -24 -36 0 -47 -19 -47 -80 0 -60 11 -80 46 -80 15 0
24 -7 27 -22 4 -20 4 -20 6 4 1 23 -3 27 -31 30 l-33 3 0 65 0 65 33 3 c28 3
32 7 32 33 0 40 27 49 156 49 l104 0 0 180 0 180 -115 0 -115 0 0 -25 0 -25
-100 0 -100 0 0 103 0 104 30 -5 30 -4 0 111 0 111 -175 0 -175 0 0 -110z
m290 0 c0 -49 -1 -50 -30 -50 l-30 0 0 -165 0 -165 160 0 160 0 0 25 c0 24 3
25 55 25 l55 0 0 -110 0 -110 -50 0 c-43 0 -50 3 -50 20 0 19 -7 20 -160 20
l-160 0 0 -160 0 -160 25 0 c23 0 25 -3 25 -50 l0 -50 -115 0 -115 0 0 50 c0
49 1 50 30 50 l30 0 0 160 0 160 -160 0 c-153 0 -160 -1 -160 -20 0 -18 -6
-20 -57 -18 l-58 1 55 7 c46 6 49 7 18 8 l-38 2 0 90 0 90 29 0 c20 0 31 -6
34 -17 4 -14 5 -13 6 4 1 20 -5 22 -51 26 l-53 3 58 2 c55 2 57 1 57 -23 l0
-25 160 0 160 0 0 165 0 165 -30 0 c-29 0 -30 1 -30 50 l0 50 115 0 115 0 0
-50z m660 -1050 c817 -51 1384 -162 1745 -340 55 -27 122 -66 149 -86 l49 -36
-26 -17 c-32 -19 -33 -23 -7 -46 23 -21 26 -35 6 -35 -7 0 -19 -7 -26 -15 -9
-11 -6 -21 15 -50 26 -33 26 -35 7 -35 -33 0 -35 -17 -7 -54 22 -29 23 -34 9
-40 -25 -10 -41 -6 -22 5 17 9 16 12 -5 40 l-22 31 21 17 c16 13 19 22 12 34
-5 9 -14 17 -20 17 -7 0 -6 -6 2 -15 10 -13 9 -19 -5 -35 -18 -20 -18 -21 2
-48 l20 -27 -21 -18 c-12 -10 -15 -15 -8 -12 6 3 12 1 12 -6 0 -7 11 -27 26
-46 l25 -33 -23 0 c-13 0 -30 -5 -38 -10 -13 -8 -13 -11 1 -22 9 -7 26 -28 38
-45 l22 -33 -35 0 c-41 0 -44 -7 -16 -52 30 -49 25 -52 -26 -17 -126 86 -393
188 -668 254 -689 166 -1854 227 -2875 150 -800 -61 -1393 -200 -1708 -401
-58 -37 -63 -35 -33 14 27 45 25 52 -15 52 l-35 0 26 40 c15 22 31 40 36 40 5
0 -3 -15 -18 -32 l-27 -33 28 -5 c15 -3 32 -14 36 -25 8 -18 9 -18 6 -1 -1 10
-11 24 -22 30 -11 6 -22 12 -24 14 -3 1 9 16 25 33 l29 31 -27 21 -27 22 20
24 c21 26 14 43 -25 62 -16 8 -15 6 4 -10 l25 -21 -32 11 -33 11 26 33 c26 34
25 55 -2 55 -8 0 -14 2 -14 5 0 13 33 55 43 55 6 0 0 -11 -12 -24 -19 -20 -20
-24 -6 -30 10 -3 14 -2 9 5 -3 6 4 21 17 35 22 23 22 24 4 44 -10 11 -23 20
-29 20 -6 0 0 -7 12 -16 12 -8 22 -20 22 -26 0 -7 -6 -4 -12 5 -7 9 -24 21
-38 26 -15 6 -19 10 -9 10 9 1 24 13 34 27 16 25 16 27 0 43 -10 9 -15 10 -11
4 9 -17 -4 -16 -27 1 -16 13 -14 16 30 49 190 138 542 255 998 331 330 56 679
88 1200 110 157 7 1083 -3 1245 -14z m80 -724 c272 -22 467 -43 660 -72 207
-30 500 -86 480 -92 -8 -2 -28 -10 -45 -17 -16 -7 -171 -61 -343 -119 -172
-59 -327 -114 -345 -121 -66 -28 -118 -75 -143 -130 l-25 -54 5 -383 c5 -418
5 -426 24 -433 6 -2 12 -3 12 -2 0 1 -7 24 -15 51 -12 40 -15 119 -15 411 l0
361 26 52 c32 64 79 98 194 140 159 58 703 242 714 241 6 0 -106 -40 -249 -89
-534 -184 -554 -192 -600 -232 -76 -67 -76 -72 -73 -498 3 -356 4 -377 24
-416 l20 -42 -60 23 c-50 19 -749 294 -793 312 -23 9 -15 68 13 94 43 40 96
118 119 176 15 37 33 61 53 73 46 28 65 73 60 138 -4 47 -10 60 -39 87 -21 18
-40 50 -48 76 -7 24 -27 71 -43 104 -99 198 -249 293 -448 283 -77 -4 -98 -9
-163 -41 -94 -46 -167 -123 -225 -235 -23 -44 -42 -86 -42 -94 -1 -7 -7 -26
-15 -43 l-14 -30 4 30 c3 17 2 23 -1 15 -4 -8 -24 -34 -45 -57 -68 -75 -65
-158 8 -230 25 -24 58 -70 73 -101 15 -32 50 -85 78 -119 82 -99 83 -98 -120
-178 -164 -64 -267 -108 -241 -102 6 1 104 38 217 82 199 77 206 81 206 108 0
19 -16 48 -52 90 -28 34 -65 91 -81 127 -17 36 -37 69 -46 74 -86 52 -106 169
-40 239 l31 32 -27 -37 c-53 -73 -43 -152 25 -211 20 -18 49 -60 67 -97 16
-36 54 -91 83 -123 41 -45 53 -65 52 -89 0 -16 -4 -33 -7 -36 -7 -7 -849 -340
-852 -337 -2 0 7 26 19 56 21 51 23 72 26 380 2 205 -1 348 -7 385 -13 69 -42
115 -96 151 -23 15 -214 87 -438 163 l-399 137 104 22 c354 75 819 133 1303
161 247 14 1269 5 1495 -14z m-891 -225 l2 -48 -58 -6 c-41 -4 -84 -19 -145
-50 -84 -43 -87 -43 -74 -18 37 70 141 143 230 161 22 4 41 8 42 9 0 1 1 -21
3 -48z m218 3 c53 -26 111 -81 138 -133 l15 -30 -47 31 c-52 35 -161 78 -198
78 -22 0 -25 5 -25 35 0 24 5 35 15 35 26 0 112 -36 151 -65 l39 -27 -35 31
c-35 31 -125 71 -160 71 -15 0 -20 -9 -23 -42 -3 -42 -4 -42 -5 8 l-2 52 43
-9 c23 -6 65 -21 94 -35z m-32 -209 c51 -9 107 -28 155 -52 l75 -38 3 -92 3
-92 -39 -26 c-82 -54 -144 -68 -318 -73 -142 -4 -170 -1 -242 18 -46 12 -100
35 -122 51 l-40 29 0 89 c0 98 3 102 76 139 112 56 291 75 449 47z m-1476
-422 c-28 -48 -45 -65 -35 -38 6 16 5 18 -5 8 -23 -23 3 -36 47 -24 21 6 39 9
40 8 1 -1 -18 -24 -43 -52 -25 -27 -38 -38 -29 -22 23 37 13 34 -15 -5 -13
-17 -18 -29 -12 -25 6 4 13 2 15 -4 3 -8 17 -9 51 -1 26 5 47 9 47 8 0 -1 -23
-24 -51 -51 -28 -28 -46 -40 -40 -28 6 12 23 31 37 42 20 15 22 21 10 21 -9 0
-16 -4 -16 -10 0 -5 -6 -8 -12 -6 -7 1 -10 1 -6 -1 4 -3 -5 -21 -20 -41 -15
-20 -21 -33 -14 -28 6 4 12 4 12 -1 0 -4 21 -7 48 -5 l47 4 -47 -49 c-27 -27
-48 -54 -48 -60 0 -14 89 -22 94 -8 2 5 6 7 9 4 4 -3 -19 -30 -51 -60 -31 -30
-41 -37 -22 -16 46 51 34 47 -15 -4 -22 -23 -34 -39 -27 -35 6 4 12 2 12 -3 0
-6 19 -11 43 -11 l42 -1 -45 -38 c-25 -22 -48 -39 -51 -38 -4 1 -7 -2 -6 -8 0
-5 8 -9 19 -7 10 2 18 -2 18 -7 0 -8 -92 -11 -290 -11 l-289 0 -3 -150 -3
-151 -154 -81 -154 -81 33 42 c18 22 35 39 38 36 3 -2 -1 -11 -8 -20 -13 -16
-10 -18 14 -9 12 5 13 10 5 26 -10 18 -18 20 -68 14 l-56 -6 53 48 c28 26 52
50 52 54 0 4 -23 8 -50 10 l-51 3 53 50 c29 28 37 33 18 13 -46 -52 -34 -48
15 3 22 23 34 39 27 34 -9 -5 -12 -1 -10 11 2 13 -4 20 -20 22 -23 3 -22 4 8
39 26 30 29 38 18 48 -13 13 -49 20 -78 15 -8 -2 5 -6 30 -10 l45 -7 -55 -1
c-30 -1 -50 2 -45 7 6 4 30 26 55 47 39 33 41 34 16 6 -17 -18 -28 -32 -25
-32 3 0 21 16 40 37 18 20 28 33 22 29 -7 -4 -13 -2 -13 4 0 6 -4 9 -9 5 -6
-3 -28 -2 -51 1 l-41 7 32 33 c18 19 37 34 43 34 5 0 -3 -13 -19 -30 -16 -16
-25 -30 -19 -29 5 0 24 19 43 40 27 31 31 42 22 52 -10 9 -11 8 -6 -4 4 -10 2
-20 -4 -24 -6 -3 -9 0 -5 9 3 9 -3 17 -16 21 -18 6 74 56 436 241 253 128 460
233 462 233 2 1 -6 -16 -19 -36z m3532 -439 c-15 -6 -30 -9 -35 -6 -5 3 -6 0
-2 -7 4 -6 11 -9 15 -7 4 3 27 -14 50 -38 l42 -43 -41 -7 c-23 -3 -45 -4 -50
-1 -4 3 -10 -1 -13 -7 -2 -7 9 -28 26 -45 28 -30 29 -33 10 -33 -11 0 -26 -7
-33 -16 -11 -13 -8 -20 21 -47 l34 -32 -29 32 c-34 38 -28 53 22 53 l37 1 -45
40 c-27 24 -33 33 -15 21 17 -11 41 -32 54 -46 l24 -26 -46 0 c-26 0 -47 -3
-47 -7 0 -4 19 -27 42 -50 l42 -43 -47 0 c-39 0 -45 -3 -40 -17 4 -11 3 -14
-5 -9 -22 13 -12 0 25 -35 l38 -34 -30 35 c-23 27 -19 25 18 -10 l48 -45 -52
-3 -52 -3 54 -55 54 -55 -52 7 c-35 4 -53 3 -53 -4 0 -6 4 -13 10 -17 5 -3 18
-19 30 -34 18 -27 12 -25 -93 30 -61 33 -131 70 -154 81 l-43 22 0 148 0 148
-285 0 c-202 0 -285 3 -285 11 0 6 7 9 15 6 8 -4 17 -2 21 4 7 12 -12 37 -40
50 -16 8 -15 6 4 -10 14 -11 21 -21 16 -21 -5 0 -26 16 -47 35 l-39 35 45 0
c25 0 45 1 45 3 0 2 -27 31 -60 65 -33 34 -56 62 -50 62 5 0 11 -4 14 -8 7
-12 92 1 88 13 -2 6 -24 32 -50 59 l-46 49 52 -5 c29 -3 55 -1 59 4 3 6 -7 22
-23 37 l-28 26 23 -27 c44 -50 17 -35 -32 18 l-48 52 38 -9 c21 -5 41 -9 46
-9 19 0 3 29 -40 73 -32 33 -41 47 -28 44 51 -15 75 -19 75 -12 0 3 -14 27
-31 52 l-32 45 465 -233 c429 -216 462 -235 439 -245z m-2321 347 c63 -16 76
-22 78 -41 4 -22 1 -23 -42 -17 -45 6 -46 6 -65 -31 -11 -20 -20 -32 -21 -27
0 6 9 25 20 43 19 30 23 32 60 26 33 -5 40 -4 40 10 0 37 -81 10 -110 -36 -22
-36 -21 -53 1 -53 8 0 14 -6 14 -14 0 -8 7 -16 15 -18 13 -4 13 -3 0 7 -12 9
-7 9 20 3 63 -14 202 -8 238 10 17 10 32 15 32 13 0 -16 -72 -39 -143 -46
l-82 -9 81 4 c79 3 128 18 152 47 16 20 -26 93 -56 94 -19 1 -20 1 -2 -3 11
-2 30 -23 41 -45 11 -22 16 -37 11 -34 -5 3 -15 19 -22 36 -12 29 -14 30 -61
24 -47 -6 -49 -6 -48 17 1 17 3 19 6 7 3 -12 14 -18 31 -17 l27 1 -25 8 -25 8
25 2 25 2 -24 7 c-20 5 -10 10 50 24 41 10 100 31 132 47 31 16 57 26 57 24 0
-3 -22 -32 -50 -65 -47 -56 -50 -64 -50 -115 0 -71 1 -66 -18 -88 -25 -27 -86
-55 -144 -66 -68 -13 -154 3 -213 41 l-45 29 0 67 c0 66 -2 70 -43 118 -75 89
-75 88 -6 55 36 -16 98 -38 139 -49z m788 -592 c2 6 9 8 15 4 15 -9 -53 71
-129 152 -39 41 -47 47 -26 19 17 -22 38 -47 47 -54 9 -7 34 -36 56 -64 l41
-51 -47 50 c-26 28 -84 90 -128 138 l-80 88 54 -21 c348 -136 666 -264 673
-271 16 -14 -74 -119 -141 -165 -84 -58 -154 -81 -319 -109 -176 -29 -218 -50
-333 -159 -113 -109 -161 -142 -239 -166 -77 -24 -128 -25 -207 -5 -84 22
-153 67 -255 165 -99 97 -166 136 -261 151 -181 30 -269 51 -327 80 -70 34
-177 128 -205 181 l-18 33 23 -30 c55 -72 106 -119 167 -155 83 -48 104 -54
280 -84 181 -31 225 -53 352 -173 83 -78 159 -135 159 -119 0 3 -14 13 -31 22
-18 9 -75 57 -128 107 -127 120 -171 142 -352 173 -179 30 -220 44 -299 97
-70 47 -149 133 -134 146 5 5 143 61 307 126 216 85 301 115 306 106 6 -9 13
-4 25 13 18 28 17 29 -8 20 -9 -3 -13 -10 -10 -15 3 -5 -1 -7 -8 -4 -7 3 -150
-49 -317 -115 -167 -66 -305 -119 -307 -117 -7 7 657 267 667 262 5 -4 9 -2 9
3 0 6 7 13 16 16 11 4 10 -1 -5 -21 -43 -53 -241 -263 -241 -254 0 6 4 12 9
15 5 3 46 47 91 98 l82 93 -96 -100 c-92 -96 -109 -124 -71 -117 11 2 14 -1
10 -8 -4 -6 28 11 71 38 44 27 135 84 204 127 69 42 130 82 135 88 13 13 -35
-15 -218 -130 -145 -91 -198 -122 -186 -109 12 13 452 287 455 283 2 -2 -28
-111 -67 -242 -57 -191 -68 -239 -57 -246 9 -6 9 -9 1 -9 -24 0 -23 22 7 126
17 58 29 108 27 110 -2 2 -18 -46 -36 -107 -25 -88 -29 -114 -20 -125 16 -19
32 -13 34 12 1 20 248 447 252 435 1 -3 11 -123 23 -266 24 -309 30 -365 39
-365 3 0 17 134 30 298 12 163 25 305 28 316 4 13 34 -30 104 -148 133 -225
161 -276 156 -276 -3 0 -56 87 -119 194 -62 107 -115 193 -116 191 -6 -6 218
-383 236 -397 9 -8 13 -8 9 -1 -4 6 -3 13 1 15 5 1 -24 113 -64 248 -41 135
-74 246 -74 247 0 1 107 -66 237 -149 131 -82 239 -145 241 -139z m-1918 -57
c39 -91 142 -188 260 -245 87 -42 107 -47 229 -62 171 -21 206 -37 344 -160
59 -53 107 -98 107 -100 0 -2 -208 -4 -461 -5 -254 0 -465 -3 -470 -6 -5 -3
-9 -578 -9 -1317 0 -1431 -1 -1389 57 -1507 40 -80 114 -150 208 -196 l79 -39
325 -5 326 -5 71 -38 c39 -21 96 -61 125 -88 l54 -51 -55 46 c-30 25 -86 63
-125 83 l-70 38 -326 5 -325 5 -75 37 c-128 63 -202 144 -251 274 l-23 59 -5
1350 -5 1350 0 -1350 0 -1350 23 -59 c49 -131 131 -220 260 -283 l76 -38 325
-5 326 -5 63 -33 c34 -18 92 -57 128 -88 l65 -55 55 50 c30 28 89 67 131 88
l77 38 325 5 c235 4 335 10 359 19 48 19 34 23 -23 6 -37 -12 -112 -15 -335
-15 -223 0 -297 -3 -336 -15 -62 -18 -161 -78 -214 -129 -23 -21 -43 -36 -46
-33 -10 10 122 109 195 145 l75 37 325 5 326 5 75 36 c41 20 96 55 121 77 54
48 112 153 128 232 9 40 12 429 14 1388 l2 1332 -482 -2 -482 -3 81 75 c172
158 202 174 384 196 70 9 150 25 178 36 135 53 254 155 307 264 l32 64 284 0
283 0 -2 -1907 c-3 -1796 -4 -1912 -21 -1968 -59 -199 -164 -313 -333 -361
-51 -15 -131 -18 -574 -24 l-515 -6 -71 -26 c-109 -39 -200 -88 -265 -140
l-59 -48 -66 51 c-78 59 -154 99 -261 136 l-78 28 -515 6 c-342 4 -530 10
-559 18 -135 36 -238 121 -296 243 -74 156 -69 -2 -72 2106 l-4 1892 288 0
288 0 25 -58z m2398 -1984 l-3 -1303 -23 -56 c-47 -116 -123 -171 -264 -189
-40 -5 -188 -10 -329 -10 -299 0 -330 -7 -454 -96 l-75 -53 -63 47 c-125 95
-128 96 -492 103 -210 4 -334 11 -360 19 -101 31 -148 73 -194 170 l-26 55 -3
1308 -2 1307 1145 0 1145 0 -2 -1302z"/>
<path d="M2920 6783 c52 -2 98 -7 102 -11 4 -4 -40 -5 -97 -4 -75 3 -105 0
-105 -8 0 -6 -6 -8 -12 -4 -8 4 -10 3 -5 -2 5 -5 13 -10 18 -10 5 -1 14 -2 19
-3 6 -1 10 -64 10 -166 0 -138 -3 -167 -15 -171 -8 -4 -15 -12 -15 -20 0 -11
22 -14 104 -14 l103 0 7 38 c15 92 1 121 -27 52 -15 -39 -56 -68 -78 -54 -5 3
-9 40 -9 82 l1 77 19 -24 c11 -13 20 -34 20 -47 0 -13 5 -24 10 -24 6 0 10 40
10 100 0 60 -4 100 -10 100 -5 0 -10 -9 -10 -21 0 -25 -17 -59 -30 -59 -6 0
-10 32 -10 70 l0 70 29 0 c34 0 46 -13 56 -57 11 -53 25 -38 27 30 l2 62 3
-60 c3 -48 1 -62 -13 -72 -10 -7 -13 -13 -8 -13 23 0 34 27 34 80 0 82 -12 91
-131 88 l-94 -2 95 -3z"/>
<path d="M3320 6771 c-14 -4 -24 -13 -22 -20 2 -8 -5 -7 -20 3 -35 25 -73 20
-112 -14 -84 -74 -89 -272 -9 -343 30 -26 83 -32 126 -13 36 15 37 16 37 71 0
40 4 57 15 61 8 4 15 12 15 20 0 11 -16 14 -65 14 -51 0 -65 -3 -65 -15 0 -8
8 -15 18 -15 11 0 13 -3 6 -8 -13 -8 -24 -102 -12 -102 4 0 9 19 11 43 l4 42
-1 -44 c-1 -51 -16 -61 -45 -32 -50 50 -32 296 24 317 22 9 52 -21 66 -65 22
-70 31 -57 41 64 3 29 4 30 68 36 l65 6 -60 0 c-33 1 -71 -2 -85 -6z"/>
<path d="M2303 6762 c-7 -4 18 -6 55 -4 54 2 73 -1 100 -18 76 -47 107 -205
60 -300 -37 -72 -67 -86 -208 -94 -117 -6 -122 -6 -146 16 -30 29 -32 68 -4
68 13 0 20 -7 20 -20 0 -11 4 -20 10 -20 6 0 6 9 0 26 -6 14 -10 31 -9 37 0
11 27 -49 28 -65 1 -5 -6 -8 -14 -8 -8 0 -15 -7 -15 -15 0 -14 16 -15 123 -9
137 7 169 19 202 74 30 52 29 188 -3 247 -32 60 -67 76 -161 71 -57 -3 -76 -8
-76 -19 0 -8 9 -14 20 -14 18 0 21 -9 28 -90 4 -49 6 -124 5 -165 -5 -123 -23
-103 -93 99 -33 96 -65 176 -70 178 -6 2 -22 -65 -39 -159 -35 -204 -36 -208
-50 -208 -7 0 -12 -10 -11 -22 1 -20 8 -23 46 -24 l44 -2 -45 8 -45 7 47 1
c41 2 46 5 41 20 -5 13 -1 12 19 -6 24 -22 29 -23 144 -16 66 4 130 12 144 19
96 49 131 200 73 316 -37 72 -78 99 -152 99 -31 0 -61 -4 -68 -8z m136 -94
c18 -52 25 -168 12 -215 -11 -39 -44 -73 -54 -56 -8 14 -19 301 -12 312 11 18
42 -5 54 -41z"/>
<path d="M2590 6746 c0 -8 4 -16 10 -18 5 -2 13 -73 16 -160 6 -141 5 -158 -9
-164 -10 -3 -17 -12 -17 -20 0 -21 128 -19 158 2 13 9 26 14 29 11 2 -3 -9
-13 -26 -21 -43 -23 -159 -22 -168 0 -4 10 0 22 10 29 15 11 16 28 8 166 l-10
154 4 -150 c3 -129 2 -152 -13 -168 -30 -33 -5 -52 75 -55 60 -2 74 0 106 22
20 14 37 20 37 14 0 -24 11 1 15 33 l4 34 -15 -28 c-9 -16 -18 -27 -21 -24 -2
3 3 17 13 31 9 15 20 41 25 59 l9 32 -4 -35 c-1 -19 0 -46 4 -60 3 -14 6 49 6
140 0 91 -3 154 -6 140 -4 -14 -5 -41 -4 -60 4 -34 3 -34 -4 -5 -24 88 -61
115 -158 115 -57 0 -74 -3 -74 -14z m133 -31 c26 -26 40 -136 28 -219 -6 -44
-14 -64 -32 -79 l-24 -19 -7 48 c-3 27 -7 102 -7 167 -1 95 2 117 13 117 8 0
21 -7 29 -15z"/>
<path d="M3338 6708 c-1 -29 0 -72 1 -95 l3 -42 -59 -4 -58 -3 63 -2 62 -2 2
58 c1 31 2 69 2 84 1 15 4 24 7 20 4 -4 3 -74 0 -157 -8 -168 -4 -182 54 -209
38 -18 76 -13 97 12 11 13 8 12 -20 -2 -20 -10 -42 -14 -55 -10 -30 9 -77 54
-76 73 0 11 3 10 8 -4 11 -26 40 -51 68 -59 24 -8 106 30 98 44 -2 4 0 22 5
39 5 18 10 71 11 119 2 48 6 103 10 122 4 19 4 -21 2 -90 -3 -69 -3 -122 1
-119 3 3 8 54 11 114 2 59 9 113 15 119 5 5 10 15 10 21 0 5 -5 3 -10 -5 -8
-13 -10 -13 -10 1 0 10 -12 19 -31 23 -45 9 -49 8 -50 -11 0 -10 -3 -13 -5 -6
-3 7 -14 3 -30 -12 -23 -21 -24 -28 -26 -161 l-2 -139 -4 130 c-3 143 1 175
23 175 8 0 15 7 15 15 0 12 -14 15 -65 15 l-65 0 -2 -52z m173 -32 c2 -31 2
-31 6 -3 3 16 -1 35 -8 43 -7 8 -7 14 -1 14 5 0 13 -7 16 -16 8 -20 -4 -242
-15 -271 -11 -29 -41 -45 -60 -31 -11 8 -9 8 6 3 16 -5 18 -4 8 6 -9 9 -13 53
-13 147 0 117 2 137 17 148 24 17 43 0 44 -40z"/>
<path d="M3614 6600 c-32 -100 -50 -146 -56 -138 -6 8 -7 5 -3 -10 4 -14 0
-32 -9 -47 -24 -37 -20 -45 25 -45 39 0 41 1 36 27 -7 35 1 53 23 53 13 0 20
-9 23 -27 4 -27 4 -27 6 3 1 28 -3 32 -31 38 -40 8 -33 15 10 9 30 -5 32 -8
32 -44 0 -28 -4 -39 -15 -39 -8 0 -15 -7 -15 -16 0 -13 11 -15 65 -12 36 1 66
0 68 -3 1 -4 34 -10 72 -14 64 -6 73 -4 107 18 20 14 40 22 44 19 4 -4 4 0 2
8 -3 8 1 28 9 44 8 15 17 61 20 101 5 62 2 80 -17 119 -27 56 -54 71 -142 81
-62 6 -68 5 -68 -12 0 -15 -2 -16 -11 -3 -9 13 -10 13 -6 0 2 -8 11 -14 20
-12 8 1 18 -2 21 -6 5 -9 -7 -184 -20 -279 -8 -63 -30 -56 -44 15 -6 31 -13
62 -16 67 -5 12 5 -71 13 -105 3 -14 3 -22 -1 -19 -5 5 -76 355 -76 377 0 1
-4 2 -9 2 -5 0 -31 -68 -57 -150z m322 69 c16 -18 19 -36 18 -118 -1 -102 -21
-170 -54 -179 -11 -3 -11 -1 2 9 9 8 22 26 27 42 15 38 24 177 14 209 -5 19
-8 -4 -9 -70 0 -91 -16 -172 -33 -172 -5 0 -7 33 -5 73 3 72 -1 60 -12 -41
-11 -100 -14 -46 -4 69 19 213 20 218 56 178z"/>
<path d="M1585 6700 c-12 -4 -27 -16 -35 -26 -12 -15 -13 -16 -1 -9 11 7 13 4
5 -11 -5 -10 -9 -45 -9 -77 0 -56 2 -60 41 -95 23 -20 54 -45 68 -55 22 -16
27 -25 24 -55 -5 -65 -64 -49 -88 24 -19 58 -33 41 -26 -31 4 -36 5 -65 2 -65
-2 0 -23 33 -46 73 -55 92 -52 87 -46 87 3 0 16 -19 30 -42 14 -24 26 -39 26
-35 0 5 -7 21 -17 37 -15 26 -15 30 5 61 17 29 19 42 12 94 -8 67 -14 57 -10
-22 1 -36 -3 -59 -15 -75 -15 -19 -16 -20 -10 -3 26 65 13 133 -30 161 -23 15
-36 16 -101 6 -42 -5 -78 -13 -81 -16 -3 -3 4 -13 15 -23 17 -15 24 -41 38
-159 15 -121 15 -188 -1 -172 -2 2 -7 59 -9 127 -3 68 -8 126 -11 130 -4 3 -4
-28 -2 -69 3 -41 2 -79 -2 -85 -4 -5 -13 -29 -20 -53 -9 -31 -19 -46 -38 -53
-15 -5 -30 -6 -34 -2 -8 9 -29 126 -23 132 10 11 35 -13 40 -39 6 -29 14 -36
26 -25 3 3 -1 36 -9 73 -8 37 -14 84 -15 105 0 20 -5 40 -11 44 -6 4 -8 0 -4
-10 3 -10 2 -17 -3 -17 -5 0 -10 -19 -12 -42 -5 -63 -23 -56 -36 14 -12 65 -7
78 28 77 8 0 5 -4 -7 -9 -23 -10 -24 -28 -2 -100 7 -23 7 -23 8 8 1 18 -4 42
-10 54 -13 23 -12 25 21 30 20 2 28 -3 39 -29 8 -18 19 -33 24 -33 8 0 6 26
-7 117 -4 24 -17 25 -106 8 -50 -10 -89 -20 -86 -22 2 -3 39 2 81 11 43 9 85
16 94 15 18 -1 -12 -8 -166 -40 -70 -15 -103 -26 -103 -35 0 -8 9 -14 20 -14
19 0 20 -6 19 -102 l0 -103 -47 94 c-33 65 -43 95 -34 98 20 7 15 35 -5 29
-26 -7 -243 -56 -280 -63 -35 -6 -46 -33 -13 -33 14 0 22 -11 30 -42 6 -24 17
-63 25 -87 l15 -43 -63 67 c-34 38 -68 77 -76 87 -15 22 -49 20 -133 -10 -48
-17 -65 -42 -28 -42 16 0 25 -19 55 -113 38 -123 43 -168 20 -187 -22 -18 -51
-3 -69 38 -31 71 -77 237 -66 240 12 4 14 32 1 32 -5 0 -28 -7 -52 -15 -24 -9
-49 -13 -56 -10 -27 10 -27 -28 -1 -49 15 -12 32 -40 39 -64 7 -23 14 -40 17
-38 2 3 -3 27 -12 54 -11 33 -24 52 -36 55 -12 3 -20 13 -19 24 1 15 2 15 6 2
2 -10 13 -19 23 -22 14 -4 28 -34 55 -123 43 -137 71 -174 130 -174 46 0 85
39 85 84 0 17 -16 86 -37 154 -28 94 -33 126 -24 135 22 22 47 -26 81 -156 26
-104 30 -130 20 -142 -7 -9 -10 -18 -7 -21 10 -10 79 9 84 23 5 12 7 12 15 1
8 -10 9 -10 5 2 -2 9 -13 14 -25 12 -27 -4 -31 5 -63 122 l-27 99 71 -79 c39
-43 88 -96 108 -116 20 -21 33 -38 29 -38 -5 0 -41 35 -80 78 -40 42 -54 55
-32 27 61 -75 109 -118 122 -110 7 4 29 9 49 11 20 2 50 8 66 14 27 9 26 9
-10 3 -22 -4 -53 -7 -70 -8 l-30 -2 -42 161 c-24 89 -41 167 -38 174 2 6 13
12 24 12 22 0 22 2 66 -188 22 -91 24 -116 15 -128 -20 -23 -6 -27 55 -13 61
14 79 27 46 36 -23 6 -20 -4 -62 172 -26 110 -29 135 -18 142 8 5 19 7 24 6
13 -4 163 -286 164 -309 1 -23 19 -32 36 -18 11 9 15 32 13 89 l-2 76 -5 -79
c-5 -59 -10 -80 -21 -83 -10 -3 -11 -2 -4 4 7 5 14 74 18 182 4 96 9 178 12
183 10 16 34 7 39 -14 3 -13 16 -81 29 -153 21 -111 22 -132 10 -141 -22 -18
-17 -37 9 -31 40 10 191 36 251 44 61 8 83 26 45 36 -19 5 -21 11 -16 46 3 24
1 39 -4 35 -5 -3 -9 5 -9 18 0 27 5 22 52 -64 17 -32 35 -58 40 -58 22 0 98
23 98 30 0 4 11 5 25 2 39 -7 75 6 87 33 6 13 14 23 18 20 13 -8 -8 116 -24
140 -9 14 -33 33 -54 44 -60 30 -83 72 -59 105 18 25 49 8 71 -39 26 -54 38
-44 30 28 -4 34 -7 62 -8 63 -7 7 -86 10 -101 4z"/>
<path d="M1748 6702 c-34 -2 -48 -7 -48 -18 0 -7 6 -14 14 -14 17 0 32 -128
23 -186 -4 -20 -2 -32 4 -29 5 4 9 -19 9 -54 0 -48 -3 -61 -15 -61 -20 0 -20
-39 0 -46 8 -4 69 -2 135 3 96 8 126 14 148 30 15 11 28 25 28 32 1 6 2 16 3
22 0 5 5 7 11 4 6 -4 7 1 3 11 -3 10 -2 15 3 12 14 -9 16 130 3 185 -7 29 -24
61 -44 83 l-33 34 -98 -2 c-55 -1 -120 -4 -146 -6z m107 -34 c10 -27 21 -304
13 -314 -14 -19 -48 -4 -48 20 0 12 -5 81 -11 154 -5 73 -7 137 -4 142 9 14
45 12 50 -2z m127 -29 c24 -47 34 -172 19 -227 -12 -42 -35 -63 -51 -46 -4 5
-11 78 -15 162 -7 146 -6 154 12 150 10 -1 26 -19 35 -39z"/>
<path d="M4106 6625 c-16 -42 -31 -74 -33 -71 -2 2 3 21 12 41 8 21 14 40 11
42 -7 7 -37 -78 -31 -88 4 -5 1 -25 -6 -44 -9 -25 -16 -31 -22 -22 -6 8 -7 7
-3 -5 6 -21 -12 -78 -26 -78 -5 0 -6 -5 -3 -11 4 -6 -3 -21 -16 -35 -12 -13
-21 -26 -18 -28 2 -2 23 -7 47 -11 37 -6 42 -4 43 12 0 16 1 16 10 -2 9 -20 9
-20 6 0 -1 12 -10 20 -22 20 -22 0 -23 6 -11 48 8 28 16 31 54 21 17 -5 22
-13 21 -38 -2 -30 -2 -30 -6 -3 -2 15 -8 27 -13 27 -5 0 -15 3 -23 6 -10 3
-18 -5 -25 -25 -13 -37 -6 -42 8 -6 12 30 40 23 40 -10 0 -13 6 -26 13 -28 7
-3 5 -6 -5 -6 -10 -1 -18 -7 -18 -15 0 -10 17 -17 58 -21 168 -19 301 -37 330
-45 37 -10 54 8 32 35 -7 8 -10 22 -6 30 7 18 32 20 39 3 4 -8 6 -7 6 3 1 10
-9 19 -22 21 -19 4 -26 -1 -34 -23 -8 -22 -8 -29 3 -33 8 -3 14 -13 13 -23 0
-14 -2 -15 -6 -3 -4 8 -12 20 -19 25 -10 8 -10 16 0 41 12 27 18 30 44 26 24
-3 31 -10 36 -35 5 -25 2 -35 -16 -49 -13 -9 -21 -19 -18 -21 12 -10 115 -24
118 -16 2 5 13 -2 24 -16 21 -27 65 -34 86 -13 8 8 12 8 12 1 0 -27 -68 -31
-96 -5 -10 9 -37 18 -59 19 l-40 3 48 -14 c27 -7 53 -18 60 -25 15 -15 59 -14
82 3 13 9 28 11 48 5 43 -12 46 -20 6 -14 -34 5 -34 5 -5 -5 19 -6 34 -6 41 0
7 6 15 7 19 3 3 -4 14 -8 24 -9 40 -5 206 -44 211 -50 3 -4 -5 -4 -19 0 -14 3
-43 8 -65 11 -29 4 -23 1 18 -10 33 -8 64 -18 70 -22 7 -3 9 -3 5 2 -4 4 -3
14 3 22 9 10 8 17 -1 28 -10 12 -10 27 1 78 l13 62 8 -60 c17 -130 13 -122 71
-139 110 -31 107 -31 107 0 0 38 13 56 33 48 23 -9 21 -41 -3 -49 -11 -3 -20
-14 -20 -23 1 -16 2 -15 11 1 5 9 17 17 24 17 10 0 15 10 15 30 0 17 -4 30 -9
30 -5 0 -16 3 -25 6 -11 4 -20 -4 -31 -27 -8 -19 -14 -29 -15 -22 0 7 5 24 12
38 9 20 17 25 32 21 12 -3 27 -6 34 -6 7 0 12 -14 12 -36 0 -27 -5 -37 -20
-41 -37 -10 -21 -28 41 -46 34 -10 59 -20 57 -23 -3 -2 -24 3 -48 11 -23 8
-50 15 -59 14 -9 0 11 -9 43 -19 33 -10 63 -17 67 -14 5 3 4 16 -1 30 -6 14
-10 106 -10 204 0 175 0 179 -21 177 -15 -1 -38 -31 -89 -117 -77 -131 -92
-160 -87 -160 2 0 39 61 82 135 43 74 80 133 82 131 5 -5 -158 -280 -171 -288
-17 -11 -22 1 -38 89 -14 79 -14 83 4 89 28 9 58 63 58 105 0 54 -30 85 -107
109 -79 24 -80 24 -87 3 -4 -14 -4 -13 -3 2 2 16 9 20 37 18 l35 -2 -28 11
c-23 8 -32 7 -45 -5 -14 -14 -13 -19 2 -49 12 -22 16 -25 13 -10 -3 12 -1 22
4 22 14 0 11 -23 -21 -153 -36 -143 -45 -167 -64 -167 -22 0 -26 23 -26 159 0
140 -8 221 -21 221 -5 0 -45 -72 -89 -159 -43 -88 -84 -163 -91 -166 -8 -5 -8
-1 1 15 7 12 18 85 25 162 8 77 18 145 23 150 6 6 8 -1 6 -19 -3 -24 -2 -23 7
6 5 18 8 35 6 37 -2 3 -34 7 -71 11 -55 5 -66 3 -66 -9 0 -9 9 -18 21 -21 17
-5 20 -11 15 -34 -3 -15 -10 -86 -16 -158 -11 -121 -20 -158 -36 -142 -4 4 -1
14 6 22 10 12 10 21 2 40 -16 35 -40 31 -57 -7 -12 -27 -14 -29 -15 -11 0 12
3 24 8 27 4 2 1 77 -8 165 -12 125 -19 164 -32 178 -16 15 -20 16 -33 3 -15
-16 -98 -200 -92 -206 2 -2 23 42 48 98 24 56 50 103 57 104 7 1 8 0 3 -2 -5
-3 -42 -81 -81 -175 -40 -93 -76 -169 -80 -169 -5 0 -6 9 -3 20 3 11 8 20 12
20 3 0 6 16 7 35 1 47 -17 44 -38 -5 -18 -44 -62 -70 -82 -49 -7 8 -7 10 0 6
7 -4 15 39 23 125 7 73 17 142 22 155 5 14 5 23 -1 23 -9 0 -13 -19 -34 -190
-7 -58 -14 -94 -15 -80 -1 32 28 270 35 281 2 4 11 6 19 2 9 -3 15 1 15 10 0
11 -13 18 -37 22 -21 4 -50 9 -65 11 -20 4 -27 1 -31 -13 -4 -16 -5 -16 -6 -1
0 9 3 19 8 22 17 11 126 -14 139 -31 6 -9 12 -12 12 -6 0 20 -28 34 -86 43
-48 8 -61 7 -74 -5 -12 -13 -12 -19 -2 -36 11 -17 10 -47 -4 -167 -11 -93 -20
-139 -25 -126 -6 16 -8 15 -8 -8 -1 -19 3 -26 13 -22 14 6 53 295 41 314 -3 5
-1 10 4 10 14 0 14 -10 -6 -178 -13 -116 -20 -145 -34 -153 -11 -5 -20 -5 -23
0 -6 9 -46 328 -46 364 0 41 -28 11 -54 -58z"/>
<path d="M2345 6259 c-466 -18 -943 -69 -1272 -135 -157 -31 -344 -78 -398
-99 -49 -19 -31 -15 115 24 1007 271 2988 281 4045 21 88 -22 171 -42 185 -45
l25 -6 -25 11 c-48 22 -353 91 -523 120 -584 98 -1390 139 -2152 109z"/>
<path d="M1960 6103 c-152 -12 -470 -47 -620 -69 -175 -25 -494 -84 -488 -90
2 -2 174 -61 382 -133 391 -134 439 -156 482 -221 40 -60 46 -128 42 -479 -3
-278 -6 -332 -21 -370 -10 -24 -15 -46 -12 -49 3 -3 5 0 5 7 0 7 4 10 9 7 5
-3 29 3 53 13 51 23 44 28 -9 6 -20 -8 -38 -13 -41 -11 -2 3 2 20 9 38 17 44
25 659 10 744 -13 69 -50 127 -106 166 -25 17 -175 74 -390 148 -192 66 -357
123 -365 127 -8 3 35 16 97 29 247 51 632 101 983 128 96 8 141 13 100 13 -41
0 -95 -2 -120 -4z"/>
<path d="M2726 6044 c-26 -9 -46 -17 -44 -19 2 -2 26 2 53 10 63 20 183 19
251 -1 146 -42 291 -203 344 -381 7 -24 23 -49 35 -57 31 -20 55 -76 55 -128
0 -51 -28 -102 -69 -126 -18 -10 -33 -30 -40 -52 -14 -46 -60 -119 -111 -174
-32 -34 -41 -51 -38 -72 3 -27 15 -33 227 -116 123 -49 226 -87 228 -85 2 2
-98 44 -222 93 -262 103 -258 99 -174 192 27 32 64 86 82 122 17 36 46 78 64
93 18 16 40 42 48 57 31 59 11 158 -40 198 -12 10 -28 35 -35 57 -23 73 -90
191 -140 247 -58 66 -131 114 -208 140 -67 22 -196 23 -266 2z"/>
<path d="M3005 5665 c39 -7 87 -20 108 -28 l38 -16 -21 -40 c-11 -22 -20 -46
-20 -53 0 -7 11 10 24 37 29 60 34 55 6 -6 -25 -56 -25 -73 4 -132 13 -26 17
-42 10 -36 -7 6 -18 26 -24 45 -7 20 -14 33 -17 31 -3 -4 17 -57 34 -88 2 -4
-8 -10 -23 -13 -14 -4 -24 -9 -21 -12 11 -11 77 26 77 43 0 10 12 41 25 68 14
28 25 66 25 86 0 34 -4 38 -58 67 -65 35 -159 62 -207 61 -16 0 2 -7 40 -14z"/>
<path d="M2542 5619 l-53 -30 3 -92 3 -92 50 -27 c28 -14 64 -29 80 -32 22 -4
19 -2 -11 9 l-41 16 24 50 c14 28 22 53 20 55 -3 3 -13 -15 -22 -41 -10 -25
-21 -48 -25 -50 -5 -3 -21 2 -36 10 -28 14 -29 16 -31 105 -1 55 3 90 9 90 6
0 8 -12 4 -27 -5 -28 -5 -28 8 2 8 17 12 33 9 38 -2 4 1 7 7 7 13 0 6 -28 -16
-72 -8 -15 -14 -32 -14 -38 0 -17 42 -110 49 -110 4 0 17 25 30 55 l23 54 -29
60 -29 60 35 15 c20 8 29 15 21 15 -8 1 -39 -13 -68 -30z"/>
<path d="M2682 5638 c-5 -7 -21 -38 -35 -68 l-24 -55 -18 43 c-10 24 -19 41
-21 39 -5 -5 83 -228 95 -240 5 -5 -4 24 -21 65 l-31 76 28 66 c16 37 32 69
36 72 5 2 -6 -27 -23 -66 l-31 -70 28 -70 c16 -39 31 -70 35 -70 4 0 19 31 35
69 l28 70 -28 68 c-34 81 -39 88 -53 71z"/>
<path d="M2831 5606 c-48 -109 -48 -107 -11 -190 18 -42 35 -76 39 -76 3 0 21
35 38 77 l33 77 -32 78 c-18 43 -35 78 -39 78 -5 0 -17 -20 -28 -44z"/>
<path d="M3017 5643 c-4 -3 -7 -13 -7 -22 0 -9 -11 -40 -25 -69 l-24 -52 27
-70 c15 -38 32 -70 37 -70 6 0 22 31 36 69 l26 69 -26 63 c-14 35 -29 66 -34
67 -4 2 -5 8 -1 13 6 10 0 12 -9 2z"/>
<path d="M3329 4816 c26 -27 37 -34 25 -14 -5 7 -2 9 7 6 8 -3 146 -58 308
-122 161 -64 300 -120 308 -125 20 -11 -65 -104 -141 -153 -74 -48 -154 -73
-298 -93 -158 -22 -225 -56 -346 -175 -52 -50 -107 -97 -123 -105 -16 -9 -29
-18 -29 -21 0 -16 73 38 144 106 44 43 93 88 108 100 52 41 133 68 244 84 174
25 252 53 345 123 43 33 127 130 118 137 -11 10 -627 249 -641 250 -10 0 -18
3 -18 7 0 4 -8 10 -17 13 -13 5 -11 0 6 -18z"/>
<path d="M1030 2656 c3 -1053 7 -1917 10 -1919 3 -3 4 856 2 1909 l-2 1914
265 0 265 0 21 -42 c57 -113 151 -200 291 -268 63 -31 96 -40 180 -49 198 -22
242 -41 367 -157 l74 -69 -444 -5 -444 -5 460 -2 460 -2 -50 45 c-188 169
-204 177 -385 199 -124 14 -143 19 -228 61 -118 58 -215 146 -264 239 l-33 65
-275 0 -275 0 5 -1914z"/>
<path d="M4108 4512 c-38 -78 -95 -142 -178 -197 -103 -69 -167 -91 -315 -109
-166 -21 -217 -45 -343 -161 l-92 -85 467 2 468 3 -455 5 -455 5 90 79 c117
103 158 121 320 141 148 19 212 42 315 110 80 53 148 126 187 202 l28 53 268
0 267 0 -2 -1892 -3 -1893 -22 -77 c-54 -191 -143 -287 -309 -334 -51 -15
-133 -18 -574 -24 -443 -5 -521 -8 -555 -22 -22 -9 -35 -17 -28 -17 6 -1 24 4
40 11 20 9 173 14 543 19 442 5 523 8 574 23 168 48 264 152 319 344 l22 77 3
1898 2 1897 -277 -1 -278 0 -27 -57z"/>
<path d="M1420 4393 l-45 -48 40 35 40 35 -42 -45 -43 -44 -45 44 -45 44 -57
-54 -57 -55 49 56 c28 31 56 57 63 58 6 1 28 -17 48 -39 20 -22 41 -40 47 -40
6 0 -9 20 -33 45 -24 25 -52 45 -61 45 -9 0 -43 -30 -74 -66 l-58 -65 43 -44
43 -44 -42 -46 -42 -46 20 -27 c11 -15 40 -47 65 -72 l46 -44 50 49 c27 27 48
51 46 53 -3 2 -20 -14 -40 -35 -19 -21 -36 -33 -36 -27 0 5 16 25 35 44 l35
34 48 -49 47 -50 -45 40 -45 40 45 -48 44 -47 68 67 68 67 -47 48 -47 48 47
48 47 48 -68 67 -68 67 -44 -47z"/>
<path d="M4204 4388 c-85 -89 -83 -83 -34 -133 l43 -44 -41 -45 c-23 -25 -42
-49 -42 -54 0 -4 30 -37 66 -72 37 -36 64 -60 61 -54 -3 6 16 33 44 60 l49 48
48 -49 47 -50 -45 40 -45 40 45 -48 44 -47 63 62 c35 34 63 67 63 72 0 6 -19
30 -42 53 l-42 43 42 43 c23 23 42 47 42 52 0 5 -28 38 -62 72 l-62 63 -49
-48 -49 -47 -40 45 c-23 25 -36 36 -30 25 6 -11 24 -33 41 -49 l31 -30 43 42
c24 23 47 42 53 42 12 0 114 -102 114 -115 0 -5 -19 -29 -42 -52 l-42 -43 42
-43 c23 -23 42 -47 42 -53 0 -5 -26 -34 -57 -64 l-58 -55 53 55 c28 31 52 60
52 65 0 5 -19 29 -42 52 l-42 43 44 45 c38 39 42 46 30 62 -29 38 -85 93 -94
93 -6 0 -30 -19 -53 -42 l-43 -42 -50 49 c-27 26 -47 52 -44 57 12 19 -5 5
-52 -44z"/>
<path d="M4130 2605 c-6 -1458 -3 -1371 -61 -1492 -28 -59 -120 -153 -177
-182 -23 -12 -42 -24 -42 -26 0 -3 19 4 42 16 62 32 160 135 191 200 53 112
51 65 54 1304 2 638 2 1241 1 1340 -2 99 -6 -423 -8 -1160z"/>
<path d="M1170 3445 c0 -25 5 -45 10 -45 6 0 10 7 10 15 0 8 2 15 5 15 10 0
87 -41 83 -44 -1 -2 -22 -13 -45 -25 -37 -18 -43 -19 -43 -6 0 9 4 13 10 10 5
-3 18 -1 27 5 16 10 15 10 -4 5 -12 -3 -24 -1 -28 5 -10 16 23 24 40 10 9 -7
18 -10 21 -7 3 3 -6 12 -21 19 -25 13 -29 13 -56 -11 -26 -23 -29 -31 -27 -86
l1 -60 6 64 c4 40 11 65 19 67 7 1 8 0 2 -3 -12 -6 -14 -133 -1 -133 5 0 11 7
14 15 4 8 33 28 66 45 67 33 141 41 141 15 0 -8 5 -15 10 -15 6 0 10 28 10 65
0 61 -11 84 -24 50 -10 -28 -79 -18 -145 21 -34 20 -61 40 -61 45 0 5 -4 9
-10 9 -5 0 -10 -20 -10 -45z"/>
<path d="M4440 3475 c-10 -12 -10 -18 0 -30 7 -8 17 -15 23 -15 6 0 2 6 -9 14
-27 21 -6 38 42 34 l39 -3 1 -105 0 -105 -3 103 -4 102 -39 0 c-48 0 -50 -9
-10 -32 53 -30 37 -38 -75 -38 -87 0 -105 3 -105 15 0 8 -4 15 -10 15 -6 0
-10 -30 -10 -70 0 -67 12 -93 23 -50 5 18 14 20 106 20 56 0 101 -3 101 -6 0
-18 -24 -44 -40 -44 -11 0 -20 -7 -20 -15 0 -11 11 -15 39 -15 66 0 66 0 64
111 -1 61 -6 106 -13 115 -16 19 -84 18 -100 -1z"/>
<path d="M4272 3198 c-15 -15 -16 -130 -1 -145 8 -8 8 -13 0 -17 -16 -10 -14
-91 3 -105 12 -10 24 -5 61 23 26 20 50 36 54 36 4 0 16 -9 26 -20 27 -30 72
-26 106 11 27 29 29 36 29 119 0 66 -4 91 -15 100 -13 10 -19 10 -33 -3 -13
-12 -43 -17 -107 -20 l-90 -3 94 -2 c77 -2 96 1 106 15 24 32 35 4 35 -86 0
-80 -2 -91 -25 -115 -30 -33 -68 -34 -99 -3 l-24 24 -46 -34 c-25 -18 -46 -30
-46 -26 0 5 22 22 48 39 l48 32 21 -24 c33 -37 78 -31 102 13 14 27 15 183 1
183 -5 0 -10 -7 -10 -15 0 -13 -16 -15 -102 -13 -94 3 -103 5 -103 22 0 24
-16 31 -33 14z"/>
<path d="M1390 3077 c-8 -8 -62 -33 -120 -57 -110 -44 -130 -56 -130 -73 0 -6
6 -4 13 5 6 9 59 35 117 59 58 23 111 47 118 52 7 6 12 6 12 0 0 -5 -54 -31
-120 -58 -68 -28 -120 -54 -120 -62 0 -7 5 -13 12 -13 20 0 202 -72 219 -87
24 -20 29 -16 29 27 0 22 -4 40 -10 40 -5 0 -10 -7 -10 -16 0 -11 -5 -14 -16
-10 -9 3 -20 6 -25 6 -6 0 -9 17 -7 38 2 30 7 38 26 40 12 2 22 -1 22 -6 0 -6
-9 -8 -20 -5 -17 4 -20 0 -20 -25 0 -34 19 -47 36 -24 17 23 34 5 34 -38 0
-45 -14 -58 -38 -38 -19 16 -212 91 -218 85 -2 -2 42 -21 99 -42 56 -21 110
-45 119 -53 14 -12 20 -12 33 -2 18 15 20 81 3 98 -9 9 -9 15 0 24 7 7 12 37
12 68 0 70 -19 95 -50 67z"/>
<path d="M4280 2855 c0 -25 5 -45 10 -45 6 0 10 7 10 15 0 8 6 15 13 15 26 0
38 -18 35 -51 -2 -26 -8 -35 -25 -37 -16 -2 -23 2 -23 12 0 9 -4 16 -10 16
-13 0 -13 -127 0 -133 6 -3 5 -4 -2 -3 -8 2 -15 27 -19 67 l-6 64 -1 -61 c-2
-72 15 -98 46 -71 9 8 63 34 120 57 56 24 101 44 99 46 -5 5 -198 -75 -214
-88 -9 -7 -13 -7 -13 0 0 5 54 31 120 58 66 27 120 54 120 59 0 6 -52 30 -115
54 -64 24 -118 47 -120 51 -3 4 45 -12 107 -36 61 -24 113 -42 115 -40 4 3
-227 96 -240 96 -4 0 -7 -20 -7 -45z"/>
<path d="M1298 2751 c-13 -11 -33 -38 -43 -60 -14 -31 -24 -41 -42 -41 -18 0
-23 5 -23 24 0 14 7 32 16 40 18 18 44 21 44 5 0 -5 -5 -7 -10 -4 -15 9 -40
-14 -40 -36 0 -11 7 -19 15 -19 20 0 45 52 38 78 -4 18 -13 22 -47 22 l-41 0
-2 -52 c-3 -59 14 -94 53 -108 38 -15 71 4 106 60 24 38 37 50 52 48 16 -2 21
-10 21 -33 0 -24 -6 -33 -32 -45 -30 -14 -48 -42 -35 -54 3 -3 26 -5 51 -4
l46 1 -50 7 -50 7 50 1 50 2 2 61 c2 55 0 64 -26 90 -34 34 -68 37 -103 10z"/>
<path d="M4272 2598 c-17 -17 -15 -152 2 -187 16 -30 56 -61 79 -61 8 0 26 9
40 20 25 20 28 20 51 5 22 -15 28 -15 53 -2 44 23 54 52 50 137 l-3 75 -2 -82
c-2 -77 -3 -82 -33 -107 -36 -30 -38 -31 -67 -10 -21 14 -24 14 -48 -5 -32
-25 -52 -26 -80 -3 -35 28 -44 56 -44 136 0 77 13 103 35 73 17 -24 190 -25
199 -2 3 8 10 15 16 15 5 0 2 -9 -7 -20 -15 -17 -30 -20 -111 -20 -73 0 -94 3
-98 15 -14 35 -24 10 -24 -60 0 -87 12 -119 51 -136 24 -9 33 -9 54 5 14 9 25
21 25 27 0 5 14 0 30 -13 l30 -22 28 21 c25 19 27 26 32 113 3 50 1 94 -3 97
-5 3 -16 -2 -26 -11 -24 -22 -173 -23 -191 -1 -15 18 -22 19 -38 3z"/>
<path d="M1170 2485 c0 -25 5 -45 10 -45 6 0 10 7 10 15 0 13 10 16 48 14 27
-1 55 1 63 6 24 14 -2 -9 -68 -59 -60 -45 -63 -49 -63 -91 0 -27 5 -45 14 -48
8 -3 13 1 12 11 -1 15 13 17 103 20 100 3 103 2 98 -18 -6 -25 9 -36 28 -20
10 8 14 29 13 59 l-1 46 -6 -49 c-3 -28 -12 -51 -19 -52 -7 -1 -8 0 -2 3 12 6
14 93 1 93 -5 0 -11 -7 -15 -15 -4 -11 -23 -15 -77 -15 -40 0 -69 3 -66 7 4 3
36 5 72 4 36 -1 65 1 65 6 0 4 -25 7 -55 6 -30 0 -55 0 -55 2 0 7 142 117 146
113 2 -3 -25 -26 -61 -53 -35 -27 -63 -51 -60 -53 7 -7 146 110 142 121 -1 5
-53 9 -125 8 -102 -2 -123 0 -128 13 -12 31 -24 15 -24 -29z"/>
<path d="M4295 2330 c3 -5 1 -10 -4 -10 -6 0 -11 -18 -11 -40 0 -22 5 -40 10
-40 6 0 10 7 10 16 0 11 5 14 16 10 9 -3 20 -6 25 -6 6 0 9 -17 7 -37 -2 -31
-7 -39 -25 -41 -13 -2 -23 1 -23 6 0 6 9 8 20 5 17 -4 20 0 20 25 0 34 -19 47
-36 24 -17 -24 -34 -5 -36 41 l-1 42 -4 -38 c-3 -21 1 -45 8 -53 9 -11 9 -18
1 -26 -18 -18 -15 -123 3 -138 13 -10 19 -10 33 2 9 8 43 25 75 38 32 12 56
24 54 27 -4 4 -89 -29 -119 -47 -10 -6 -18 -6 -18 -2 0 5 54 30 120 57 68 28
120 54 120 62 0 7 -5 13 -11 13 -16 0 -218 80 -223 89 -3 4 45 -12 106 -36 60
-24 112 -42 114 -40 3 2 -35 19 -83 37 -49 18 -103 41 -121 51 -18 11 -30 15
-27 9z"/>
<path d="M1330 2224 c0 -4 14 -19 30 -33 17 -15 33 -40 36 -58 l7 -33 -52 0
c-49 0 -51 1 -41 20 6 11 20 20 30 20 11 0 20 5 20 10 0 6 -28 10 -65 10 -67
0 -81 -8 -43 -25 41 -19 33 -35 -16 -35 -41 0 -46 2 -46 23 0 28 26 67 46 67
8 0 14 5 14 10 0 6 -18 10 -39 10 l-40 0 -3 -111 c-2 -61 1 -113 5 -116 5 -3
16 2 26 11 25 23 167 23 193 0 14 -14 20 -14 33 -4 12 10 15 34 13 119 l-2
106 -5 -109 c-4 -75 -10 -111 -18 -114 -7 -2 -16 3 -19 12 -9 23 -189 24 -198
1 -3 -8 -11 -15 -18 -14 -10 0 -10 2 0 6 6 2 12 11 12 19 0 11 21 14 105 14
87 0 105 -3 105 -15 0 -8 5 -15 10 -15 6 0 10 43 10 110 0 107 -1 110 -22 110
-13 0 -33 3 -45 6 -13 4 -23 3 -23 -2z"/>
<path d="M4277 2018 c-41 -23 -39 -105 3 -128 10 -6 66 -10 124 -10 88 0 106
-3 106 -15 0 -8 5 -15 10 -15 6 0 10 28 10 65 0 37 -4 65 -10 65 -5 0 -10 -7
-10 -15 0 -12 -20 -15 -120 -15 -81 0 -120 4 -120 11 0 6 7 8 16 5 19 -7 44
10 44 30 0 20 -32 34 -53 22z"/>
<path d="M1169 1963 c0 -5 -1 -39 -1 -78 l-1 -70 -7 65 -7 65 1 -65 c1 -51 4
-65 17 -68 10 -2 19 5 22 18 5 18 13 20 102 20 88 0 97 -2 102 -20 11 -43 23
-17 23 50 0 40 -4 70 -10 70 -5 0 -10 -7 -10 -15 0 -12 -18 -15 -105 -15 -84
0 -105 3 -105 14 0 8 -6 17 -12 19 -10 4 -10 6 0 6 7 1 15 -6 18 -14 9 -23
189 -22 198 1 13 35 31 5 37 -62 l5 -69 2 66 c2 77 -14 104 -46 75 -25 -22
-174 -23 -192 -1 -13 16 -30 20 -31 8z"/>
<path d="M4272 1818 c-15 -15 -16 -80 0 -96 8 -8 8 -15 -1 -26 -7 -9 -11 -37
-8 -73 l3 -58 2 62 c2 63 16 88 36 61 17 -23 36 -10 36 24 0 25 -3 29 -20 25
-11 -3 -20 -1 -20 5 0 5 10 8 23 6 18 -2 23 -10 25 -40 2 -21 -1 -38 -7 -38
-5 0 -16 -3 -25 -6 -11 -4 -16 -1 -16 10 0 9 -4 16 -10 16 -6 0 -10 -27 -10
-60 0 -36 4 -60 11 -60 5 0 7 -4 4 -10 -3 -5 7 -2 24 8 34 19 34 29 -1 12 -15
-8 -20 -9 -12 -1 5 6 59 31 119 55 60 24 111 48 113 54 1 5 -51 31 -118 57
-66 26 -120 51 -120 57 0 7 4 7 13 0 7 -6 61 -29 119 -52 59 -23 111 -46 114
-52 9 -15 -14 -32 -79 -58 -32 -12 -56 -24 -54 -26 7 -7 111 39 131 57 29 27
10 42 -112 89 -59 23 -114 48 -123 56 -19 17 -22 17 -37 2z"/>
<path d="M1176 1749 c-23 -27 -26 -39 -26 -114 0 -62 4 -86 15 -95 13 -10 19
-10 33 4 14 12 38 16 97 16 59 0 83 -4 97 -16 14 -14 20 -14 33 -4 21 17 21
133 0 150 -19 16 -34 5 -28 -20 5 -18 0 -20 -41 -20 -46 0 -46 0 -46 34 0 19
-4 38 -10 41 -5 3 -10 12 -10 18 1 25 30 -28 30 -55 0 -26 3 -28 38 -26 36 1
36 1 5 5 -27 4 -33 9 -33 29 0 27 -49 84 -72 84 -7 -1 -2 -7 12 -14 23 -13 21
-14 -21 -9 -65 7 -79 -14 -79 -124 0 -49 4 -83 10 -83 6 0 10 7 10 15 0 12 18
15 100 15 80 0 102 -3 106 -15 4 -8 10 -15 15 -15 13 0 11 127 -1 133 -6 3 -5
4 2 3 9 -2 14 -25 16 -66 3 -69 -10 -98 -32 -67 -19 25 -183 25 -201 0 -23
-31 -35 -4 -35 80 0 88 13 121 54 137 15 6 17 9 4 9 -9 1 -28 -13 -42 -30z"/>
<path d="M1278 922 l-67 -67 49 -55 c27 -30 50 -51 50 -45 0 5 -19 30 -42 55
l-43 45 50 -47 50 -48 -50 -47 -50 -48 40 45 40 45 -48 -45 -47 -44 67 -68 67
-68 46 45 45 45 44 -43 c24 -23 41 -36 37 -29 -4 7 -2 12 6 12 7 0 37 24 68
53 l55 52 -50 -55 c-28 -30 -54 -58 -60 -63 -6 -5 -5 -7 4 -5 8 2 39 32 68 65
l55 62 -43 46 -42 46 39 41 c23 24 30 36 18 30 -11 -6 -33 -27 -47 -46 l-27
-34 41 -37 c22 -20 39 -38 37 -41 -2 -2 -24 17 -48 41 l-44 45 49 50 c26 27
53 46 59 43 6 -3 -18 24 -54 61 -35 36 -69 66 -75 66 -6 0 -29 -18 -50 -40
l-39 -40 -46 45 -46 45 -66 -68z"/>
<path d="M4085 930 c-27 -27 -46 -50 -42 -50 3 0 25 20 48 45 23 25 46 45 52
45 6 0 31 -19 54 -42 l43 -42 43 42 c47 46 58 50 78 25 13 -15 12 -15 -8 -2
-21 13 -26 10 -68 -31 l-45 -44 -45 44 -45 44 -55 -54 c-30 -30 -55 -50 -55
-45 0 5 -5 4 -12 -3 -9 -9 -2 -22 32 -57 l44 -45 -34 -36 c-23 -22 -34 -43
-32 -57 2 -18 1 -19 -7 -7 -6 8 -11 10 -11 5 0 -6 30 -40 66 -75 37 -36 63
-59 59 -51 -6 10 -4 13 7 8 16 -6 87 58 76 68 -3 3 -19 -10 -37 -30 -17 -20
-31 -32 -31 -27 0 4 18 26 40 47 l40 39 43 -44 42 -45 -40 38 c-61 55 -62 45
-2 -13 l52 -49 63 62 c34 34 62 66 62 71 0 6 -19 30 -42 53 l-42 43 42 43 c23
23 42 47 42 52 0 13 -112 125 -124 125 -6 0 -30 -19 -53 -42 l-43 -42 -43 42
c-23 23 -47 42 -53 42 -5 0 -32 -22 -59 -50z"/>
<path d="M1061 670 c-1 -9 15 -48 34 -88 57 -119 153 -197 286 -233 29 -8 216
-14 559 -18 l515 -6 78 -28 c107 -37 183 -77 262 -137 l67 -51 38 34 c45 42
135 95 212 127 32 13 56 25 54 27 -14 14 -208 -91 -266 -144 l-38 -34 -67 51
c-79 60 -155 100 -262 137 l-78 28 -515 6 c-333 4 -530 10 -557 18 -153 41
-250 133 -309 291 -7 19 -13 28 -13 20z"/>
<path d="M1731 2548 c1 -706 4 -1293 7 -1306 4 -13 6 562 4 1277 l-2 1301
1125 0 1125 0 3 -1272 2 -1273 3 1278 2 1277 -1135 0 -1135 0 1 -1282z"/>
<path d="M2742 3769 c-35 -14 -72 -40 -107 -75 -35 -36 -65 -57 -91 -64 l-39
-10 41 5 c33 4 51 15 100 64 48 48 70 62 118 76 119 35 242 -1 330 -95 42 -45
51 -50 89 -50 59 0 138 -41 187 -97 52 -60 74 -132 68 -224 -5 -62 -3 -70 19
-90 13 -13 35 -47 50 -76 46 -96 19 -195 -82 -303 -29 -30 -58 -73 -65 -95 -8
-23 -35 -61 -66 -92 -29 -29 -44 -49 -34 -43 31 17 98 100 111 138 6 20 34 58
61 84 79 80 119 180 104 262 -4 19 -26 63 -49 98 -39 59 -41 66 -38 125 1 36
-4 84 -13 116 -30 103 -155 207 -249 207 -34 0 -46 7 -88 49 -99 101 -240 136
-357 90z"/>
<path d="M2756 3754 c-36 -11 -66 -32 -110 -77 -60 -60 -62 -61 -121 -62 -104
-3 -189 -66 -241 -179 -30 -65 -39 -165 -17 -187 10 -10 10 -4 2 25 -19 69 20
186 85 254 31 33 113 82 138 82 7 0 -14 -13 -47 -29 -64 -30 -103 -68 -136
-133 -26 -51 -41 -135 -31 -173 7 -25 3 -38 -24 -80 -33 -50 -53 -114 -54
-170 0 -42 51 -146 98 -197 22 -24 49 -65 61 -93 38 -87 99 -134 201 -156 48
-10 119 -4 198 17 l22 6 0 -139 0 -139 -112 -111 c-115 -113 -141 -129 -184
-119 -19 5 -24 13 -24 36 0 26 5 31 30 37 35 7 41 14 51 63 7 34 7 34 8 5 1
-38 -22 -73 -52 -77 -27 -4 -37 -45 -13 -54 35 -14 75 12 178 114 l108 106 0
134 c0 116 -2 133 -15 128 -8 -3 -44 -10 -80 -17 -69 -12 -138 -3 -202 27 -44
22 -120 107 -128 145 -4 17 -27 53 -51 80 -24 27 -58 78 -75 111 -27 54 -31
70 -26 118 5 57 20 100 57 160 21 34 21 34 1 10 -36 -44 -63 -108 -68 -168 -5
-50 -1 -67 23 -116 15 -31 49 -81 75 -111 25 -29 50 -66 53 -81 20 -78 111
-156 210 -181 59 -14 74 -14 141 -1 l75 14 0 -126 0 -125 -92 -91 c-105 -103
-133 -124 -165 -124 -16 0 -23 6 -23 20 0 13 7 20 19 20 46 0 84 108 41 116
-8 2 -25 6 -37 10 -18 5 -23 2 -23 -11 0 -24 -24 -13 -28 13 -3 18 3 23 27 28
27 6 31 11 31 40 0 50 -28 64 -136 67 -80 2 -96 -1 -151 -27 -55 -25 -63 -32
-63 -56 0 -15 -7 -44 -15 -65 -28 -65 -30 -153 -6 -213 12 -29 21 -70 21 -91
0 -35 -3 -39 -42 -57 -23 -10 -62 -40 -88 -66 l-46 -47 48 192 c26 106 47 198
48 206 0 8 -21 39 -47 70 -74 89 -79 95 -67 88 6 -4 36 -37 67 -75 48 -58 57
-76 63 -122 4 -30 15 -77 25 -105 28 -74 25 -110 -8 -124 -16 -6 -39 -21 -53
-32 -15 -12 -2 -8 30 10 66 37 72 60 39 151 -24 67 -22 149 6 216 8 20 15 49
15 65 0 24 8 32 43 50 23 12 60 28 82 35 24 8 32 13 19 13 -11 1 -50 -14 -85
-31 -60 -31 -64 -36 -70 -73 -3 -22 -10 -50 -17 -62 -7 -12 -12 -32 -12 -45 0
-20 -6 -16 -43 27 -23 28 -58 67 -77 88 l-35 38 -75 -56 c-41 -31 -79 -61 -85
-68 -13 -14 1 -5 83 57 35 27 65 46 68 44 5 -6 -158 -123 -171 -123 -5 0 -11
-28 -13 -62 -3 -54 1 -70 32 -132 20 -38 41 -73 47 -76 17 -11 36 14 68 93 24
59 29 82 24 118 -6 44 4 57 25 31 8 -9 0 -56 -29 -171 -22 -87 -38 -160 -36
-163 2 -2 23 70 45 159 39 156 40 164 23 181 -9 10 -24 15 -33 12 -13 -5 -14
-14 -6 -49 8 -37 5 -52 -24 -121 -18 -43 -38 -80 -45 -82 -7 -3 -27 26 -48 66
-29 58 -35 81 -35 132 0 76 8 75 11 -1 1 -52 52 -190 69 -190 3 0 21 35 39 78
28 69 31 83 22 120 -8 38 -7 44 11 53 17 9 25 7 44 -12 l23 -24 -54 -215 -55
-215 6 -115 c4 -75 11 -120 20 -131 23 -26 28 -73 10 -88 -13 -11 -16 -34 -16
-112 l0 -99 104 0 c59 0 108 -4 111 -10 4 -6 50 -9 113 -8 l107 2 -105 3 c-58
2 -108 7 -113 12 -4 4 -2 53 4 108 7 61 8 111 3 127 -7 19 -10 -1 -11 -74 0
-56 -6 -106 -12 -114 -6 -7 -7 -17 -3 -21 12 -14 -21 7 -60 38 -32 24 -38 35
-38 66 0 35 3 39 50 61 28 13 50 28 50 34 1 27 28 227 31 230 2 2 69 16 149
33 l145 29 50 96 c59 115 82 140 151 173 53 25 58 32 69 96 5 24 20 50 46 75
l39 38 0 -60 c0 -59 0 -60 -57 -116 -32 -32 -75 -64 -95 -73 -32 -13 -44 -28
-77 -93 -22 -42 -40 -73 -41 -69 0 4 14 34 30 67 17 33 30 63 30 67 -1 4 -17
-23 -36 -61 -21 -40 -32 -72 -27 -77 14 -14 94 14 145 49 25 17 63 53 86 79
l41 48 1 -296 0 -295 -29 -47 c-31 -48 -87 -91 -133 -102 -24 -6 -26 -10 -17
-27 15 -27 85 -58 135 -58 41 0 42 -1 54 -45 15 -55 45 -95 70 -95 25 0 78 63
85 103 6 31 9 33 68 44 58 11 107 37 114 60 2 5 -17 18 -42 28 -26 9 -64 34
-86 55 l-39 37 0 313 0 313 40 -45 c45 -51 116 -100 173 -118 59 -19 64 -3 23
76 -19 38 -35 65 -36 61 0 -4 14 -34 30 -67 17 -33 30 -63 30 -67 -1 -4 -18
26 -40 68 -33 64 -44 78 -80 94 -24 11 -64 42 -91 70 -47 48 -49 52 -49 109
l0 60 34 -33 c27 -26 37 -46 43 -85 8 -49 10 -52 62 -78 79 -40 104 -69 153
-174 23 -52 50 -96 58 -98 8 -3 76 -17 150 -32 74 -15 136 -28 138 -29 1 -1 9
-55 18 -120 16 -127 20 -134 82 -157 28 -11 32 -16 32 -49 0 -32 -6 -41 -50
-75 -27 -21 -50 -42 -50 -46 0 -4 45 -8 100 -8 l100 0 0 99 c0 78 -3 101 -16
112 -18 15 -13 62 10 88 9 11 16 56 20 131 l6 115 -55 215 -55 215 24 23 c19
20 27 22 44 13 18 -9 19 -15 10 -51 -9 -35 -7 -49 22 -120 18 -44 35 -80 39
-80 18 0 60 113 66 177 l7 70 -86 63 c-47 35 -84 66 -81 68 2 2 41 -25 87 -60
l83 -64 3 -58 c3 -50 -2 -69 -32 -133 -22 -45 -41 -73 -48 -71 -7 3 -28 40
-46 84 -30 70 -33 84 -24 121 7 34 6 43 -6 48 -16 6 -52 -21 -52 -39 0 -6 7 0
16 12 24 35 33 26 31 -35 -1 -48 5 -70 33 -128 20 -40 41 -70 50 -70 9 0 31
32 53 74 30 59 37 85 37 130 0 65 -4 70 -124 160 l-69 51 -25 -22 c-13 -13
-47 -51 -75 -86 l-51 -63 -14 43 c-8 24 -17 61 -20 83 -7 37 -12 42 -71 73
-35 17 -74 32 -85 31 -13 0 -5 -5 19 -13 22 -7 59 -23 83 -35 34 -18 42 -26
42 -50 0 -16 6 -44 14 -63 8 -18 18 -62 22 -96 5 -51 3 -72 -15 -121 -34 -89
-27 -115 39 -152 32 -18 45 -22 30 -10 -14 11 -37 26 -52 32 -35 14 -37 55 -9
126 10 27 22 74 26 105 6 50 14 65 67 127 32 39 61 71 64 71 3 0 -23 -34 -57
-76 l-63 -75 42 -177 c23 -97 45 -188 49 -202 6 -22 0 -19 -39 20 -25 25 -64
54 -87 64 -38 18 -41 22 -41 57 0 21 9 62 21 91 17 43 20 65 15 117 -4 35 -13
79 -21 99 -8 19 -15 47 -15 62 0 24 -8 31 -62 56 -57 26 -72 29 -157 26 -103
-2 -131 -15 -131 -58 0 -13 -5 -26 -10 -29 -23 -14 3 51 31 78 16 15 26 27 21
27 -18 0 -61 -57 -64 -84 -2 -22 1 -29 16 -32 56 -8 67 -15 64 -36 -4 -25 -28
-37 -28 -14 0 9 -8 16 -18 16 -62 0 -55 -101 8 -113 25 -6 30 -11 30 -37 0
-23 -5 -31 -24 -36 -43 -10 -68 6 -178 114 l-108 106 0 142 0 143 45 -20 c39
-17 52 -18 111 -9 121 19 209 84 236 174 8 24 30 56 58 82 60 56 100 130 107
199 5 45 1 63 -20 108 -15 29 -37 63 -50 76 -22 20 -24 28 -19 90 6 87 -16
163 -63 218 -45 52 -125 93 -183 93 -40 0 -48 4 -88 49 -85 94 -221 132 -338
95z"/>
<path d="M2970 1627 c0 -341 -5 -325 106 -377 35 -17 64 -35 64 -40 0 -21 -65
-60 -119 -71 -55 -12 -60 -15 -70 -49 -12 -41 -65 -100 -90 -100 -26 0 -59 40
-77 93 -15 44 -18 47 -52 47 -48 1 -113 31 -140 65 -12 15 -22 23 -22 18 0
-12 49 -57 79 -73 13 -7 44 -15 68 -19 41 -5 46 -9 58 -45 16 -45 61 -96 87
-96 25 0 84 62 97 103 10 31 17 35 68 46 61 14 132 68 119 90 -4 7 -32 23 -62
36 -29 13 -65 35 -79 49 l-25 25 0 287 0 287 43 -40 c51 -47 120 -88 162 -97
29 -5 29 -5 5 6 -14 6 -44 20 -68 31 -23 10 -67 42 -97 69 l-55 50 0 -295z"/>
<path d="M2385 1709 c-22 -5 -86 -19 -142 -30 -57 -12 -103 -25 -103 -29 0 -5
10 -6 22 -2 15 4 19 2 13 -7 -5 -10 -54 -382 -55 -423 0 -5 47 -8 105 -8 67 0
105 4 105 11 0 5 5 7 10 4 6 -3 10 -4 10 -1 0 2 -22 21 -50 41 -39 28 -50 43
-50 64 0 22 7 29 36 40 19 7 34 15 31 17 -2 2 -20 -3 -40 -11 -31 -13 -37 -20
-37 -45 0 -23 10 -37 46 -65 58 -44 50 -46 -11 -3 -39 28 -45 36 -45 68 0 34
3 37 50 57 46 20 50 24 50 55 0 92 -8 106 -82 150 -38 22 -67 43 -64 45 9 10
145 -87 149 -107 4 -18 5 -18 3 2 -1 17 -22 37 -79 74 l-78 51 118 23 c65 13
125 27 133 31 18 10 7 10 -45 -2z"/>
<path d="M3528 1662 c21 -6 17 -11 -41 -45 -72 -42 -101 -70 -94 -89 4 -8 6
-7 6 5 1 17 137 114 147 104 3 -2 -27 -23 -65 -46 -62 -37 -70 -45 -76 -79 -3
-21 -5 -58 -3 -82 2 -40 5 -45 40 -59 58 -24 53 -57 -17 -110 -52 -39 -65 -53
-47 -50 4 1 59 0 122 -2 l115 -3 -110 -6 -110 -6 110 0 c87 1 109 4 107 15 -1
7 -13 105 -26 216 -13 112 -27 208 -30 214 -4 6 0 11 8 11 9 0 15 -8 14 -17
-1 -10 0 -40 1 -68 2 -45 3 -47 12 -25 9 22 7 105 -2 115 -2 2 -22 6 -44 9
-23 3 -30 2 -17 -2z"/>
<path d="M3596 1522 c-7 -21 11 -239 23 -274 5 -14 13 -12 54 20 38 30 47 42
47 68 0 27 -6 34 -40 49 -53 24 -59 33 -68 101 -6 46 -10 54 -16 36z"/>
<path d="M1760 1174 c0 -26 62 -104 102 -127 78 -46 108 -49 443 -56 364 -7
367 -8 492 -103 l63 -47 75 53 c124 89 155 96 454 96 141 0 290 5 331 10 103
13 175 51 218 114 17 26 32 53 32 60 -1 6 -9 -5 -20 -25 -28 -53 -92 -106
-152 -125 -43 -14 -104 -17 -333 -20 -154 -2 -301 -6 -328 -8 -59 -6 -159 -53
-227 -107 l-52 -41 -26 25 c-41 39 -141 96 -197 113 -39 11 -105 15 -301 14
-413 -1 -484 20 -563 165 -5 11 -11 15 -11 9z"/>
<path d="M2441 7903 c-1 -16 -8 -23 -23 -24 -22 -1 -22 -1 2 -9 24 -8 24 -8 3
-9 -21 -1 -23 -6 -23 -61 l0 -60 30 0 c28 0 30 -3 30 -35 l0 -35 60 0 60 0 0
35 c0 33 2 35 35 35 l36 0 -3 57 c-3 51 -5 58 -28 64 l-25 6 25 5 c23 5 23 5
3 7 -16 1 -23 8 -24 24 -1 12 -5 4 -9 -18 l-7 -40 -2 38 -1 37 -60 0 -60 0 -1
-37 -2 -38 -7 40 c-4 22 -8 30 -9 18z m109 -43 c0 -28 3 -30 35 -30 32 0 35
-2 35 -30 0 -28 -3 -30 -35 -30 -33 0 -35 -2 -35 -35 0 -32 -2 -35 -30 -35
-28 0 -30 3 -30 35 0 33 -2 35 -35 35 -32 0 -35 2 -35 30 0 28 3 30 35 30 32
0 35 2 35 30 0 27 3 30 30 30 27 0 30 -3 30 -30z"/>
<path d="M3131 7903 c-1 -16 -8 -23 -23 -24 -22 -1 -22 -1 2 -9 l25 -8 -27 -1
c-27 -1 -28 -2 -28 -61 l0 -60 35 0 c33 0 35 -2 35 -35 l0 -35 55 0 55 0 0 35
c0 33 2 35 35 35 l35 0 0 61 0 61 -35 -4 c-34 -4 -35 -3 -35 29 l0 33 -55 0
-55 0 -1 -37 -2 -38 -7 40 c-4 22 -8 30 -9 18z m101 -43 c-4 -29 -3 -30 32
-30 33 0 36 -2 36 -29 0 -26 -4 -30 -32 -33 -26 -2 -34 -8 -37 -28 l-4 -25 -8
25 -7 25 -2 -25 -2 -25 -8 25 -8 25 -1 -27 c-1 -22 4 -27 27 -31 25 -4 25 -4
-5 -6 -31 -1 -33 1 -33 35 0 35 -1 36 -35 32 -34 -4 -35 -3 -35 29 0 31 2 33
35 33 32 0 35 2 35 30 0 26 4 30 28 30 26 0 28 -3 24 -30z"/>
<path d="M3062 7800 c-2 -61 9 -80 45 -80 18 0 23 -6 23 -25 0 -14 8 -30 18
-36 16 -10 17 -16 8 -35 -10 -22 -17 -24 -88 -24 l-78 0 0 79 c0 75 1 80 23
84 19 4 18 4 -5 6 l-28 1 0 -90 0 -90 89 0 c85 0 90 1 93 23 3 21 6 22 123 22
l120 0 3 -183 c2 -141 0 -183 -10 -187 -7 -2 -66 -7 -130 -10 l-118 -7 0 -34
c0 -32 -2 -34 -35 -34 l-35 0 0 -60 0 -60 35 0 c33 0 35 -2 35 -35 l0 -35 55
0 55 0 0 35 c0 33 2 35 35 35 l35 0 0 60 0 60 -35 0 c-33 0 -35 2 -35 35 l0
35 69 0 c46 0 72 5 80 14 8 9 11 69 9 191 -3 146 -6 179 -18 186 -8 4 -69 11
-135 16 l-120 8 -3 32 c-3 28 -7 32 -35 35 -31 3 -32 4 -38 63 l-6 60 -1 -55z
m156 -587 c-23 -4 -28 -9 -27 -31 l1 -27 8 25 8 25 2 -25 2 -25 8 25 8 25 1
-27 c1 -25 5 -28 36 -28 32 0 35 -2 35 -30 0 -28 -3 -30 -36 -30 -35 0 -36 -1
-32 -35 4 -33 2 -35 -24 -35 -25 0 -28 3 -28 35 0 33 -2 35 -35 35 -32 0 -35
2 -35 30 0 28 3 30 35 30 33 0 35 2 35 35 0 33 2 35 33 34 30 -2 30 -2 5 -6z"/>
<path d="M2378 7253 c58 -4 62 -5 62 -28 0 -17 -6 -25 -18 -25 -31 0 -42 -22
-40 -79 l1 -56 6 60 c6 56 8 60 33 63 22 3 28 9 31 35 4 31 4 31 5 -5 2 -36 0
-38 -28 -38 l-30 0 0 -60 0 -60 30 0 c28 0 30 -3 30 -35 l0 -35 60 0 60 0 0
35 c0 33 2 35 35 35 l35 0 0 60 0 60 -35 0 c-33 0 -35 2 -35 34 l0 33 -92 7
c-50 3 -110 5 -132 4 -27 -1 -19 -3 22 -5z m172 -68 c0 -33 2 -35 35 -35 32 0
35 -2 35 -30 0 -28 -3 -30 -35 -30 -33 0 -35 -2 -35 -35 0 -32 -2 -35 -30 -35
-28 0 -30 3 -30 35 0 33 -2 35 -35 35 -32 0 -35 2 -35 30 0 28 3 30 35 30 33
0 35 2 35 35 0 32 2 35 30 35 28 0 30 -3 30 -35z"/>
<path d="M690 5136 c0 -2 39 -16 86 -30 47 -15 84 -29 82 -32 -3 -2 -73 -38
-156 -79 -114 -56 -163 -87 -200 -124 -91 -91 -87 -68 -87 -546 l-1 -420 6
420 c6 475 2 453 88 540 36 36 86 66 210 127 90 45 160 84 155 88 -7 7 -166
60 -179 60 -2 0 -4 -2 -4 -4z"/>
<path d="M980 556 c0 -22 75 -128 127 -177 66 -63 124 -99 209 -131 57 -21 74
-22 574 -28 504 -6 516 -6 585 -29 91 -30 162 -67 265 -135 46 -31 85 -55 86
-53 5 5 -175 122 -231 150 -27 13 -81 35 -120 48 -69 23 -81 23 -585 29 l-515
5 -67 26 c-128 50 -229 135 -297 251 -17 29 -31 49 -31 44z"/>
</g>
</svg>
